<?xml version="1.0" encoding="UTF-8"?>
<svg xmlns="http://www.w3.org/2000/svg" xmlns:xlink="http://www.w3.org/1999/xlink" stroke-dasharray="none" shape-rendering="auto" font-family="'Dialog'" width="794" text-rendering="auto" fill-opacity="1" contentScriptType="text/ecmascript" color-interpolation="auto" color-rendering="auto" preserveAspectRatio="xMidYMid meet" font-size="12" viewBox="0 0 794 666" fill="black" stroke="black" image-rendering="auto" stroke-miterlimit="10" zoomAndPan="magnify" version="1.0" stroke-linecap="square" stroke-linejoin="miter" contentStyleType="text/css" font-style="normal" height="666" stroke-width="1" stroke-dashoffset="0" font-weight="normal" stroke-opacity="1">
<!--Generated by the Batik Graphics2D SVG Generator-->
<defs id="genericDefs"/>
<g>
<defs id="defs1">
<clipPath clipPathUnits="userSpaceOnUse" id="clipPath1">
<path d="M9 9 L785 9 L785 657 L9 657 L9 9 Z"/>
</clipPath>
<clipPath clipPathUnits="userSpaceOnUse" id="clipPath2">
<path d="M19 14 L111 14 L111 28 L19 28 L19 14 Z"/>
</clipPath>
<clipPath clipPathUnits="userSpaceOnUse" id="clipPath3">
<path d="M19 27 L101 27 L101 41 L19 41 L19 27 Z"/>
</clipPath>
<clipPath clipPathUnits="userSpaceOnUse" id="clipPath4">
<path d="M9 40 L785 40 L785 657 L9 657 L9 40 Z"/>
</clipPath>
<clipPath clipPathUnits="userSpaceOnUse" id="clipPath5">
<path d="M65 91 L192 91 L192 193 L65 193 L65 91 Z"/>
</clipPath>
<clipPath clipPathUnits="userSpaceOnUse" id="clipPath6">
<path d="M68 94 L192 94 L192 108 L68 108 L68 94 Z"/>
</clipPath>
<clipPath clipPathUnits="userSpaceOnUse" id="clipPath7">
<path d="M92 107 L170 107 L170 121 L92 121 L92 107 Z"/>
</clipPath>
<clipPath clipPathUnits="userSpaceOnUse" id="clipPath8">
<path d="M65 120 L192 120 L192 147 L65 147 L65 120 Z"/>
</clipPath>
<clipPath clipPathUnits="userSpaceOnUse" id="clipPath9">
<path d="M65 146 L192 146 L192 173 L65 173 L65 146 Z"/>
</clipPath>
<clipPath clipPathUnits="userSpaceOnUse" id="clipPath10">
<path d="M65 172 L192 172 L192 193 L65 193 L65 172 Z"/>
</clipPath>
<clipPath clipPathUnits="userSpaceOnUse" id="clipPath11">
<path d="M69 219 L182 219 L182 321 L69 321 L69 219 Z"/>
</clipPath>
<clipPath clipPathUnits="userSpaceOnUse" id="clipPath12">
<path d="M72 222 L182 222 L182 237 L72 237 L72 222 Z"/>
</clipPath>
<clipPath clipPathUnits="userSpaceOnUse" id="clipPath13">
<path d="M72 236 L182 236 L182 251 L72 251 L72 236 Z"/>
</clipPath>
<clipPath clipPathUnits="userSpaceOnUse" id="clipPath14">
<path d="M69 250 L182 250 L182 276 L69 276 L69 250 Z"/>
</clipPath>
<clipPath clipPathUnits="userSpaceOnUse" id="clipPath15">
<path d="M69 275 L182 275 L182 301 L69 301 L69 275 Z"/>
</clipPath>
<clipPath clipPathUnits="userSpaceOnUse" id="clipPath16">
<path d="M69 300 L182 300 L182 321 L69 321 L69 300 Z"/>
</clipPath>
<clipPath clipPathUnits="userSpaceOnUse" id="clipPath17">
<path d="M438 107 L635 107 L635 453 L438 453 L438 107 Z"/>
</clipPath>
<clipPath clipPathUnits="userSpaceOnUse" id="clipPath18">
<path d="M448 112 L515 112 L515 127 L448 127 L448 112 Z"/>
</clipPath>
<clipPath clipPathUnits="userSpaceOnUse" id="clipPath19">
<path d="M448 126 L493 126 L493 141 L448 141 L448 126 Z"/>
</clipPath>
<clipPath clipPathUnits="userSpaceOnUse" id="clipPath20">
<path d="M438 140 L635 140 L635 453 L438 453 L438 140 Z"/>
</clipPath>
<clipPath clipPathUnits="userSpaceOnUse" id="clipPath21">
<path d="M477 163 L579 163 L579 265 L477 265 L477 163 Z"/>
</clipPath>
<clipPath clipPathUnits="userSpaceOnUse" id="clipPath22">
<path d="M480 166 L579 166 L579 180 L480 180 L480 166 Z"/>
</clipPath>
<clipPath clipPathUnits="userSpaceOnUse" id="clipPath23">
<path d="M511 179 L550 179 L550 193 L511 193 L511 179 Z"/>
</clipPath>
<clipPath clipPathUnits="userSpaceOnUse" id="clipPath24">
<path d="M477 192 L579 192 L579 219 L477 219 L477 192 Z"/>
</clipPath>
<clipPath clipPathUnits="userSpaceOnUse" id="clipPath25">
<path d="M477 218 L579 218 L579 245 L477 245 L477 218 Z"/>
</clipPath>
<clipPath clipPathUnits="userSpaceOnUse" id="clipPath26">
<path d="M477 244 L579 244 L579 265 L477 265 L477 244 Z"/>
</clipPath>
<clipPath clipPathUnits="userSpaceOnUse" id="clipPath27">
<path d="M477 287 L579 287 L579 389 L477 389 L477 287 Z"/>
</clipPath>
<clipPath clipPathUnits="userSpaceOnUse" id="clipPath28">
<path d="M480 290 L579 290 L579 305 L480 305 L480 290 Z"/>
</clipPath>
<clipPath clipPathUnits="userSpaceOnUse" id="clipPath29">
<path d="M504 304 L558 304 L558 319 L504 319 L504 304 Z"/>
</clipPath>
<clipPath clipPathUnits="userSpaceOnUse" id="clipPath30">
<path d="M477 318 L579 318 L579 344 L477 344 L477 318 Z"/>
</clipPath>
<clipPath clipPathUnits="userSpaceOnUse" id="clipPath31">
<path d="M477 343 L579 343 L579 369 L477 369 L477 343 Z"/>
</clipPath>
<clipPath clipPathUnits="userSpaceOnUse" id="clipPath32">
<path d="M477 368 L579 368 L579 389 L477 389 L477 368 Z"/>
</clipPath>
<clipPath clipPathUnits="userSpaceOnUse" id="clipPath33">
<path d="M37 443 L258 443 L258 634 L37 634 L37 443 Z"/>
</clipPath>
<clipPath clipPathUnits="userSpaceOnUse" id="clipPath34">
<path d="M47 448 L118 448 L118 463 L47 463 L47 448 Z"/>
</clipPath>
<clipPath clipPathUnits="userSpaceOnUse" id="clipPath35">
<path d="M47 462 L137 462 L137 477 L47 477 L47 462 Z"/>
</clipPath>
<clipPath clipPathUnits="userSpaceOnUse" id="clipPath36">
<path d="M37 476 L258 476 L258 634 L37 634 L37 476 Z"/>
</clipPath>
<clipPath clipPathUnits="userSpaceOnUse" id="clipPath37">
<path d="M77 505 L179 505 L179 607 L77 607 L77 505 Z"/>
</clipPath>
<clipPath clipPathUnits="userSpaceOnUse" id="clipPath38">
<path d="M80 508 L179 508 L179 523 L80 523 L80 508 Z"/>
</clipPath>
<clipPath clipPathUnits="userSpaceOnUse" id="clipPath39">
<path d="M100 522 L162 522 L162 537 L100 537 L100 522 Z"/>
</clipPath>
<clipPath clipPathUnits="userSpaceOnUse" id="clipPath40">
<path d="M77 536 L179 536 L179 562 L77 562 L77 536 Z"/>
</clipPath>
<clipPath clipPathUnits="userSpaceOnUse" id="clipPath41">
<path d="M77 561 L179 561 L179 587 L77 587 L77 561 Z"/>
</clipPath>
<clipPath clipPathUnits="userSpaceOnUse" id="clipPath42">
<path d="M77 586 L179 586 L179 607 L77 607 L77 586 Z"/>
</clipPath>
<clipPath clipPathUnits="userSpaceOnUse" id="clipPath43">
<path d="M441 488 L728 488 L728 547 L441 547 L441 488 Z"/>
</clipPath>
<clipPath clipPathUnits="userSpaceOnUse" id="clipPath44">
<path d="M467 491 L708 491 L708 506 L467 506 L467 491 Z"/>
</clipPath>
<clipPath clipPathUnits="userSpaceOnUse" id="clipPath45">
<path d="M441 505 L728 505 L728 521 L441 521 L441 505 Z"/>
</clipPath>
<clipPath clipPathUnits="userSpaceOnUse" id="clipPath46">
<path d="M441 520 L728 520 L728 536 L441 536 L441 520 Z"/>
</clipPath>
<clipPath clipPathUnits="userSpaceOnUse" id="clipPath47">
<path d="M441 535 L728 535 L728 547 L441 547 L441 535 Z"/>
</clipPath>
<clipPath clipPathUnits="userSpaceOnUse" id="clipPath48">
<path d="M73 344 L192 344 L192 427 L73 427 L73 344 Z"/>
</clipPath>
<clipPath clipPathUnits="userSpaceOnUse" id="clipPath49">
<path d="M76 347 L192 347 L192 362 L76 362 L76 347 Z"/>
</clipPath>
<clipPath clipPathUnits="userSpaceOnUse" id="clipPath50">
<path d="M110 361 L160 361 L160 376 L110 376 L110 361 Z"/>
</clipPath>
<clipPath clipPathUnits="userSpaceOnUse" id="clipPath51">
<path d="M73 375 L192 375 L192 395 L73 395 L73 375 Z"/>
</clipPath>
<clipPath clipPathUnits="userSpaceOnUse" id="clipPath52">
<path d="M73 394 L192 394 L192 414 L73 414 L73 394 Z"/>
</clipPath>
<clipPath clipPathUnits="userSpaceOnUse" id="clipPath53">
<path d="M73 413 L192 413 L192 427 L73 427 L73 413 Z"/>
</clipPath>
<clipPath clipPathUnits="userSpaceOnUse" id="clipPath54">
<path d="M305 387 L407 387 L407 489 L305 489 L305 387 Z"/>
</clipPath>
<clipPath clipPathUnits="userSpaceOnUse" id="clipPath55">
<path d="M314 390 L404 390 L404 405 L314 405 L314 390 Z"/>
</clipPath>
<clipPath clipPathUnits="userSpaceOnUse" id="clipPath56">
<path d="M305 404 L407 404 L407 435 L305 435 L305 404 Z"/>
</clipPath>
<clipPath clipPathUnits="userSpaceOnUse" id="clipPath57">
<path d="M305 434 L407 434 L407 465 L305 465 L305 434 Z"/>
</clipPath>
<clipPath clipPathUnits="userSpaceOnUse" id="clipPath58">
<path d="M305 464 L407 464 L407 489 L305 489 L305 464 Z"/>
</clipPath>
<clipPath clipPathUnits="userSpaceOnUse" id="clipPath59">
<path d="M-1 -1 L795 -1 L795 667 L-1 667 L-1 -1 Z"/>
</clipPath>
<clipPath clipPathUnits="userSpaceOnUse" id="clipPath60">
<path d="M180 297 L199 297 L199 311 L180 311 L180 297 Z"/>
</clipPath>
<clipPath clipPathUnits="userSpaceOnUse" id="clipPath61">
<path d="M180 276 L199 276 L199 288 L180 288 L180 276 Z"/>
</clipPath>
<clipPath clipPathUnits="userSpaceOnUse" id="clipPath62">
<path d="M330 132 L364 132 L364 158 L330 158 L330 132 Z"/>
</clipPath>
<clipPath clipPathUnits="userSpaceOnUse" id="clipPath63">
<path d="M326 190 L350 190 L350 204 L326 204 L326 190 Z"/>
</clipPath>
<clipPath clipPathUnits="userSpaceOnUse" id="clipPath64">
<path d="M190 167 L209 167 L209 179 L190 179 L190 167 Z"/>
</clipPath>
<clipPath clipPathUnits="userSpaceOnUse" id="clipPath65">
<path d="M320 125 L358 125 L358 153 L320 153 L320 125 Z"/>
</clipPath>
<clipPath clipPathUnits="userSpaceOnUse" id="clipPath66">
<path d="M310 156 L363 156 L363 171 L310 171 L310 156 Z"/>
</clipPath>
<clipPath clipPathUnits="userSpaceOnUse" id="clipPath67">
<path d="M190 118 L209 118 L209 130 L190 130 L190 118 Z"/>
</clipPath>
<clipPath clipPathUnits="userSpaceOnUse" id="clipPath68">
<path d="M129 319 L142 319 L142 337 L129 337 L129 319 Z"/>
</clipPath>
<clipPath clipPathUnits="userSpaceOnUse" id="clipPath69">
<path d="M305 263 L365 263 L365 278 L305 278 L305 263 Z"/>
</clipPath>
<clipPath clipPathUnits="userSpaceOnUse" id="clipPath70">
<path d="M180 258 L198 258 L198 271 L180 271 L180 258 Z"/>
</clipPath>
</defs>
<g font-size="11" fill="white" font-family="'Lucida Grande'" stroke-linejoin="round" stroke="white" stroke-width="0" stroke-miterlimit="0">
<rect x="10" y="10" clip-path="url(#clipPath1)" width="110" height="31" stroke="none"/>
<rect x="10" y="41" clip-path="url(#clipPath1)" width="774" height="615" stroke="none"/>
</g>
<g stroke-width="1.1" font-size="11" font-family="'Lucida Grande'" stroke-linecap="butt">
<rect x="10" y="10" clip-path="url(#clipPath1)" fill="none" width="110" height="31"/>
<text font-size="10" x="20" y="25" clip-path="url(#clipPath2)" stroke="none" xml:space="preserve">«pyegg, gsprofile»</text>
<text font-size="10" x="20" y="38" clip-path="url(#clipPath3)" stroke="none" xml:space="preserve">agx.testpackage</text>
<rect x="10" y="41" clip-path="url(#clipPath4)" fill="none" width="773" height="614"/>
<rect x="67" y="93" clip-path="url(#clipPath5)" fill="white" width="123" height="98" stroke="none"/>
<rect x="66" y="92" clip-path="url(#clipPath5)" fill="white" width="125" height="100" stroke="none"/>
<text font-size="10" x="94" y="105" clip-path="url(#clipPath6)" stroke="none" xml:space="preserve">«content_type»</text>
<text font-size="10" x="93" y="118" clip-path="url(#clipPath7)" stroke="none" xml:space="preserve">MyContentType</text>
<line clip-path="url(#clipPath8)" fill="none" x1="66" x2="191" y1="121" y2="121"/>
<line clip-path="url(#clipPath9)" fill="none" x1="66" x2="191" y1="147" y2="147"/>
<line clip-path="url(#clipPath10)" fill="none" x1="66" x2="191" y1="173" y2="173"/>
<rect x="66" y="92" clip-path="url(#clipPath5)" fill="none" width="124" height="99"/>
<rect x="71" y="221" clip-path="url(#clipPath11)" fill="white" width="109" height="98" stroke="none"/>
<rect x="70" y="220" clip-path="url(#clipPath11)" fill="white" width="111" height="100" stroke="none"/>
<text xml:space="preserve" x="88" y="234" clip-path="url(#clipPath12)" stroke="none">«content_type»</text>
<text xml:space="preserve" x="73" y="248" clip-path="url(#clipPath13)" stroke="none">AnotherContentType</text>
<line clip-path="url(#clipPath14)" fill="none" x1="70" x2="181" y1="251" y2="251"/>
<line clip-path="url(#clipPath15)" fill="none" x1="70" x2="181" y1="276" y2="276"/>
<line clip-path="url(#clipPath16)" fill="none" x1="70" x2="181" y1="301" y2="301"/>
<rect x="70" y="220" clip-path="url(#clipPath11)" fill="none" width="110" height="99"/>
<rect x="439" y="108" clip-path="url(#clipPath17)" fill="white" width="85" height="33" stroke="none"/>
<rect x="439" y="141" clip-path="url(#clipPath17)" fill="white" width="195" height="311" stroke="none"/>
<rect x="439" y="108" clip-path="url(#clipPath17)" fill="none" width="85" height="33"/>
<text xml:space="preserve" x="449" y="124" clip-path="url(#clipPath18)" stroke="none">«pymodule»</text>
<text xml:space="preserve" x="449" y="138" clip-path="url(#clipPath19)" stroke="none">browser</text>
<rect x="439" y="141" clip-path="url(#clipPath20)" fill="none" width="194" height="310"/>
<rect x="479" y="165" clip-path="url(#clipPath21)" fill="white" width="98" height="98" stroke="none"/>
<rect x="478" y="164" clip-path="url(#clipPath21)" fill="white" width="100" height="100" stroke="none"/>
<text font-size="10" x="515" y="177" clip-path="url(#clipPath22)" stroke="none" xml:space="preserve">«view»</text>
<text font-size="10" x="512" y="190" clip-path="url(#clipPath23)" stroke="none" xml:space="preserve">MyView</text>
<line clip-path="url(#clipPath24)" fill="none" x1="478" x2="578" y1="193" y2="193"/>
<line clip-path="url(#clipPath25)" fill="none" x1="478" x2="578" y1="219" y2="219"/>
<line clip-path="url(#clipPath26)" fill="none" x1="478" x2="578" y1="245" y2="245"/>
<rect x="478" y="164" clip-path="url(#clipPath21)" fill="none" width="99" height="99"/>
<rect x="479" y="289" clip-path="url(#clipPath27)" fill="white" width="98" height="98" stroke="none"/>
<rect x="478" y="288" clip-path="url(#clipPath27)" fill="white" width="100" height="100" stroke="none"/>
<text xml:space="preserve" x="488" y="302" clip-path="url(#clipPath28)" stroke="none">«dynamic_view»</text>
<text xml:space="preserve" x="505" y="316" clip-path="url(#clipPath29)" stroke="none">DynaView</text>
<line clip-path="url(#clipPath30)" fill="none" x1="478" x2="578" y1="319" y2="319"/>
<line clip-path="url(#clipPath31)" fill="none" x1="478" x2="578" y1="344" y2="344"/>
<line clip-path="url(#clipPath32)" fill="none" x1="478" x2="578" y1="369" y2="369"/>
<rect x="478" y="288" clip-path="url(#clipPath27)" fill="none" width="99" height="99"/>
<line clip-path="url(#clipPath20)" fill="none" x1="439" x2="634" y1="141" y2="141"/>
<rect x="439" y="108" clip-path="url(#clipPath17)" fill="none" width="85" height="33" stroke-width="0.1"/>
<rect x="38" y="444" clip-path="url(#clipPath33)" fill="white" width="108" height="33" stroke="none" stroke-width="0.1"/>
<rect x="38" y="477" clip-path="url(#clipPath33)" fill="white" width="219" height="156" stroke="none" stroke-width="0.1"/>
<rect x="38" y="444" clip-path="url(#clipPath33)" fill="none" width="108" height="33"/>
<text xml:space="preserve" x="48" y="460" clip-path="url(#clipPath34)" stroke="none">«pypackage»</text>
<text xml:space="preserve" x="48" y="474" clip-path="url(#clipPath35)" stroke="none">browserpackage</text>
<rect x="38" y="477" clip-path="url(#clipPath36)" fill="none" width="218" height="155"/>
<rect x="79" y="507" clip-path="url(#clipPath37)" fill="white" width="98" height="98" stroke="none"/>
<rect x="78" y="506" clip-path="url(#clipPath37)" fill="white" width="100" height="100" stroke="none"/>
<text xml:space="preserve" x="113" y="520" clip-path="url(#clipPath38)" stroke="none">«view»</text>
<text xml:space="preserve" x="101" y="534" clip-path="url(#clipPath39)" stroke="none">GlobalView</text>
<line clip-path="url(#clipPath40)" fill="none" x1="78" x2="178" y1="537" y2="537"/>
<line clip-path="url(#clipPath41)" fill="none" x1="78" x2="178" y1="562" y2="562"/>
<line clip-path="url(#clipPath42)" fill="none" x1="78" x2="178" y1="587" y2="587"/>
<rect x="78" y="506" clip-path="url(#clipPath37)" fill="none" width="99" height="99"/>
<line clip-path="url(#clipPath36)" fill="none" x1="38" x2="257" y1="477" y2="477"/>
<rect x="38" y="444" clip-path="url(#clipPath33)" fill="none" width="108" height="33" stroke-width="0.1"/>
<rect x="443" y="490" clip-path="url(#clipPath43)" fill="white" width="283" height="55" stroke="none" stroke-width="0.1"/>
<rect x="442" y="489" clip-path="url(#clipPath43)" fill="white" width="285" height="57" stroke="none" stroke-width="0.1"/>
<text x="468" y="503" clip-path="url(#clipPath44)" stroke="none" stroke-width="0.1" xml:space="preserve">NormalClassShouldNotAppearInBrowserZcml</text>
<line clip-path="url(#clipPath45)" fill="none" x1="442" x2="727" y1="506" y2="506"/>
<line clip-path="url(#clipPath46)" fill="none" x1="442" x2="727" y1="521" y2="521"/>
<line clip-path="url(#clipPath47)" fill="none" x1="442" x2="727" y1="536" y2="536"/>
<rect x="442" y="489" clip-path="url(#clipPath43)" fill="none" width="284" height="56"/>
<rect x="75" y="346" clip-path="url(#clipPath48)" fill="white" width="115" height="79" stroke="none"/>
<rect x="74" y="345" clip-path="url(#clipPath48)" fill="white" width="117" height="81" stroke="none"/>
<text xml:space="preserve" x="117" y="359" clip-path="url(#clipPath49)" stroke="none">«view»</text>
<text xml:space="preserve" x="111" y="373" clip-path="url(#clipPath50)" stroke="none">ViewTwo</text>
<line clip-path="url(#clipPath51)" fill="none" x1="74" x2="191" y1="376" y2="376"/>
<line clip-path="url(#clipPath52)" fill="none" x1="74" x2="191" y1="395" y2="395"/>
<line clip-path="url(#clipPath53)" fill="none" x1="74" x2="191" y1="414" y2="414"/>
<rect x="74" y="345" clip-path="url(#clipPath48)" fill="none" width="116" height="80"/>
<rect x="307" y="389" clip-path="url(#clipPath54)" fill="white" width="98" height="98" stroke="none"/>
<rect x="306" y="388" clip-path="url(#clipPath54)" fill="white" width="100" height="100" stroke="none"/>
<text xml:space="preserve" x="315" y="402" clip-path="url(#clipPath55)" stroke="none">SomePermission</text>
<line clip-path="url(#clipPath56)" fill="none" x1="306" x2="406" y1="405" y2="405"/>
<line clip-path="url(#clipPath57)" fill="none" x1="306" x2="406" y1="435" y2="435"/>
<line clip-path="url(#clipPath58)" fill="none" x1="306" x2="406" y1="465" y2="465"/>
<rect x="306" y="388" clip-path="url(#clipPath54)" fill="none" width="99" height="99"/>
<line clip-path="url(#clipPath4)" fill="none" x1="10" x2="784" y1="41" y2="41"/>
<rect x="10" y="10" clip-path="url(#clipPath1)" fill="none" width="110" height="31" stroke-width="0.1"/>
<line clip-path="url(#clipPath59)" fill="none" text-rendering="optimizeLegibility" x1="552" x2="181" y1="489" y2="298" stroke-dasharray="5,5,5,5,5,5,5,5,5,5"/>
<line clip-path="url(#clipPath60)" fill="none" text-rendering="optimizeLegibility" x1="197" x2="181" y1="300" y2="298"/>
<line clip-path="url(#clipPath60)" fill="none" text-rendering="optimizeLegibility" x1="181" x2="192" y1="298" y2="309"/>
<line clip-path="url(#clipPath59)" fill="none" text-rendering="optimizeLegibility" x1="478" x2="181" y1="329" y2="279" stroke-dasharray="5,5,5,5,5,5,5,5,5,5"/>
<line clip-path="url(#clipPath61)" fill="none" text-rendering="optimizeLegibility" x1="197" x2="181" y1="277" y2="279"/>
<line clip-path="url(#clipPath61)" fill="none" text-rendering="optimizeLegibility" x1="181" x2="195" y1="279" y2="286"/>
<line clip-path="url(#clipPath59)" fill="none" text-rendering="optimizeLegibility" x1="478" x2="191" y1="237" y2="169" stroke-dasharray="5,5,5,5,5,5,5,5,5,5"/>
<text font-size="10" x="347" y="143" clip-path="url(#clipPath62)" text-rendering="optimizeLegibility" stroke-dasharray="5,5,5,5,5,5,5,5,5,5" stroke="none" xml:space="preserve"/>
<text font-size="10" x="331" y="155" clip-path="url(#clipPath62)" text-rendering="optimizeLegibility" stroke-dasharray="5,5,5,5,5,5,5,5,5,5" stroke="none" xml:space="preserve">«view»</text>
<text font-size="10" x="327" y="201" clip-path="url(#clipPath63)" text-rendering="optimizeLegibility" stroke-dasharray="5,5,5,5,5,5,5,5,5,5" stroke="none" xml:space="preserve">view</text>
<line clip-path="url(#clipPath64)" fill="none" text-rendering="optimizeLegibility" x1="207" x2="191" y1="168" y2="169"/>
<line clip-path="url(#clipPath64)" fill="none" text-rendering="optimizeLegibility" x1="191" x2="204" y1="169" y2="177"/>
<line clip-path="url(#clipPath59)" fill="none" text-rendering="optimizeLegibility" x1="478" x2="191" y1="189" y2="120" stroke-dasharray="5,5,5,5,5,5,5,5,5,5"/>
<text x="339" y="137" clip-path="url(#clipPath65)" text-rendering="optimizeLegibility" stroke-dasharray="5,5,5,5,5,5,5,5,5,5" stroke="none" xml:space="preserve"/>
<text x="321" y="150" clip-path="url(#clipPath65)" text-rendering="optimizeLegibility" stroke-dasharray="5,5,5,5,5,5,5,5,5,5" stroke="none" xml:space="preserve">«view»</text>
<text x="311" y="168" clip-path="url(#clipPath66)" text-rendering="optimizeLegibility" stroke-dasharray="5,5,5,5,5,5,5,5,5,5" stroke="none" xml:space="preserve">edit-view</text>
<line clip-path="url(#clipPath67)" fill="none" text-rendering="optimizeLegibility" x1="207" x2="191" y1="119" y2="120"/>
<line clip-path="url(#clipPath67)" fill="none" text-rendering="optimizeLegibility" x1="191" x2="204" y1="120" y2="128"/>
<line clip-path="url(#clipPath59)" fill="none" text-rendering="optimizeLegibility" x1="135" x2="135" y1="345" y2="320" stroke-dasharray="5,5,5,5,5,5,5,5,5,5"/>
<line clip-path="url(#clipPath68)" fill="none" text-rendering="optimizeLegibility" x1="140" x2="135" y1="335" y2="320"/>
<line clip-path="url(#clipPath68)" fill="none" text-rendering="optimizeLegibility" x1="135" x2="130" y1="320" y2="335"/>
<line clip-path="url(#clipPath59)" fill="none" text-rendering="optimizeLegibility" x1="478" x2="181" y1="242" y2="265" stroke-dasharray="5,5,5,5,5,5,5,5,5,5"/>
<text x="306" y="275" clip-path="url(#clipPath69)" text-rendering="optimizeLegibility" stroke-dasharray="5,5,5,5,5,5,5,5,5,5" stroke="none" xml:space="preserve">other_view</text>
<line clip-path="url(#clipPath70)" fill="none" text-rendering="optimizeLegibility" x1="196" x2="181" y1="259" y2="265"/>
<line clip-path="url(#clipPath70)" fill="none" text-rendering="optimizeLegibility" x1="181" x2="196" y1="265" y2="269"/>
<line clip-path="url(#clipPath59)" fill="none" text-rendering="optimizeLegibility" x1="478" x2="191" y1="237" y2="169" stroke-dasharray="5,5,5,5,5,5,5,5,5,5"/>
<text font-size="10" x="347" y="143" clip-path="url(#clipPath62)" text-rendering="optimizeLegibility" stroke-dasharray="5,5,5,5,5,5,5,5,5,5" stroke="none" xml:space="preserve"/>
<text font-size="10" x="331" y="155" clip-path="url(#clipPath62)" text-rendering="optimizeLegibility" stroke-dasharray="5,5,5,5,5,5,5,5,5,5" stroke="none" xml:space="preserve">«view»</text>
<text font-size="10" x="327" y="201" clip-path="url(#clipPath63)" text-rendering="optimizeLegibility" stroke-dasharray="5,5,5,5,5,5,5,5,5,5" stroke="none" xml:space="preserve">view</text>
<line clip-path="url(#clipPath64)" fill="none" text-rendering="optimizeLegibility" x1="207" x2="191" y1="168" y2="169"/>
<line clip-path="url(#clipPath64)" fill="none" text-rendering="optimizeLegibility" x1="191" x2="204" y1="169" y2="177"/>
<line clip-path="url(#clipPath59)" fill="none" text-rendering="optimizeLegibility" x1="478" x2="181" y1="242" y2="265" stroke-dasharray="5,5,5,5,5,5,5,5,5,5"/>
<text x="306" y="275" clip-path="url(#clipPath69)" text-rendering="optimizeLegibility" stroke-dasharray="5,5,5,5,5,5,5,5,5,5" stroke="none" xml:space="preserve">other_view</text>
<line clip-path="url(#clipPath70)" fill="none" text-rendering="optimizeLegibility" x1="196" x2="181" y1="259" y2="265"/>
<line clip-path="url(#clipPath70)" fill="none" text-rendering="optimizeLegibility" x1="181" x2="196" y1="265" y2="269"/>
<line clip-path="url(#clipPath59)" fill="none" text-rendering="optimizeLegibility" x1="478" x2="191" y1="189" y2="120" stroke-dasharray="5,5,5,5,5,5,5,5,5,5"/>
<text x="339" y="137" clip-path="url(#clipPath65)" text-rendering="optimizeLegibility" stroke-dasharray="5,5,5,5,5,5,5,5,5,5" stroke="none" xml:space="preserve"/>
<text x="321" y="150" clip-path="url(#clipPath65)" text-rendering="optimizeLegibility" stroke-dasharray="5,5,5,5,5,5,5,5,5,5" stroke="none" xml:space="preserve">«view»</text>
<text x="311" y="168" clip-path="url(#clipPath66)" text-rendering="optimizeLegibility" stroke-dasharray="5,5,5,5,5,5,5,5,5,5" stroke="none" xml:space="preserve">edit-view</text>
<line clip-path="url(#clipPath67)" fill="none" text-rendering="optimizeLegibility" x1="207" x2="191" y1="119" y2="120"/>
<line clip-path="url(#clipPath67)" fill="none" text-rendering="optimizeLegibility" x1="191" x2="204" y1="120" y2="128"/>
<line clip-path="url(#clipPath59)" fill="none" text-rendering="optimizeLegibility" x1="478" x2="181" y1="329" y2="279" stroke-dasharray="5,5,5,5,5,5,5,5,5,5"/>
<line clip-path="url(#clipPath61)" fill="none" text-rendering="optimizeLegibility" x1="197" x2="181" y1="277" y2="279"/>
<line clip-path="url(#clipPath61)" fill="none" text-rendering="optimizeLegibility" x1="181" x2="195" y1="279" y2="286"/>
<line clip-path="url(#clipPath59)" fill="none" text-rendering="optimizeLegibility" x1="552" x2="181" y1="489" y2="298" stroke-dasharray="5,5,5,5,5,5,5,5,5,5"/>
<line clip-path="url(#clipPath60)" fill="none" text-rendering="optimizeLegibility" x1="197" x2="181" y1="300" y2="298"/>
<line clip-path="url(#clipPath60)" fill="none" text-rendering="optimizeLegibility" x1="181" x2="192" y1="298" y2="309"/>
<line clip-path="url(#clipPath59)" fill="none" text-rendering="optimizeLegibility" x1="135" x2="135" y1="345" y2="320" stroke-dasharray="5,5,5,5,5,5,5,5,5,5"/>
<line clip-path="url(#clipPath68)" fill="none" text-rendering="optimizeLegibility" x1="140" x2="135" y1="335" y2="320"/>
<line clip-path="url(#clipPath68)" fill="none" text-rendering="optimizeLegibility" x1="135" x2="130" y1="320" y2="335"/>
</g>
</g>
</svg>
