<?xml version="1.0" encoding="UTF-8"?><svg xmlns="http://www.w3.org/2000/svg" xmlns:xlink="http://www.w3.org/1999/xlink" stroke-dasharray="none" shape-rendering="auto" font-family="'Dialog'" width="1451" text-rendering="auto" fill-opacity="1" contentScriptType="text/ecmascript" color-interpolation="auto" color-rendering="auto" preserveAspectRatio="xMidYMid meet" font-size="12" viewBox="0 0 1451 556" fill="black" stroke="black" image-rendering="auto" stroke-miterlimit="10" zoomAndPan="magnify" version="1.0" stroke-linecap="square" stroke-linejoin="miter" contentStyleType="text/css" font-style="normal" height="556" stroke-width="1" stroke-dashoffset="0" font-weight="normal" stroke-opacity="1">
<!--Generated by the Batik Graphics2D SVG Generator-->
<defs id="genericDefs"/>
<g>
<defs id="defs1">
<clipPath clipPathUnits="userSpaceOnUse" id="clipPath1">
<path d="M9 254 L172 254 L172 547 L9 547 L9 254 Z"/>
</clipPath>
<clipPath clipPathUnits="userSpaceOnUse" id="clipPath2">
<path d="M12 257 L172 257 L172 278 L12 278 L12 257 Z"/>
</clipPath>
<clipPath clipPathUnits="userSpaceOnUse" id="clipPath3">
<path d="M70 277 L116 277 L116 298 L70 298 L70 277 Z"/>
</clipPath>
<clipPath clipPathUnits="userSpaceOnUse" id="clipPath4">
<path d="M14 299 L157 299 L157 320 L14 320 L14 299 Z"/>
</clipPath>
<clipPath clipPathUnits="userSpaceOnUse" id="clipPath5">
<path d="M14 318 L161 318 L161 339 L14 339 L14 318 Z"/>
</clipPath>
<clipPath clipPathUnits="userSpaceOnUse" id="clipPath6">
<path d="M14 337 L159 337 L159 358 L14 358 L14 337 Z"/>
</clipPath>
<clipPath clipPathUnits="userSpaceOnUse" id="clipPath7">
<path d="M14 356 L165 356 L165 377 L14 377 L14 356 Z"/>
</clipPath>
<clipPath clipPathUnits="userSpaceOnUse" id="clipPath8">
<path d="M14 375 L167 375 L167 396 L14 396 L14 375 Z"/>
</clipPath>
<clipPath clipPathUnits="userSpaceOnUse" id="clipPath9">
<path d="M14 394 L147 394 L147 415 L14 415 L14 394 Z"/>
</clipPath>
<clipPath clipPathUnits="userSpaceOnUse" id="clipPath10">
<path d="M14 413 L158 413 L158 434 L14 434 L14 413 Z"/>
</clipPath>
<clipPath clipPathUnits="userSpaceOnUse" id="clipPath11">
<path d="M14 432 L160 432 L160 453 L14 453 L14 432 Z"/>
</clipPath>
<clipPath clipPathUnits="userSpaceOnUse" id="clipPath12">
<path d="M14 451 L160 451 L160 472 L14 472 L14 451 Z"/>
</clipPath>
<clipPath clipPathUnits="userSpaceOnUse" id="clipPath13">
<path d="M14 470 L155 470 L155 491 L14 491 L14 470 Z"/>
</clipPath>
<clipPath clipPathUnits="userSpaceOnUse" id="clipPath14">
<path d="M14 489 L140 489 L140 510 L14 510 L14 489 Z"/>
</clipPath>
<clipPath clipPathUnits="userSpaceOnUse" id="clipPath15">
<path d="M9 297 L172 297 L172 529 L9 529 L9 297 Z"/>
</clipPath>
<clipPath clipPathUnits="userSpaceOnUse" id="clipPath16">
<path d="M9 528 L172 528 L172 547 L9 547 L9 528 Z"/>
</clipPath>
<clipPath clipPathUnits="userSpaceOnUse" id="clipPath17">
<path d="M9 9 L135 9 L135 125 L9 125 L9 9 Z"/>
</clipPath>
<clipPath clipPathUnits="userSpaceOnUse" id="clipPath18">
<path d="M19 14 L85 14 L85 35 L19 35 L19 14 Z"/>
</clipPath>
<clipPath clipPathUnits="userSpaceOnUse" id="clipPath19">
<path d="M19 34 L65 34 L65 55 L19 55 L19 34 Z"/>
</clipPath>
<clipPath clipPathUnits="userSpaceOnUse" id="clipPath20">
<path d="M9 54 L135 54 L135 125 L9 125 L9 54 Z"/>
</clipPath>
<clipPath clipPathUnits="userSpaceOnUse" id="clipPath21">
<path d="M179 254 L307 254 L307 362 L179 362 L179 254 Z"/>
</clipPath>
<clipPath clipPathUnits="userSpaceOnUse" id="clipPath22">
<path d="M182 257 L307 257 L307 278 L182 278 L182 257 Z"/>
</clipPath>
<clipPath clipPathUnits="userSpaceOnUse" id="clipPath23">
<path d="M207 277 L284 277 L284 298 L207 298 L207 277 Z"/>
</clipPath>
<clipPath clipPathUnits="userSpaceOnUse" id="clipPath24">
<path d="M179 297 L307 297 L307 333 L179 333 L179 297 Z"/>
</clipPath>
<clipPath clipPathUnits="userSpaceOnUse" id="clipPath25">
<path d="M179 332 L307 332 L307 362 L179 362 L179 332 Z"/>
</clipPath>
<clipPath clipPathUnits="userSpaceOnUse" id="clipPath26">
<path d="M314 254 L457 254 L457 360 L314 360 L314 254 Z"/>
</clipPath>
<clipPath clipPathUnits="userSpaceOnUse" id="clipPath27">
<path d="M317 257 L457 257 L457 278 L317 278 L317 257 Z"/>
</clipPath>
<clipPath clipPathUnits="userSpaceOnUse" id="clipPath28">
<path d="M352 277 L425 277 L425 298 L352 298 L352 277 Z"/>
</clipPath>
<clipPath clipPathUnits="userSpaceOnUse" id="clipPath29">
<path d="M314 297 L457 297 L457 332 L314 332 L314 297 Z"/>
</clipPath>
<clipPath clipPathUnits="userSpaceOnUse" id="clipPath30">
<path d="M314 331 L457 331 L457 360 L314 360 L314 331 Z"/>
</clipPath>
<clipPath clipPathUnits="userSpaceOnUse" id="clipPath31">
<path d="M464 254 L612 254 L612 362 L464 362 L464 254 Z"/>
</clipPath>
<clipPath clipPathUnits="userSpaceOnUse" id="clipPath32">
<path d="M467 257 L612 257 L612 278 L467 278 L467 257 Z"/>
</clipPath>
<clipPath clipPathUnits="userSpaceOnUse" id="clipPath33">
<path d="M524 277 L557 277 L557 298 L524 298 L524 277 Z"/>
</clipPath>
<clipPath clipPathUnits="userSpaceOnUse" id="clipPath34">
<path d="M469 299 L591 299 L591 320 L469 320 L469 299 Z"/>
</clipPath>
<clipPath clipPathUnits="userSpaceOnUse" id="clipPath35">
<path d="M464 297 L612 297 L612 339 L464 339 L464 297 Z"/>
</clipPath>
<clipPath clipPathUnits="userSpaceOnUse" id="clipPath36">
<path d="M464 338 L612 338 L612 362 L464 362 L464 338 Z"/>
</clipPath>
<clipPath clipPathUnits="userSpaceOnUse" id="clipPath37">
<path d="M959 254 L1122 254 L1122 387 L959 387 L959 254 Z"/>
</clipPath>
<clipPath clipPathUnits="userSpaceOnUse" id="clipPath38">
<path d="M962 257 L1122 257 L1122 278 L962 278 L962 257 Z"/>
</clipPath>
<clipPath clipPathUnits="userSpaceOnUse" id="clipPath39">
<path d="M1008 277 L1079 277 L1079 298 L1008 298 L1008 277 Z"/>
</clipPath>
<clipPath clipPathUnits="userSpaceOnUse" id="clipPath40">
<path d="M964 299 L1078 299 L1078 320 L964 320 L964 299 Z"/>
</clipPath>
<clipPath clipPathUnits="userSpaceOnUse" id="clipPath41">
<path d="M964 318 L1068 318 L1068 339 L964 339 L964 318 Z"/>
</clipPath>
<clipPath clipPathUnits="userSpaceOnUse" id="clipPath42">
<path d="M964 337 L1088 337 L1088 358 L964 358 L964 337 Z"/>
</clipPath>
<clipPath clipPathUnits="userSpaceOnUse" id="clipPath43">
<path d="M959 297 L1122 297 L1122 369 L959 369 L959 297 Z"/>
</clipPath>
<clipPath clipPathUnits="userSpaceOnUse" id="clipPath44">
<path d="M959 368 L1122 368 L1122 387 L959 387 L959 368 Z"/>
</clipPath>
<clipPath clipPathUnits="userSpaceOnUse" id="clipPath45">
<path d="M1134 254 L1257 254 L1257 370 L1134 370 L1134 254 Z"/>
</clipPath>
<clipPath clipPathUnits="userSpaceOnUse" id="clipPath46">
<path d="M1137 257 L1257 257 L1257 278 L1137 278 L1137 257 Z"/>
</clipPath>
<clipPath clipPathUnits="userSpaceOnUse" id="clipPath47">
<path d="M1175 277 L1222 277 L1222 298 L1175 298 L1175 277 Z"/>
</clipPath>
<clipPath clipPathUnits="userSpaceOnUse" id="clipPath48">
<path d="M1139 299 L1252 299 L1252 320 L1139 320 L1139 299 Z"/>
</clipPath>
<clipPath clipPathUnits="userSpaceOnUse" id="clipPath49">
<path d="M1134 297 L1257 297 L1257 344 L1134 344 L1134 297 Z"/>
</clipPath>
<clipPath clipPathUnits="userSpaceOnUse" id="clipPath50">
<path d="M1134 343 L1257 343 L1257 370 L1134 370 L1134 343 Z"/>
</clipPath>
<clipPath clipPathUnits="userSpaceOnUse" id="clipPath51">
<path d="M1289 254 L1442 254 L1442 402 L1289 402 L1289 254 Z"/>
</clipPath>
<clipPath clipPathUnits="userSpaceOnUse" id="clipPath52">
<path d="M1292 257 L1442 257 L1442 278 L1292 278 L1292 257 Z"/>
</clipPath>
<clipPath clipPathUnits="userSpaceOnUse" id="clipPath53">
<path d="M1329 277 L1408 277 L1408 298 L1329 298 L1329 277 Z"/>
</clipPath>
<clipPath clipPathUnits="userSpaceOnUse" id="clipPath54">
<path d="M1294 299 L1435 299 L1435 320 L1294 320 L1294 299 Z"/>
</clipPath>
<clipPath clipPathUnits="userSpaceOnUse" id="clipPath55">
<path d="M1289 297 L1442 297 L1442 363 L1289 363 L1289 297 Z"/>
</clipPath>
<clipPath clipPathUnits="userSpaceOnUse" id="clipPath56">
<path d="M1289 362 L1442 362 L1442 402 L1289 402 L1289 362 Z"/>
</clipPath>
<clipPath clipPathUnits="userSpaceOnUse" id="clipPath57">
<path d="M9 164 L457 164 L457 216 L9 216 L9 164 Z"/>
</clipPath>
<clipPath clipPathUnits="userSpaceOnUse" id="clipPath58">
<path d="M12 170 L457 170 L457 191 L12 191 L12 170 Z"/>
</clipPath>
<clipPath clipPathUnits="userSpaceOnUse" id="clipPath59">
<path d="M205 190 L266 190 L266 211 L205 211 L205 190 Z"/>
</clipPath>
<clipPath clipPathUnits="userSpaceOnUse" id="clipPath60">
<path d="M789 164 L942 164 L942 216 L789 216 L789 164 Z"/>
</clipPath>
<clipPath clipPathUnits="userSpaceOnUse" id="clipPath61">
<path d="M792 170 L942 170 L942 191 L792 191 L792 170 Z"/>
</clipPath>
<clipPath clipPathUnits="userSpaceOnUse" id="clipPath62">
<path d="M849 190 L887 190 L887 211 L849 211 L849 190 Z"/>
</clipPath>
<clipPath clipPathUnits="userSpaceOnUse" id="clipPath63">
<path d="M959 164 L1122 164 L1122 216 L959 216 L959 164 Z"/>
</clipPath>
<clipPath clipPathUnits="userSpaceOnUse" id="clipPath64">
<path d="M962 170 L1122 170 L1122 191 L962 191 L962 170 Z"/>
</clipPath>
<clipPath clipPathUnits="userSpaceOnUse" id="clipPath65">
<path d="M1006 190 L1080 190 L1080 211 L1006 211 L1006 190 Z"/>
</clipPath>
<clipPath clipPathUnits="userSpaceOnUse" id="clipPath66">
<path d="M1134 164 L1277 164 L1277 216 L1134 216 L1134 164 Z"/>
</clipPath>
<clipPath clipPathUnits="userSpaceOnUse" id="clipPath67">
<path d="M1137 170 L1277 170 L1277 191 L1137 191 L1137 170 Z"/>
</clipPath>
<clipPath clipPathUnits="userSpaceOnUse" id="clipPath68">
<path d="M1155 190 L1261 190 L1261 211 L1155 211 L1155 190 Z"/>
</clipPath>
<clipPath clipPathUnits="userSpaceOnUse" id="clipPath69">
<path d="M1289 164 L1437 164 L1437 216 L1289 216 L1289 164 Z"/>
</clipPath>
<clipPath clipPathUnits="userSpaceOnUse" id="clipPath70">
<path d="M1292 170 L1437 170 L1437 191 L1292 191 L1292 170 Z"/>
</clipPath>
<clipPath clipPathUnits="userSpaceOnUse" id="clipPath71">
<path d="M1333 190 L1398 190 L1398 211 L1333 211 L1333 190 Z"/>
</clipPath>
<clipPath clipPathUnits="userSpaceOnUse" id="clipPath72">
<path d="M464 164 L612 164 L612 216 L464 216 L464 164 Z"/>
</clipPath>
<clipPath clipPathUnits="userSpaceOnUse" id="clipPath73">
<path d="M467 171 L612 171 L612 191 L467 191 L467 171 Z"/>
</clipPath>
<clipPath clipPathUnits="userSpaceOnUse" id="clipPath74">
<path d="M507 190 L574 190 L574 210 L507 210 L507 190 Z"/>
</clipPath>
<clipPath clipPathUnits="userSpaceOnUse" id="clipPath75">
<path d="M774 254 L927 254 L927 372 L774 372 L774 254 Z"/>
</clipPath>
<clipPath clipPathUnits="userSpaceOnUse" id="clipPath76">
<path d="M777 257 L927 257 L927 277 L777 277 L777 257 Z"/>
</clipPath>
<clipPath clipPathUnits="userSpaceOnUse" id="clipPath77">
<path d="M823 276 L884 276 L884 296 L823 296 L823 276 Z"/>
</clipPath>
<clipPath clipPathUnits="userSpaceOnUse" id="clipPath78">
<path d="M779 297 L866 297 L866 315 L779 315 L779 297 Z"/>
</clipPath>
<clipPath clipPathUnits="userSpaceOnUse" id="clipPath79">
<path d="M779 313 L883 313 L883 331 L779 331 L779 313 Z"/>
</clipPath>
<clipPath clipPathUnits="userSpaceOnUse" id="clipPath80">
<path d="M774 295 L927 295 L927 350 L774 350 L774 295 Z"/>
</clipPath>
<clipPath clipPathUnits="userSpaceOnUse" id="clipPath81">
<path d="M774 349 L927 349 L927 372 L774 372 L774 349 Z"/>
</clipPath>
<clipPath clipPathUnits="userSpaceOnUse" id="clipPath82">
<path d="M654 254 L756 254 L756 356 L654 356 L654 254 Z"/>
</clipPath>
<clipPath clipPathUnits="userSpaceOnUse" id="clipPath83">
<path d="M657 257 L756 257 L756 276 L657 276 L657 257 Z"/>
</clipPath>
<clipPath clipPathUnits="userSpaceOnUse" id="clipPath84">
<path d="M696 275 L719 275 L719 294 L696 294 L696 275 Z"/>
</clipPath>
<clipPath clipPathUnits="userSpaceOnUse" id="clipPath85">
<path d="M654 293 L756 293 L756 356 L654 356 L654 293 Z"/>
</clipPath>
<clipPath clipPathUnits="userSpaceOnUse" id="clipPath86">
<path d="M-1 -1 L1452 -1 L1452 557 L-1 557 L-1 -1 Z"/>
</clipPath>
<clipPath clipPathUnits="userSpaceOnUse" id="clipPath87">
<path d="M193 214 L210 214 L210 231 L193 231 L193 214 Z"/>
</clipPath>
<clipPath clipPathUnits="userSpaceOnUse" id="clipPath88">
<path d="M232 214 L245 214 L245 232 L232 232 L232 214 Z"/>
</clipPath>
<clipPath clipPathUnits="userSpaceOnUse" id="clipPath89">
<path d="M264 214 L282 214 L282 230 L264 230 L264 214 Z"/>
</clipPath>
<clipPath clipPathUnits="userSpaceOnUse" id="clipPath90">
<path d="M773 203 L792 203 L792 216 L773 216 L773 203 Z"/>
</clipPath>
<clipPath clipPathUnits="userSpaceOnUse" id="clipPath91">
<path d="M1194 214 L1207 214 L1207 232 L1194 232 L1194 214 Z"/>
</clipPath>
<clipPath clipPathUnits="userSpaceOnUse" id="clipPath92">
<path d="M1357 214 L1370 214 L1370 232 L1357 232 L1357 214 Z"/>
</clipPath>
<clipPath clipPathUnits="userSpaceOnUse" id="clipPath93">
<path d="M1034 214 L1047 214 L1047 232 L1034 232 L1034 214 Z"/>
</clipPath>
<clipPath clipPathUnits="userSpaceOnUse" id="clipPath94">
<path d="M898 214 L916 214 L916 230 L898 230 L898 214 Z"/>
</clipPath>
<clipPath clipPathUnits="userSpaceOnUse" id="clipPath95">
<path d="M532 214 L545 214 L545 232 L532 232 L532 214 Z"/>
</clipPath>
<clipPath clipPathUnits="userSpaceOnUse" id="clipPath96">
<path d="M859 214 L872 214 L872 232 L859 232 L859 214 Z"/>
</clipPath>
<clipPath clipPathUnits="userSpaceOnUse" id="clipPath97">
<path d="M978 214 L996 214 L996 229 L978 229 L978 214 Z"/>
</clipPath>
<clipPath clipPathUnits="userSpaceOnUse" id="clipPath98">
<path d="M802 214 L821 214 L821 229 L802 229 L802 214 Z"/>
</clipPath>
</defs>
<g font-size="15" fill="white" font-family="'Ubuntu'" stroke-linejoin="round" stroke="white" stroke-width="0" stroke-miterlimit="0">
<rect x="11" y="256" clip-path="url(#clipPath1)" width="159" height="289" stroke="none"/>
<rect x="10" y="255" clip-path="url(#clipPath1)" width="161" height="291" stroke="none"/>
<text font-size="16" x="45" y="273" clip-path="url(#clipPath2)" fill="black" stroke="none" xml:space="preserve">«Stereotype»</text>
<text font-size="16" x="71" y="293" clip-path="url(#clipPath3)" fill="black" stroke="none" xml:space="preserve">pyegg</text>
<text font-size="16" x="15" y="315" clip-path="url(#clipPath4)" fill="black" stroke="none" xml:space="preserve"> + base_Package : ...</text>
<text font-size="16" x="15" y="334" clip-path="url(#clipPath5)" fill="black" stroke="none" xml:space="preserve"> + description : Stri...</text>
<text font-size="16" x="15" y="353" clip-path="url(#clipPath6)" fill="black" stroke="none" xml:space="preserve"> + keywords : Strin...</text>
<text font-size="16" x="15" y="372" clip-path="url(#clipPath7)" fill="black" stroke="none" xml:space="preserve"> + author : String [0...</text>
<text font-size="16" x="15" y="391" clip-path="url(#clipPath8)" fill="black" stroke="none" xml:space="preserve"> + email : String [0..1]</text>
<text font-size="16" x="15" y="410" clip-path="url(#clipPath9)" fill="black" stroke="none" xml:space="preserve"> + url : String [0..1]</text>
<text font-size="16" x="15" y="429" clip-path="url(#clipPath10)" fill="black" stroke="none" xml:space="preserve"> + license : String [...</text>
<text font-size="16" x="15" y="448" clip-path="url(#clipPath11)" fill="black" stroke="none" xml:space="preserve"> + zipsafe : String [...</text>
<text font-size="16" x="15" y="467" clip-path="url(#clipPath12)" fill="black" stroke="none" xml:space="preserve"> + classifiers : Strin...</text>
<text font-size="16" x="15" y="486" clip-path="url(#clipPath13)" fill="black" stroke="none" xml:space="preserve"> + copyright : String</text>
<text font-size="16" x="15" y="505" clip-path="url(#clipPath14)" fill="black" stroke="none" xml:space="preserve"> + version : String</text>
</g>
<g stroke-width="1.1" font-size="15" font-family="'Ubuntu'" stroke-linecap="butt">
<line clip-path="url(#clipPath15)" fill="none" x1="10" x2="171" y1="298" y2="298"/>
<line clip-path="url(#clipPath16)" fill="none" x1="10" x2="171" y1="529" y2="529"/>
<rect x="10" y="255" clip-path="url(#clipPath1)" fill="none" width="160" height="290"/>
<rect x="10" y="10" clip-path="url(#clipPath17)" fill="white" width="84" height="45" stroke="none"/>
<rect x="10" y="55" clip-path="url(#clipPath17)" fill="white" width="124" height="69" stroke="none"/>
<rect x="10" y="10" clip-path="url(#clipPath17)" fill="none" width="84" height="45"/>
<text font-size="16" x="20" y="30" clip-path="url(#clipPath18)" stroke="none" xml:space="preserve">«Profile»</text>
<text font-size="16" x="20" y="50" clip-path="url(#clipPath19)" stroke="none" xml:space="preserve">pyegg</text>
<rect x="10" y="55" clip-path="url(#clipPath20)" fill="none" width="123" height="68"/>
<line clip-path="url(#clipPath20)" fill="none" x1="10" x2="134" y1="55" y2="55"/>
<rect x="10" y="10" clip-path="url(#clipPath17)" fill="none" width="84" height="45" stroke-width="0.1"/>
<rect x="181" y="256" clip-path="url(#clipPath21)" fill="white" width="124" height="104" stroke="none" stroke-width="0.1"/>
<rect x="180" y="255" clip-path="url(#clipPath21)" fill="white" width="126" height="106" stroke="none" stroke-width="0.1"/>
<text font-size="16" x="198" y="273" clip-path="url(#clipPath22)" stroke="none" stroke-width="0.1" xml:space="preserve">«Stereotype»</text>
<text font-size="16" x="208" y="293" clip-path="url(#clipPath23)" stroke="none" stroke-width="0.1" xml:space="preserve">pypackage</text>
<line clip-path="url(#clipPath24)" fill="none" x1="180" x2="306" y1="298" y2="298"/>
<line clip-path="url(#clipPath25)" fill="none" x1="180" x2="306" y1="333" y2="333"/>
<rect x="180" y="255" clip-path="url(#clipPath21)" fill="none" width="125" height="105"/>
<rect x="316" y="256" clip-path="url(#clipPath26)" fill="white" width="139" height="102" stroke="none"/>
<rect x="315" y="255" clip-path="url(#clipPath26)" fill="white" width="141" height="104" stroke="none"/>
<text font-size="16" x="340" y="273" clip-path="url(#clipPath27)" stroke="none" xml:space="preserve">«Stereotype»</text>
<text font-size="16" x="353" y="293" clip-path="url(#clipPath28)" stroke="none" xml:space="preserve">pymodule</text>
<line clip-path="url(#clipPath29)" fill="none" x1="315" x2="456" y1="298" y2="298"/>
<line clip-path="url(#clipPath30)" fill="none" x1="315" x2="456" y1="332" y2="332"/>
<rect x="315" y="255" clip-path="url(#clipPath26)" fill="none" width="140" height="103"/>
<rect x="466" y="256" clip-path="url(#clipPath31)" fill="white" width="144" height="104" stroke="none"/>
<rect x="465" y="255" clip-path="url(#clipPath31)" fill="white" width="146" height="106" stroke="none"/>
<text font-size="16" x="493" y="273" clip-path="url(#clipPath32)" stroke="none" xml:space="preserve">«Stereotype»</text>
<text font-size="16" x="525" y="293" clip-path="url(#clipPath33)" stroke="none" xml:space="preserve">stub</text>
<text font-size="16" x="470" y="315" clip-path="url(#clipPath34)" stroke="none" xml:space="preserve"> + import : String</text>
<line clip-path="url(#clipPath35)" fill="none" x1="465" x2="611" y1="298" y2="298"/>
<line clip-path="url(#clipPath36)" fill="none" x1="465" x2="611" y1="339" y2="339"/>
<rect x="465" y="255" clip-path="url(#clipPath31)" fill="none" width="145" height="105"/>
<rect x="961" y="256" clip-path="url(#clipPath37)" fill="white" width="159" height="129" stroke="none"/>
<rect x="960" y="255" clip-path="url(#clipPath37)" fill="white" width="161" height="131" stroke="none"/>
<text font-size="16" x="995" y="273" clip-path="url(#clipPath38)" stroke="none" xml:space="preserve">«Stereotype»</text>
<text font-size="16" x="1009" y="293" clip-path="url(#clipPath39)" stroke="none" xml:space="preserve">decorator</text>
<text font-size="16" x="965" y="315" clip-path="url(#clipPath40)" stroke="none" xml:space="preserve"> + name : String</text>
<text font-size="16" x="965" y="334" clip-path="url(#clipPath41)" stroke="none" xml:space="preserve"> + args : String</text>
<text font-size="16" x="965" y="353" clip-path="url(#clipPath42)" stroke="none" xml:space="preserve"> + kwargs : String</text>
<line clip-path="url(#clipPath43)" fill="none" x1="960" x2="1121" y1="298" y2="298"/>
<line clip-path="url(#clipPath44)" fill="none" x1="960" x2="1121" y1="369" y2="369"/>
<rect x="960" y="255" clip-path="url(#clipPath37)" fill="none" width="160" height="130"/>
<rect x="1136" y="256" clip-path="url(#clipPath45)" fill="white" width="119" height="112" stroke="none"/>
<rect x="1135" y="255" clip-path="url(#clipPath45)" fill="white" width="121" height="114" stroke="none"/>
<text font-size="16" x="1150" y="273" clip-path="url(#clipPath46)" stroke="none" xml:space="preserve">«Stereotype»</text>
<text font-size="16" x="1176" y="293" clip-path="url(#clipPath47)" stroke="none" xml:space="preserve">derive</text>
<text font-size="16" x="1140" y="315" clip-path="url(#clipPath48)" stroke="none" xml:space="preserve"> + order : String</text>
<line clip-path="url(#clipPath49)" fill="none" x1="1135" x2="1256" y1="298" y2="298"/>
<line clip-path="url(#clipPath50)" fill="none" x1="1135" x2="1256" y1="344" y2="344"/>
<rect x="1135" y="255" clip-path="url(#clipPath45)" fill="none" width="120" height="113"/>
<rect x="1291" y="256" clip-path="url(#clipPath51)" fill="white" width="149" height="144" stroke="none"/>
<rect x="1290" y="255" clip-path="url(#clipPath51)" fill="white" width="151" height="146" stroke="none"/>
<text font-size="16" x="1320" y="273" clip-path="url(#clipPath52)" stroke="none" xml:space="preserve">«Stereotype»</text>
<text font-size="16" x="1330" y="293" clip-path="url(#clipPath53)" stroke="none" xml:space="preserve">expression</text>
<text font-size="16" x="1295" y="315" clip-path="url(#clipPath54)" stroke="none" xml:space="preserve"> + expression : Str...</text>
<line clip-path="url(#clipPath55)" fill="none" x1="1290" x2="1441" y1="298" y2="298"/>
<line clip-path="url(#clipPath56)" fill="none" x1="1290" x2="1441" y1="363" y2="363"/>
<rect x="1290" y="255" clip-path="url(#clipPath51)" fill="none" width="150" height="145"/>
<rect x="11" y="166" clip-path="url(#clipPath57)" fill="white" width="444" height="48" stroke="none"/>
<rect x="10" y="165" clip-path="url(#clipPath57)" fill="white" width="446" height="50" stroke="none"/>
<text font-size="16" x="193" y="186" clip-path="url(#clipPath58)" stroke="none" xml:space="preserve">«metaclass»</text>
<text font-size="16" x="206" y="206" clip-path="url(#clipPath59)" stroke="none" xml:space="preserve">Package</text>
<rect x="10" y="165" clip-path="url(#clipPath57)" fill="none" width="445" height="49"/>
<rect x="791" y="166" clip-path="url(#clipPath60)" fill="white" width="149" height="48" stroke="none"/>
<rect x="790" y="165" clip-path="url(#clipPath60)" fill="white" width="151" height="50" stroke="none"/>
<text font-size="16" x="825" y="186" clip-path="url(#clipPath61)" stroke="none" xml:space="preserve">«metaclass»</text>
<text font-size="16" x="850" y="206" clip-path="url(#clipPath62)" stroke="none" xml:space="preserve">Class</text>
<rect x="790" y="165" clip-path="url(#clipPath60)" fill="none" width="150" height="49"/>
<rect x="961" y="166" clip-path="url(#clipPath63)" fill="white" width="159" height="48" stroke="none"/>
<rect x="960" y="165" clip-path="url(#clipPath63)" fill="white" width="161" height="50" stroke="none"/>
<text font-size="16" x="1000" y="186" clip-path="url(#clipPath64)" stroke="none" xml:space="preserve">«metaclass»</text>
<text font-size="16" x="1007" y="206" clip-path="url(#clipPath65)" stroke="none" xml:space="preserve">Operation</text>
<rect x="960" y="165" clip-path="url(#clipPath63)" fill="none" width="160" height="49"/>
<rect x="1136" y="166" clip-path="url(#clipPath66)" fill="white" width="139" height="48" stroke="none"/>
<rect x="1135" y="165" clip-path="url(#clipPath66)" fill="white" width="141" height="50" stroke="none"/>
<text font-size="16" x="1165" y="186" clip-path="url(#clipPath67)" stroke="none" xml:space="preserve">«metaclass»</text>
<text font-size="16" x="1156" y="206" clip-path="url(#clipPath68)" stroke="none" xml:space="preserve">Generalization</text>
<rect x="1135" y="165" clip-path="url(#clipPath66)" fill="none" width="140" height="49"/>
<rect x="1291" y="166" clip-path="url(#clipPath69)" fill="white" width="144" height="48" stroke="none"/>
<rect x="1290" y="165" clip-path="url(#clipPath69)" fill="white" width="146" height="50" stroke="none"/>
<text font-size="16" x="1323" y="186" clip-path="url(#clipPath70)" stroke="none" xml:space="preserve">«metaclass»</text>
<text font-size="16" x="1334" y="206" clip-path="url(#clipPath71)" stroke="none" xml:space="preserve">Property</text>
<rect x="1290" y="165" clip-path="url(#clipPath69)" fill="none" width="145" height="49"/>
<rect x="466" y="166" clip-path="url(#clipPath72)" fill="white" width="144" height="48" stroke="none"/>
<rect x="465" y="165" clip-path="url(#clipPath72)" fill="white" width="146" height="50" stroke="none"/>
<text x="494" y="186" clip-path="url(#clipPath73)" font-family="'Dialog'" stroke="none" xml:space="preserve">«metaclass»</text>
<text x="508" y="205" clip-path="url(#clipPath74)" font-family="'Dialog'" stroke="none" xml:space="preserve">Interface</text>
<rect x="465" y="165" clip-path="url(#clipPath72)" fill="none" width="145" height="49"/>
<rect x="776" y="256" clip-path="url(#clipPath75)" fill="white" width="149" height="114" stroke="none"/>
<rect x="775" y="255" clip-path="url(#clipPath75)" fill="white" width="151" height="116" stroke="none"/>
<text x="804" y="272" clip-path="url(#clipPath76)" font-family="'Dialog'" stroke="none" xml:space="preserve">«Stereotype»</text>
<text x="824" y="291" clip-path="url(#clipPath77)" font-family="'Dialog'" stroke="none" xml:space="preserve">function</text>
<text font-size="13" x="780" y="311" clip-path="url(#clipPath78)" stroke="none" xml:space="preserve"> + args : String</text>
<text font-size="13" x="780" y="327" clip-path="url(#clipPath79)" stroke="none" xml:space="preserve"> + kwargs : String</text>
<line clip-path="url(#clipPath80)" fill="none" x1="775" x2="926" y1="296" y2="296"/>
<line clip-path="url(#clipPath81)" fill="none" x1="775" x2="926" y1="350" y2="350"/>
<rect x="775" y="255" clip-path="url(#clipPath75)" fill="none" width="150" height="115"/>
<rect x="656" y="256" clip-path="url(#clipPath82)" fill="white" width="98" height="98" stroke="none"/>
<rect x="655" y="255" clip-path="url(#clipPath82)" fill="white" width="100" height="100" stroke="none"/>
<text xml:space="preserve" x="663" y="272" clip-path="url(#clipPath83)" stroke="none">«Stereotype»</text>
<text xml:space="preserve" x="697" y="290" clip-path="url(#clipPath84)" stroke="none">api</text>
<line clip-path="url(#clipPath85)" fill="none" x1="655" x2="755" y1="294" y2="294"/>
<rect x="655" y="255" clip-path="url(#clipPath82)" fill="none" width="99" height="99"/>
<line clip-path="url(#clipPath86)" fill="none" text-rendering="optimizeLegibility" x1="169" x2="208" y1="255" y2="215" stroke-width="2.1"/>
<polygon text-rendering="optimizeLegibility" stroke-width="2.1" clip-path="url(#clipPath87)" points=" 208 215 201 229 194 222" stroke="none"/>
<polygon fill="none" text-rendering="optimizeLegibility" clip-path="url(#clipPath87)" points=" 208 215 201 229 194 222"/>
<line clip-path="url(#clipPath86)" fill="none" text-rendering="optimizeLegibility" x1="238" x2="238" y1="255" y2="215" stroke-width="2.1"/>
<polygon text-rendering="optimizeLegibility" stroke-width="2.1" clip-path="url(#clipPath88)" points=" 238 215 243 230 233 230" stroke="none"/>
<polygon fill="none" text-rendering="optimizeLegibility" clip-path="url(#clipPath88)" points=" 238 215 243 230 233 230"/>
<line clip-path="url(#clipPath86)" fill="none" text-rendering="optimizeLegibility" x1="317" x2="265" y1="255" y2="215" stroke-width="2.1"/>
<polygon text-rendering="optimizeLegibility" stroke-width="2.1" clip-path="url(#clipPath89)" points=" 265 215 280 220 274 228" stroke="none"/>
<polygon fill="none" text-rendering="optimizeLegibility" clip-path="url(#clipPath89)" points=" 265 215 280 220 274 228"/>
<line clip-path="url(#clipPath86)" fill="none" text-rendering="optimizeLegibility" x1="611" x2="655" y1="262" y2="235" stroke-width="2.1"/>
<line clip-path="url(#clipPath86)" fill="none" text-rendering="optimizeLegibility" x1="655" x2="790" y1="235" y2="206" stroke-width="2.1"/>
<polygon text-rendering="optimizeLegibility" stroke-width="2.1" clip-path="url(#clipPath90)" points=" 790 206 776 214 774 204" stroke="none"/>
<polygon fill="none" text-rendering="optimizeLegibility" clip-path="url(#clipPath90)" points=" 790 206 776 214 774 204"/>
<line clip-path="url(#clipPath86)" fill="none" text-rendering="optimizeLegibility" x1="1200" x2="1200" y1="255" y2="215" stroke-width="2.1"/>
<polygon text-rendering="optimizeLegibility" stroke-width="2.1" clip-path="url(#clipPath91)" points=" 1200 215 1205 230 1195 230" stroke="none"/>
<polygon fill="none" text-rendering="optimizeLegibility" clip-path="url(#clipPath91)" points=" 1200 215 1205 230 1195 230"/>
<line clip-path="url(#clipPath86)" fill="none" text-rendering="optimizeLegibility" x1="1363" x2="1363" y1="255" y2="215" stroke-width="2.1"/>
<polygon text-rendering="optimizeLegibility" stroke-width="2.1" clip-path="url(#clipPath92)" points=" 1363 215 1368 230 1358 230" stroke="none"/>
<polygon fill="none" text-rendering="optimizeLegibility" clip-path="url(#clipPath92)" points=" 1363 215 1368 230 1358 230"/>
<line clip-path="url(#clipPath86)" fill="none" text-rendering="optimizeLegibility" x1="1040" x2="1040" y1="255" y2="215" stroke-width="2.1"/>
<polygon text-rendering="optimizeLegibility" stroke-width="2.1" clip-path="url(#clipPath93)" points=" 1040 215 1045 230 1035 230" stroke="none"/>
<polygon fill="none" text-rendering="optimizeLegibility" clip-path="url(#clipPath93)" points=" 1040 215 1045 230 1035 230"/>
<line clip-path="url(#clipPath86)" fill="none" text-rendering="optimizeLegibility" x1="960" x2="899" y1="260" y2="215" stroke-width="2.1"/>
<polygon text-rendering="optimizeLegibility" stroke-width="2.1" clip-path="url(#clipPath94)" points=" 899 215 914 220 908 228" stroke="none"/>
<polygon fill="none" text-rendering="optimizeLegibility" clip-path="url(#clipPath94)" points=" 899 215 914 220 908 228"/>
<line clip-path="url(#clipPath86)" fill="none" text-rendering="optimizeLegibility" x1="538" x2="538" y1="255" y2="215" stroke-width="2.1"/>
<polygon text-rendering="optimizeLegibility" stroke-width="2.1" clip-path="url(#clipPath95)" points=" 538 215 543 230 533 230" stroke="none"/>
<polygon fill="none" text-rendering="optimizeLegibility" clip-path="url(#clipPath95)" points=" 538 215 543 230 533 230"/>
<line clip-path="url(#clipPath86)" fill="none" text-rendering="optimizeLegibility" x1="865" x2="865" y1="255" y2="215" stroke-width="2.1"/>
<polygon text-rendering="optimizeLegibility" stroke-width="2.1" clip-path="url(#clipPath96)" points=" 865 215 870 230 860 230" stroke="none"/>
<polygon fill="none" text-rendering="optimizeLegibility" clip-path="url(#clipPath96)" points=" 865 215 870 230 860 230"/>
<line clip-path="url(#clipPath86)" fill="none" text-rendering="optimizeLegibility" x1="926" x2="994" y1="258" y2="215" stroke-width="2.1"/>
<polygon text-rendering="optimizeLegibility" stroke-width="2.1" clip-path="url(#clipPath97)" points=" 994 215 984 227 979 219" stroke="none"/>
<polygon fill="none" text-rendering="optimizeLegibility" clip-path="url(#clipPath97)" points=" 994 215 984 227 979 219"/>
<line clip-path="url(#clipPath86)" fill="none" text-rendering="optimizeLegibility" x1="746" x2="819" y1="255" y2="215" stroke-width="2.1"/>
<polygon text-rendering="optimizeLegibility" stroke-width="2.1" clip-path="url(#clipPath98)" points=" 819 215 808 227 803 218" stroke="none"/>
<polygon fill="none" text-rendering="optimizeLegibility" clip-path="url(#clipPath98)" points=" 819 215 808 227 803 218"/>
</g>
</g>
</svg>
