<?xml version="1.0" encoding="UTF-8"?>
<svg xmlns="http://www.w3.org/2000/svg" xmlns:xlink="http://www.w3.org/1999/xlink" stroke-dasharray="none" shape-rendering="auto" font-family="'Dialog'" width="902" text-rendering="auto" fill-opacity="1" contentScriptType="text/ecmascript" color-interpolation="auto" color-rendering="auto" preserveAspectRatio="xMidYMid meet" font-size="12" viewBox="0 0 902 584" fill="black" stroke="black" image-rendering="auto" stroke-miterlimit="10" zoomAndPan="magnify" version="1.0" stroke-linecap="square" stroke-linejoin="miter" contentStyleType="text/css" font-style="normal" height="584" stroke-width="1" stroke-dashoffset="0" font-weight="normal" stroke-opacity="1">
<!--Generated by the Batik Graphics2D SVG Generator-->
<defs id="genericDefs"/>
<g>
<defs id="defs1">
<clipPath clipPathUnits="userSpaceOnUse" id="clipPath1">
<path d="M9 9 L893 9 L893 575 L9 575 L9 9 Z"/>
</clipPath>
<clipPath clipPathUnits="userSpaceOnUse" id="clipPath2">
<path d="M19 14 L219 14 L219 28 L19 28 L19 14 Z"/>
</clipPath>
<clipPath clipPathUnits="userSpaceOnUse" id="clipPath3">
<path d="M19 27 L101 27 L101 41 L19 41 L19 27 Z"/>
</clipPath>
<clipPath clipPathUnits="userSpaceOnUse" id="clipPath4">
<path d="M9 40 L893 40 L893 575 L9 575 L9 40 Z"/>
</clipPath>
<clipPath clipPathUnits="userSpaceOnUse" id="clipPath5">
<path d="M34 72 L848 72 L848 532 L34 532 L34 72 Z"/>
</clipPath>
<clipPath clipPathUnits="userSpaceOnUse" id="clipPath6">
<path d="M44 77 L109 77 L109 91 L44 91 L44 77 Z"/>
</clipPath>
<clipPath clipPathUnits="userSpaceOnUse" id="clipPath7">
<path d="M44 90 L83 90 L83 104 L44 104 L44 90 Z"/>
</clipPath>
<clipPath clipPathUnits="userSpaceOnUse" id="clipPath8">
<path d="M34 103 L848 103 L848 532 L34 532 L34 103 Z"/>
</clipPath>
<clipPath clipPathUnits="userSpaceOnUse" id="clipPath9">
<path d="M235 346 L483 346 L483 489 L235 489 L235 346 Z"/>
</clipPath>
<clipPath clipPathUnits="userSpaceOnUse" id="clipPath10">
<path d="M238 349 L483 349 L483 363 L238 363 L238 349 Z"/>
</clipPath>
<clipPath clipPathUnits="userSpaceOnUse" id="clipPath11">
<path d="M344 362 L379 362 L379 376 L344 376 L344 362 Z"/>
</clipPath>
<clipPath clipPathUnits="userSpaceOnUse" id="clipPath12">
<path d="M240 377 L371 377 L371 391 L240 391 L240 377 Z"/>
</clipPath>
<clipPath clipPathUnits="userSpaceOnUse" id="clipPath13">
<path d="M240 389 L388 389 L388 403 L240 403 L240 389 Z"/>
</clipPath>
<clipPath clipPathUnits="userSpaceOnUse" id="clipPath14">
<path d="M240 401 L335 401 L335 415 L240 415 L240 401 Z"/>
</clipPath>
<clipPath clipPathUnits="userSpaceOnUse" id="clipPath15">
<path d="M235 375 L483 375 L483 438 L235 438 L235 375 Z"/>
</clipPath>
<clipPath clipPathUnits="userSpaceOnUse" id="clipPath16">
<path d="M235 437 L483 437 L483 466 L235 466 L235 437 Z"/>
</clipPath>
<clipPath clipPathUnits="userSpaceOnUse" id="clipPath17">
<path d="M235 465 L483 465 L483 489 L235 489 L235 465 Z"/>
</clipPath>
<clipPath clipPathUnits="userSpaceOnUse" id="clipPath18">
<path d="M55 256 L193 256 L193 409 L55 409 L55 256 Z"/>
</clipPath>
<clipPath clipPathUnits="userSpaceOnUse" id="clipPath19">
<path d="M58 259 L193 259 L193 274 L58 274 L58 259 Z"/>
</clipPath>
<clipPath clipPathUnits="userSpaceOnUse" id="clipPath20">
<path d="M104 273 L150 273 L150 288 L104 288 L104 273 Z"/>
</clipPath>
<clipPath clipPathUnits="userSpaceOnUse" id="clipPath21">
<path d="M60 289 L187 289 L187 303 L60 303 L60 289 Z"/>
</clipPath>
<clipPath clipPathUnits="userSpaceOnUse" id="clipPath22">
<path d="M60 301 L179 301 L179 315 L60 315 L60 301 Z"/>
</clipPath>
<clipPath clipPathUnits="userSpaceOnUse" id="clipPath23">
<path d="M60 313 L183 313 L183 327 L60 327 L60 313 Z"/>
</clipPath>
<clipPath clipPathUnits="userSpaceOnUse" id="clipPath24">
<path d="M55 287 L193 287 L193 354 L55 354 L55 287 Z"/>
</clipPath>
<clipPath clipPathUnits="userSpaceOnUse" id="clipPath25">
<path d="M55 353 L193 353 L193 384 L55 384 L55 353 Z"/>
</clipPath>
<clipPath clipPathUnits="userSpaceOnUse" id="clipPath26">
<path d="M55 383 L193 383 L193 409 L55 409 L55 383 Z"/>
</clipPath>
<clipPath clipPathUnits="userSpaceOnUse" id="clipPath27">
<path d="M235 126 L488 126 L488 269 L235 269 L235 126 Z"/>
</clipPath>
<clipPath clipPathUnits="userSpaceOnUse" id="clipPath28">
<path d="M238 129 L488 129 L488 144 L238 144 L238 129 Z"/>
</clipPath>
<clipPath clipPathUnits="userSpaceOnUse" id="clipPath29">
<path d="M338 143 L391 143 L391 158 L338 158 L338 143 Z"/>
</clipPath>
<clipPath clipPathUnits="userSpaceOnUse" id="clipPath30">
<path d="M240 159 L371 159 L371 173 L240 173 L240 159 Z"/>
</clipPath>
<clipPath clipPathUnits="userSpaceOnUse" id="clipPath31">
<path d="M240 171 L403 171 L403 185 L240 185 L240 171 Z"/>
</clipPath>
<clipPath clipPathUnits="userSpaceOnUse" id="clipPath32">
<path d="M235 157 L488 157 L488 211 L235 211 L235 157 Z"/>
</clipPath>
<clipPath clipPathUnits="userSpaceOnUse" id="clipPath33">
<path d="M235 210 L488 210 L488 243 L235 243 L235 210 Z"/>
</clipPath>
<clipPath clipPathUnits="userSpaceOnUse" id="clipPath34">
<path d="M235 242 L488 242 L488 269 L235 269 L235 242 Z"/>
</clipPath>
<clipPath clipPathUnits="userSpaceOnUse" id="clipPath35">
<path d="M555 126 L793 126 L793 269 L555 269 L555 126 Z"/>
</clipPath>
<clipPath clipPathUnits="userSpaceOnUse" id="clipPath36">
<path d="M558 129 L793 129 L793 143 L558 143 L558 129 Z"/>
</clipPath>
<clipPath clipPathUnits="userSpaceOnUse" id="clipPath37">
<path d="M647 142 L707 142 L707 156 L647 156 L647 142 Z"/>
</clipPath>
<clipPath clipPathUnits="userSpaceOnUse" id="clipPath38">
<path d="M560 157 L691 157 L691 171 L560 171 L560 157 Z"/>
</clipPath>
<clipPath clipPathUnits="userSpaceOnUse" id="clipPath39">
<path d="M555 155 L793 155 L793 199 L555 199 L555 155 Z"/>
</clipPath>
<clipPath clipPathUnits="userSpaceOnUse" id="clipPath40">
<path d="M555 198 L793 198 L793 237 L555 237 L555 198 Z"/>
</clipPath>
<clipPath clipPathUnits="userSpaceOnUse" id="clipPath41">
<path d="M555 236 L793 236 L793 269 L555 269 L555 236 Z"/>
</clipPath>
<clipPath clipPathUnits="userSpaceOnUse" id="clipPath42">
<path d="M555 341 L748 341 L748 489 L555 489 L555 341 Z"/>
</clipPath>
<clipPath clipPathUnits="userSpaceOnUse" id="clipPath43">
<path d="M558 344 L748 344 L748 358 L558 358 L558 344 Z"/>
</clipPath>
<clipPath clipPathUnits="userSpaceOnUse" id="clipPath44">
<path d="M625 357 L683 357 L683 371 L625 371 L625 357 Z"/>
</clipPath>
<clipPath clipPathUnits="userSpaceOnUse" id="clipPath45">
<path d="M555 370 L748 370 L748 412 L555 412 L555 370 Z"/>
</clipPath>
<clipPath clipPathUnits="userSpaceOnUse" id="clipPath46">
<path d="M555 411 L748 411 L748 453 L555 453 L555 411 Z"/>
</clipPath>
<clipPath clipPathUnits="userSpaceOnUse" id="clipPath47">
<path d="M555 452 L748 452 L748 489 L555 489 L555 452 Z"/>
</clipPath>
<clipPath clipPathUnits="userSpaceOnUse" id="clipPath48">
<path d="M-1 -1 L903 -1 L903 585 L-1 585 L-1 -1 Z"/>
</clipPath>
<clipPath clipPathUnits="userSpaceOnUse" id="clipPath49">
<path d="M219 365 L238 365 L238 378 L219 378 L219 365 Z"/>
</clipPath>
<clipPath clipPathUnits="userSpaceOnUse" id="clipPath50">
<path d="M555 281 L561 281 L561 295 L555 295 L555 281 Z"/>
</clipPath>
<clipPath clipPathUnits="userSpaceOnUse" id="clipPath51">
<path d="M520 255 L540 255 L540 269 L520 269 L520 255 Z"/>
</clipPath>
<clipPath clipPathUnits="userSpaceOnUse" id="clipPath52">
<path d="M472 315 L478 315 L478 329 L472 329 L472 315 Z"/>
</clipPath>
<clipPath clipPathUnits="userSpaceOnUse" id="clipPath53">
<path d="M493 341 L513 341 L513 355 L493 355 L493 341 Z"/>
</clipPath>
<clipPath clipPathUnits="userSpaceOnUse" id="clipPath54">
<path d="M544 262 L558 262 L558 277 L544 277 L544 262 Z"/>
</clipPath>
<clipPath clipPathUnits="userSpaceOnUse" id="clipPath55">
<path d="M481 397 L499 397 L499 410 L481 410 L481 397 Z"/>
</clipPath>
<clipPath clipPathUnits="userSpaceOnUse" id="clipPath56">
<path d="M838 212 L844 212 L844 226 L838 226 L838 212 Z"/>
</clipPath>
<clipPath clipPathUnits="userSpaceOnUse" id="clipPath57">
<path d="M791 212 L811 212 L811 226 L791 226 L791 212 Z"/>
</clipPath>
<clipPath clipPathUnits="userSpaceOnUse" id="clipPath58">
<path d="M680 277 L686 277 L686 291 L680 291 L680 277 Z"/>
</clipPath>
<clipPath clipPathUnits="userSpaceOnUse" id="clipPath59">
<path d="M673 317 L693 317 L693 331 L673 331 L673 317 Z"/>
</clipPath>
<clipPath clipPathUnits="userSpaceOnUse" id="clipPath60">
<path d="M791 195 L810 195 L810 206 L791 206 L791 195 Z"/>
</clipPath>
<clipPath clipPathUnits="userSpaceOnUse" id="clipPath61">
<path d="M287 293 L293 293 L293 307 L287 307 L287 293 Z"/>
</clipPath>
<clipPath clipPathUnits="userSpaceOnUse" id="clipPath62">
<path d="M334 273 L354 273 L354 287 L334 287 L334 273 Z"/>
</clipPath>
<clipPath clipPathUnits="userSpaceOnUse" id="clipPath63">
<path d="M298 328 L304 328 L304 342 L298 342 L298 328 Z"/>
</clipPath>
<clipPath clipPathUnits="userSpaceOnUse" id="clipPath64">
<path d="M374 328 L394 328 L394 342 L374 342 L374 328 Z"/>
</clipPath>
<clipPath clipPathUnits="userSpaceOnUse" id="clipPath65">
<path d="M359 267 L370 267 L370 286 L359 286 L359 267 Z"/>
</clipPath>
<clipPath clipPathUnits="userSpaceOnUse" id="clipPath66">
<path d="M474 108 L480 108 L480 122 L474 122 L474 108 Z"/>
</clipPath>
<clipPath clipPathUnits="userSpaceOnUse" id="clipPath67">
<path d="M487 208 L507 208 L507 222 L487 222 L487 208 Z"/>
</clipPath>
<clipPath clipPathUnits="userSpaceOnUse" id="clipPath68">
<path d="M615 278 L621 278 L621 292 L615 292 L615 278 Z"/>
</clipPath>
<clipPath clipPathUnits="userSpaceOnUse" id="clipPath69">
<path d="M536 168 L556 168 L556 182 L536 182 L536 168 Z"/>
</clipPath>
<clipPath clipPathUnits="userSpaceOnUse" id="clipPath70">
<path d="M486 190 L505 190 L505 201 L486 201 L486 190 Z"/>
</clipPath>
<clipPath clipPathUnits="userSpaceOnUse" id="clipPath71">
<path d="M220 267 L239 267 L239 282 L220 282 L220 267 Z"/>
</clipPath>
</defs>
<g font-size="11" fill="white" font-family="'Lucida Grande'" stroke-linejoin="round" stroke="white" stroke-width="0" stroke-miterlimit="0">
<rect x="10" y="10" clip-path="url(#clipPath1)" width="218" height="31" stroke="none"/>
<rect x="10" y="41" clip-path="url(#clipPath1)" width="882" height="533" stroke="none"/>
</g>
<g stroke-width="1.1" font-size="11" font-family="'Lucida Grande'" stroke-linecap="butt">
<rect x="10" y="10" clip-path="url(#clipPath1)" fill="none" width="218" height="31"/>
<text font-size="10" x="20" y="25" clip-path="url(#clipPath2)" stroke="none" xml:space="preserve">«pyegg, gsprofile, plone_self_contained»</text>
<text font-size="10" x="20" y="38" clip-path="url(#clipPath3)" stroke="none" xml:space="preserve">agx.testpackage</text>
<rect x="10" y="41" clip-path="url(#clipPath4)" fill="none" width="881" height="532"/>
<rect x="35" y="73" clip-path="url(#clipPath5)" fill="white" width="83" height="31" stroke="none"/>
<rect x="35" y="104" clip-path="url(#clipPath5)" fill="white" width="812" height="427" stroke="none"/>
<rect x="35" y="73" clip-path="url(#clipPath5)" fill="none" width="83" height="31"/>
<text font-size="10" x="45" y="88" clip-path="url(#clipPath6)" stroke="none" xml:space="preserve">«pypackage»</text>
<text font-size="10" x="45" y="101" clip-path="url(#clipPath7)" stroke="none" xml:space="preserve">content</text>
<rect x="35" y="104" clip-path="url(#clipPath8)" fill="none" width="811" height="426"/>
<rect x="237" y="348" clip-path="url(#clipPath9)" fill="white" width="244" height="139" stroke="none"/>
<rect x="236" y="347" clip-path="url(#clipPath9)" fill="white" width="246" height="141" stroke="none"/>
<text font-size="10" x="240" y="360" clip-path="url(#clipPath10)" stroke="none" xml:space="preserve">«content_type, behavior_namefromtitle, behavio...</text>
<text font-size="10" x="345" y="373" clip-path="url(#clipPath11)" stroke="none" xml:space="preserve">Person</text>
<text font-size="10" x="241" y="388" clip-path="url(#clipPath12)" stroke="none" xml:space="preserve">«textLine»  + name: String</text>
<text font-size="10" x="241" y="400" clip-path="url(#clipPath13)" stroke="none" xml:space="preserve">«textLine»  + lastname: String</text>
<text font-size="10" x="241" y="412" clip-path="url(#clipPath14)" stroke="none" xml:space="preserve">«int»  + age: String</text>
<line clip-path="url(#clipPath15)" fill="none" x1="236" x2="482" y1="376" y2="376"/>
<line clip-path="url(#clipPath16)" fill="none" x1="236" x2="482" y1="438" y2="438"/>
<line clip-path="url(#clipPath17)" fill="none" x1="236" x2="482" y1="466" y2="466"/>
<rect x="236" y="347" clip-path="url(#clipPath9)" fill="none" width="245" height="140"/>
<rect x="57" y="258" clip-path="url(#clipPath18)" fill="white" width="134" height="149" stroke="none"/>
<rect x="56" y="257" clip-path="url(#clipPath18)" fill="white" width="136" height="151" stroke="none"/>
<text xml:space="preserve" x="98" y="271" clip-path="url(#clipPath19)" stroke="none">«behavior»</text>
<text xml:space="preserve" x="105" y="285" clip-path="url(#clipPath20)" stroke="none">Address</text>
<text font-size="10" x="61" y="300" clip-path="url(#clipPath21)" stroke="none" xml:space="preserve">«textLine»  + street: Str...</text>
<text font-size="10" x="61" y="312" clip-path="url(#clipPath22)" stroke="none" xml:space="preserve">«textLine»  + zip: String</text>
<text font-size="10" x="61" y="324" clip-path="url(#clipPath23)" stroke="none" xml:space="preserve">«textLine»  + country: ...</text>
<line clip-path="url(#clipPath24)" fill="none" x1="56" x2="192" y1="288" y2="288"/>
<line clip-path="url(#clipPath25)" fill="none" x1="56" x2="192" y1="354" y2="354"/>
<line clip-path="url(#clipPath26)" fill="none" x1="56" x2="192" y1="384" y2="384"/>
<rect x="56" y="257" clip-path="url(#clipPath18)" fill="none" width="135" height="150"/>
<rect x="237" y="128" clip-path="url(#clipPath27)" fill="white" width="249" height="139" stroke="none"/>
<rect x="236" y="127" clip-path="url(#clipPath27)" fill="white" width="251" height="141" stroke="none"/>
<text xml:space="preserve" x="241" y="141" clip-path="url(#clipPath28)" stroke="none">«content_type, behavior_namefromtitle, beh...</text>
<text xml:space="preserve" x="339" y="155" clip-path="url(#clipPath29)" stroke="none">Company</text>
<text font-size="10" x="241" y="170" clip-path="url(#clipPath30)" stroke="none" xml:space="preserve">«textLine»  + name: String</text>
<text font-size="10" x="241" y="182" clip-path="url(#clipPath31)" stroke="none" xml:space="preserve">«textLine»  + tax_number: String</text>
<line clip-path="url(#clipPath32)" fill="none" x1="236" x2="487" y1="158" y2="158"/>
<line clip-path="url(#clipPath33)" fill="none" x1="236" x2="487" y1="211" y2="211"/>
<line clip-path="url(#clipPath34)" fill="none" x1="236" x2="487" y1="243" y2="243"/>
<rect x="236" y="127" clip-path="url(#clipPath27)" fill="none" width="250" height="140"/>
<rect x="557" y="128" clip-path="url(#clipPath35)" fill="white" width="234" height="139" stroke="none"/>
<rect x="556" y="127" clip-path="url(#clipPath35)" fill="white" width="236" height="141" stroke="none"/>
<text font-size="10" x="559" y="140" clip-path="url(#clipPath36)" stroke="none" xml:space="preserve">«content_type, behavior_namefromtitle, behav...</text>
<text font-size="10" x="648" y="153" clip-path="url(#clipPath37)" stroke="none" xml:space="preserve">Department</text>
<text font-size="10" x="561" y="168" clip-path="url(#clipPath38)" stroke="none" xml:space="preserve">«textLine»  + name: String</text>
<line clip-path="url(#clipPath39)" fill="none" x1="556" x2="792" y1="156" y2="156"/>
<line clip-path="url(#clipPath40)" fill="none" x1="556" x2="792" y1="199" y2="199"/>
<line clip-path="url(#clipPath41)" fill="none" x1="556" x2="792" y1="237" y2="237"/>
<rect x="556" y="127" clip-path="url(#clipPath35)" fill="none" width="235" height="140"/>
<rect x="557" y="343" clip-path="url(#clipPath42)" fill="white" width="189" height="144" stroke="none"/>
<rect x="556" y="342" clip-path="url(#clipPath42)" fill="white" width="191" height="146" stroke="none"/>
<text font-size="10" x="615" y="355" clip-path="url(#clipPath43)" stroke="none" xml:space="preserve">«dynamic_view»</text>
<text font-size="10" x="626" y="368" clip-path="url(#clipPath44)" stroke="none" xml:space="preserve">PersonView</text>
<line clip-path="url(#clipPath45)" fill="none" x1="556" x2="747" y1="371" y2="371"/>
<line clip-path="url(#clipPath46)" fill="none" x1="556" x2="747" y1="412" y2="412"/>
<line clip-path="url(#clipPath47)" fill="none" x1="556" x2="747" y1="453" y2="453"/>
<rect x="556" y="342" clip-path="url(#clipPath42)" fill="none" width="190" height="145"/>
<line clip-path="url(#clipPath8)" fill="none" x1="35" x2="847" y1="104" y2="104"/>
<rect x="35" y="73" clip-path="url(#clipPath5)" fill="none" width="83" height="31" stroke-width="0.1"/>
<line clip-path="url(#clipPath4)" fill="none" x1="10" x2="892" y1="41" y2="41"/>
<rect x="10" y="10" clip-path="url(#clipPath1)" fill="none" width="218" height="31" stroke-width="0.1"/>
<line clip-path="url(#clipPath48)" fill="none" text-rendering="optimizeLegibility" x1="192" x2="236" y1="359" y2="376" stroke-dasharray="5,5,5,5,5,5,5,5,5,5"/>
<line clip-path="url(#clipPath49)" fill="none" text-rendering="optimizeLegibility" x1="220" x2="236" y1="375" y2="376"/>
<line clip-path="url(#clipPath49)" fill="none" text-rendering="optimizeLegibility" x1="236" x2="224" y1="376" y2="366"/>
<line clip-path="url(#clipPath48)" fill="none" text-rendering="optimizeLegibility" x1="556" x2="478" y1="263" y2="347"/>
<text font-size="10" x="556" y="292" clip-path="url(#clipPath50)" text-rendering="optimizeLegibility" stroke="none" xml:space="preserve"> </text>
<text font-size="10" x="521" y="266" clip-path="url(#clipPath51)" text-rendering="optimizeLegibility" stroke="none" xml:space="preserve">  [*]</text>
<text font-size="10" x="473" y="326" clip-path="url(#clipPath52)" text-rendering="optimizeLegibility" stroke="none" xml:space="preserve"> </text>
<text font-size="10" x="494" y="352" clip-path="url(#clipPath53)" text-rendering="optimizeLegibility" stroke="none" xml:space="preserve">  [*]</text>
<polygon text-rendering="optimizeLegibility" clip-path="url(#clipPath54)" points=" 556 263 553 272 545 275 548 266" stroke="none"/>
<polygon fill="none" text-rendering="optimizeLegibility" clip-path="url(#clipPath54)" points=" 556 263 553 272 545 275 548 266"/>
<line clip-path="url(#clipPath48)" fill="none" text-rendering="optimizeLegibility" x1="556" x2="515" y1="403" y2="403" stroke-dasharray="5,5,5,5,5,5,5,5,5,5"/>
<line clip-path="url(#clipPath48)" fill="none" text-rendering="optimizeLegibility" x1="515" x2="482" y1="403" y2="403" stroke-dasharray="5,5,5,5,5,5,5,5,5,5"/>
<line clip-path="url(#clipPath55)" fill="none" text-rendering="optimizeLegibility" x1="497" x2="482" y1="398" y2="403"/>
<line clip-path="url(#clipPath55)" fill="none" text-rendering="optimizeLegibility" x1="482" x2="497" y1="403" y2="408"/>
<line clip-path="url(#clipPath48)" fill="none" text-rendering="optimizeLegibility" x1="792" x2="821" y1="200" y2="200"/>
<line clip-path="url(#clipPath48)" fill="none" text-rendering="optimizeLegibility" x1="821" x2="821" y1="200" y2="304"/>
<line clip-path="url(#clipPath48)" fill="none" text-rendering="optimizeLegibility" x1="821" x2="671" y1="304" y2="304"/>
<line clip-path="url(#clipPath48)" fill="none" text-rendering="optimizeLegibility" x1="671" x2="671" y1="304" y2="268"/>
<text font-size="10" x="839" y="223" clip-path="url(#clipPath56)" text-rendering="optimizeLegibility" stroke="none" xml:space="preserve"> </text>
<text font-size="10" x="792" y="223" clip-path="url(#clipPath57)" text-rendering="optimizeLegibility" stroke="none" xml:space="preserve">  [*]</text>
<text font-size="10" x="681" y="288" clip-path="url(#clipPath58)" text-rendering="optimizeLegibility" stroke="none" xml:space="preserve"> </text>
<text font-size="10" x="674" y="328" clip-path="url(#clipPath59)" text-rendering="optimizeLegibility" stroke="none" xml:space="preserve">  [*]</text>
<polygon text-rendering="optimizeLegibility" clip-path="url(#clipPath60)" points=" 792 200 800 196 808 200 800 204" stroke="none"/>
<polygon fill="none" text-rendering="optimizeLegibility" clip-path="url(#clipPath60)" points=" 792 200 800 196 808 200 800 204"/>
<line clip-path="url(#clipPath48)" fill="none" text-rendering="optimizeLegibility" x1="364" x2="364" y1="268" y2="347"/>
<text font-size="10" x="288" y="304" clip-path="url(#clipPath61)" text-rendering="optimizeLegibility" stroke="none" xml:space="preserve"> </text>
<text font-size="10" x="335" y="284" clip-path="url(#clipPath62)" text-rendering="optimizeLegibility" stroke="none" xml:space="preserve">  [*]</text>
<text font-size="10" x="299" y="339" clip-path="url(#clipPath63)" text-rendering="optimizeLegibility" stroke="none" xml:space="preserve"> </text>
<text font-size="10" x="375" y="339" clip-path="url(#clipPath64)" text-rendering="optimizeLegibility" stroke="none" xml:space="preserve">  [*]</text>
<polygon text-rendering="optimizeLegibility" clip-path="url(#clipPath65)" points=" 364 268 368 276 364 284 360 276" stroke="none"/>
<polygon fill="none" text-rendering="optimizeLegibility" clip-path="url(#clipPath65)" points=" 364 268 368 276 364 284 360 276"/>
<line clip-path="url(#clipPath48)" fill="none" text-rendering="optimizeLegibility" x1="487" x2="556" y1="195" y2="195"/>
<text font-size="10" x="475" y="119" clip-path="url(#clipPath66)" text-rendering="optimizeLegibility" stroke="none" xml:space="preserve"> </text>
<text font-size="10" x="488" y="219" clip-path="url(#clipPath67)" text-rendering="optimizeLegibility" stroke="none" xml:space="preserve">  [*]</text>
<text font-size="10" x="616" y="289" clip-path="url(#clipPath68)" text-rendering="optimizeLegibility" stroke="none" xml:space="preserve"> </text>
<text font-size="10" x="537" y="179" clip-path="url(#clipPath69)" text-rendering="optimizeLegibility" stroke="none" xml:space="preserve">  [*]</text>
<polygon text-rendering="optimizeLegibility" clip-path="url(#clipPath70)" points=" 487 195 495 191 503 195 495 199" stroke="none"/>
<polygon fill="none" text-rendering="optimizeLegibility" clip-path="url(#clipPath70)" points=" 487 195 495 191 503 195 495 199"/>
<line clip-path="url(#clipPath48)" fill="none" text-rendering="optimizeLegibility" x1="192" x2="237" y1="293" y2="268" stroke-dasharray="5,5,5,5,5,5,5,5,5,5"/>
<line clip-path="url(#clipPath71)" fill="none" text-rendering="optimizeLegibility" x1="226" x2="237" y1="280" y2="268"/>
<line clip-path="url(#clipPath71)" fill="none" text-rendering="optimizeLegibility" x1="237" x2="221" y1="268" y2="271"/>
<line clip-path="url(#clipPath48)" fill="none" text-rendering="optimizeLegibility" x1="556" x2="515" y1="403" y2="403" stroke-dasharray="5,5,5,5,5,5,5,5,5,5"/>
<line clip-path="url(#clipPath48)" fill="none" text-rendering="optimizeLegibility" x1="515" x2="482" y1="403" y2="403" stroke-dasharray="5,5,5,5,5,5,5,5,5,5"/>
<line clip-path="url(#clipPath55)" fill="none" text-rendering="optimizeLegibility" x1="497" x2="482" y1="398" y2="403"/>
<line clip-path="url(#clipPath55)" fill="none" text-rendering="optimizeLegibility" x1="482" x2="497" y1="403" y2="408"/>
<line clip-path="url(#clipPath48)" fill="none" text-rendering="optimizeLegibility" x1="192" x2="236" y1="359" y2="376" stroke-dasharray="5,5,5,5,5,5,5,5,5,5"/>
<line clip-path="url(#clipPath49)" fill="none" text-rendering="optimizeLegibility" x1="220" x2="236" y1="375" y2="376"/>
<line clip-path="url(#clipPath49)" fill="none" text-rendering="optimizeLegibility" x1="236" x2="224" y1="376" y2="366"/>
<line clip-path="url(#clipPath48)" fill="none" text-rendering="optimizeLegibility" x1="192" x2="237" y1="293" y2="268" stroke-dasharray="5,5,5,5,5,5,5,5,5,5"/>
<line clip-path="url(#clipPath71)" fill="none" text-rendering="optimizeLegibility" x1="226" x2="237" y1="280" y2="268"/>
<line clip-path="url(#clipPath71)" fill="none" text-rendering="optimizeLegibility" x1="237" x2="221" y1="268" y2="271"/>
<line clip-path="url(#clipPath48)" fill="none" text-rendering="optimizeLegibility" x1="364" x2="364" y1="268" y2="347"/>
<text font-size="10" x="288" y="304" clip-path="url(#clipPath61)" text-rendering="optimizeLegibility" stroke="none" xml:space="preserve"> </text>
<text font-size="10" x="335" y="284" clip-path="url(#clipPath62)" text-rendering="optimizeLegibility" stroke="none" xml:space="preserve">  [*]</text>
<text font-size="10" x="299" y="339" clip-path="url(#clipPath63)" text-rendering="optimizeLegibility" stroke="none" xml:space="preserve"> </text>
<text font-size="10" x="375" y="339" clip-path="url(#clipPath64)" text-rendering="optimizeLegibility" stroke="none" xml:space="preserve">  [*]</text>
<polygon text-rendering="optimizeLegibility" clip-path="url(#clipPath65)" points=" 364 268 368 276 364 284 360 276" stroke="none"/>
<polygon fill="none" text-rendering="optimizeLegibility" clip-path="url(#clipPath65)" points=" 364 268 368 276 364 284 360 276"/>
<line clip-path="url(#clipPath48)" fill="none" text-rendering="optimizeLegibility" x1="487" x2="556" y1="195" y2="195"/>
<text font-size="10" x="475" y="119" clip-path="url(#clipPath66)" text-rendering="optimizeLegibility" stroke="none" xml:space="preserve"> </text>
<text font-size="10" x="488" y="219" clip-path="url(#clipPath67)" text-rendering="optimizeLegibility" stroke="none" xml:space="preserve">  [*]</text>
<text font-size="10" x="616" y="289" clip-path="url(#clipPath68)" text-rendering="optimizeLegibility" stroke="none" xml:space="preserve"> </text>
<text font-size="10" x="537" y="179" clip-path="url(#clipPath69)" text-rendering="optimizeLegibility" stroke="none" xml:space="preserve">  [*]</text>
<polygon text-rendering="optimizeLegibility" clip-path="url(#clipPath70)" points=" 487 195 495 191 503 195 495 199" stroke="none"/>
<polygon fill="none" text-rendering="optimizeLegibility" clip-path="url(#clipPath70)" points=" 487 195 495 191 503 195 495 199"/>
<line clip-path="url(#clipPath48)" fill="none" text-rendering="optimizeLegibility" x1="792" x2="821" y1="200" y2="200"/>
<line clip-path="url(#clipPath48)" fill="none" text-rendering="optimizeLegibility" x1="821" x2="821" y1="200" y2="304"/>
<line clip-path="url(#clipPath48)" fill="none" text-rendering="optimizeLegibility" x1="821" x2="671" y1="304" y2="304"/>
<line clip-path="url(#clipPath48)" fill="none" text-rendering="optimizeLegibility" x1="671" x2="671" y1="304" y2="268"/>
<text font-size="10" x="839" y="223" clip-path="url(#clipPath56)" text-rendering="optimizeLegibility" stroke="none" xml:space="preserve"> </text>
<text font-size="10" x="792" y="223" clip-path="url(#clipPath57)" text-rendering="optimizeLegibility" stroke="none" xml:space="preserve">  [*]</text>
<text font-size="10" x="681" y="288" clip-path="url(#clipPath58)" text-rendering="optimizeLegibility" stroke="none" xml:space="preserve"> </text>
<text font-size="10" x="674" y="328" clip-path="url(#clipPath59)" text-rendering="optimizeLegibility" stroke="none" xml:space="preserve">  [*]</text>
<polygon text-rendering="optimizeLegibility" clip-path="url(#clipPath60)" points=" 792 200 800 196 808 200 800 204" stroke="none"/>
<polygon fill="none" text-rendering="optimizeLegibility" clip-path="url(#clipPath60)" points=" 792 200 800 196 808 200 800 204"/>
<line clip-path="url(#clipPath48)" fill="none" text-rendering="optimizeLegibility" x1="556" x2="478" y1="263" y2="347"/>
<text font-size="10" x="556" y="292" clip-path="url(#clipPath50)" text-rendering="optimizeLegibility" stroke="none" xml:space="preserve"> </text>
<text font-size="10" x="521" y="266" clip-path="url(#clipPath51)" text-rendering="optimizeLegibility" stroke="none" xml:space="preserve">  [*]</text>
<text font-size="10" x="473" y="326" clip-path="url(#clipPath52)" text-rendering="optimizeLegibility" stroke="none" xml:space="preserve"> </text>
<text font-size="10" x="494" y="352" clip-path="url(#clipPath53)" text-rendering="optimizeLegibility" stroke="none" xml:space="preserve">  [*]</text>
<polygon text-rendering="optimizeLegibility" clip-path="url(#clipPath54)" points=" 556 263 553 272 545 275 548 266" stroke="none"/>
<polygon fill="none" text-rendering="optimizeLegibility" clip-path="url(#clipPath54)" points=" 556 263 553 272 545 275 548 266"/>
</g>
</g>
</svg>
