<?xml version="1.0" encoding="UTF-8"?>
<svg xmlns="http://www.w3.org/2000/svg" xmlns:xlink="http://www.w3.org/1999/xlink" stroke-dasharray="none" shape-rendering="auto" font-family="'Dialog'" width="691" text-rendering="auto" fill-opacity="1" contentScriptType="text/ecmascript" color-interpolation="auto" color-rendering="auto" preserveAspectRatio="xMidYMid meet" font-size="12" viewBox="0 0 691 521" fill="black" stroke="black" image-rendering="auto" stroke-miterlimit="10" zoomAndPan="magnify" version="1.0" stroke-linecap="square" stroke-linejoin="miter" contentStyleType="text/css" font-style="normal" height="521" stroke-width="1" stroke-dashoffset="0" font-weight="normal" stroke-opacity="1">
<!--Generated by the Batik Graphics2D SVG Generator-->
<defs id="genericDefs"/>
<g>
<defs id="defs1">
<clipPath clipPathUnits="userSpaceOnUse" id="clipPath1">
<path d="M9 9 L682 9 L682 512 L9 512 L9 9 Z"/>
</clipPath>
<clipPath clipPathUnits="userSpaceOnUse" id="clipPath2">
<path d="M19 14 L62 14 L62 28 L19 28 L19 14 Z"/>
</clipPath>
<clipPath clipPathUnits="userSpaceOnUse" id="clipPath3">
<path d="M19 27 L118 27 L118 41 L19 41 L19 27 Z"/>
</clipPath>
<clipPath clipPathUnits="userSpaceOnUse" id="clipPath4">
<path d="M9 40 L682 40 L682 512 L9 512 L9 40 Z"/>
</clipPath>
<clipPath clipPathUnits="userSpaceOnUse" id="clipPath5">
<path d="M29 60 L662 60 L662 352 L29 352 L29 60 Z"/>
</clipPath>
<clipPath clipPathUnits="userSpaceOnUse" id="clipPath6">
<path d="M39 65 L106 65 L106 80 L39 80 L39 65 Z"/>
</clipPath>
<clipPath clipPathUnits="userSpaceOnUse" id="clipPath7">
<path d="M39 79 L87 79 L87 94 L39 94 L39 79 Z"/>
</clipPath>
<clipPath clipPathUnits="userSpaceOnUse" id="clipPath8">
<path d="M29 93 L662 93 L662 352 L29 352 L29 93 Z"/>
</clipPath>
<clipPath clipPathUnits="userSpaceOnUse" id="clipPath9">
<path d="M49 112 L242 112 L242 315 L49 315 L49 112 Z"/>
</clipPath>
<clipPath clipPathUnits="userSpaceOnUse" id="clipPath10">
<path d="M52 115 L242 115 L242 130 L52 130 L52 115 Z"/>
</clipPath>
<clipPath clipPathUnits="userSpaceOnUse" id="clipPath11">
<path d="M129 129 L167 129 L167 144 L129 144 L129 129 Z"/>
</clipPath>
<clipPath clipPathUnits="userSpaceOnUse" id="clipPath12">
<path d="M54 145 L161 145 L161 160 L54 160 L54 145 Z"/>
</clipPath>
<clipPath clipPathUnits="userSpaceOnUse" id="clipPath13">
<path d="M54 158 L159 158 L159 173 L54 173 L54 158 Z"/>
</clipPath>
<clipPath clipPathUnits="userSpaceOnUse" id="clipPath14">
<path d="M54 171 L183 171 L183 186 L54 186 L54 171 Z"/>
</clipPath>
<clipPath clipPathUnits="userSpaceOnUse" id="clipPath15">
<path d="M49 143 L242 143 L242 239 L49 239 L49 143 Z"/>
</clipPath>
<clipPath clipPathUnits="userSpaceOnUse" id="clipPath16">
<path d="M49 238 L242 238 L242 280 L49 280 L49 238 Z"/>
</clipPath>
<clipPath clipPathUnits="userSpaceOnUse" id="clipPath17">
<path d="M49 279 L242 279 L242 315 L49 315 L49 279 Z"/>
</clipPath>
<clipPath clipPathUnits="userSpaceOnUse" id="clipPath18">
<path d="M419 107 L612 107 L612 295 L419 295 L419 107 Z"/>
</clipPath>
<clipPath clipPathUnits="userSpaceOnUse" id="clipPath19">
<path d="M422 110 L612 110 L612 125 L422 125 L422 110 Z"/>
</clipPath>
<clipPath clipPathUnits="userSpaceOnUse" id="clipPath20">
<path d="M495 124 L541 124 L541 139 L495 139 L495 124 Z"/>
</clipPath>
<clipPath clipPathUnits="userSpaceOnUse" id="clipPath21">
<path d="M424 140 L511 140 L511 155 L424 155 L424 140 Z"/>
</clipPath>
<clipPath clipPathUnits="userSpaceOnUse" id="clipPath22">
<path d="M424 153 L499 153 L499 168 L424 168 L424 153 Z"/>
</clipPath>
<clipPath clipPathUnits="userSpaceOnUse" id="clipPath23">
<path d="M424 166 L521 166 L521 181 L424 181 L424 166 Z"/>
</clipPath>
<clipPath clipPathUnits="userSpaceOnUse" id="clipPath24">
<path d="M424 179 L497 179 L497 194 L424 194 L424 179 Z"/>
</clipPath>
<clipPath clipPathUnits="userSpaceOnUse" id="clipPath25">
<path d="M424 192 L553 192 L553 207 L424 207 L424 192 Z"/>
</clipPath>
<clipPath clipPathUnits="userSpaceOnUse" id="clipPath26">
<path d="M419 138 L612 138 L612 242 L419 242 L419 138 Z"/>
</clipPath>
<clipPath clipPathUnits="userSpaceOnUse" id="clipPath27">
<path d="M419 241 L612 241 L612 271 L419 271 L419 241 Z"/>
</clipPath>
<clipPath clipPathUnits="userSpaceOnUse" id="clipPath28">
<path d="M419 270 L612 270 L612 295 L419 295 L419 270 Z"/>
</clipPath>
<clipPath clipPathUnits="userSpaceOnUse" id="clipPath29">
<path d="M29 369 L131 369 L131 474 L29 474 L29 369 Z"/>
</clipPath>
<clipPath clipPathUnits="userSpaceOnUse" id="clipPath30">
<path d="M32 372 L131 372 L131 387 L32 387 L32 372 Z"/>
</clipPath>
<clipPath clipPathUnits="userSpaceOnUse" id="clipPath31">
<path d="M56 386 L109 386 L109 401 L56 401 L56 386 Z"/>
</clipPath>
<clipPath clipPathUnits="userSpaceOnUse" id="clipPath32">
<path d="M34 402 L120 402 L120 417 L34 417 L34 402 Z"/>
</clipPath>
<clipPath clipPathUnits="userSpaceOnUse" id="clipPath33">
<path d="M29 400 L131 400 L131 430 L29 430 L29 400 Z"/>
</clipPath>
<clipPath clipPathUnits="userSpaceOnUse" id="clipPath34">
<path d="M29 429 L131 429 L131 455 L29 455 L29 429 Z"/>
</clipPath>
<clipPath clipPathUnits="userSpaceOnUse" id="clipPath35">
<path d="M29 454 L131 454 L131 474 L29 474 L29 454 Z"/>
</clipPath>
<clipPath clipPathUnits="userSpaceOnUse" id="clipPath36">
<path d="M-1 -1 L692 -1 L692 522 L-1 522 L-1 -1 Z"/>
</clipPath>
<clipPath clipPathUnits="userSpaceOnUse" id="clipPath37">
<path d="M283 246 L382 246 L382 261 L283 261 L283 246 Z"/>
</clipPath>
<clipPath clipPathUnits="userSpaceOnUse" id="clipPath38">
<path d="M250 183 L305 183 L305 198 L250 198 L250 183 Z"/>
</clipPath>
<clipPath clipPathUnits="userSpaceOnUse" id="clipPath39">
<path d="M264 242 L270 242 L270 257 L264 257 L264 242 Z"/>
</clipPath>
<clipPath clipPathUnits="userSpaceOnUse" id="clipPath40">
<path d="M335 190 L407 190 L407 205 L335 205 L335 190 Z"/>
</clipPath>
<clipPath clipPathUnits="userSpaceOnUse" id="clipPath41">
<path d="M383 213 L405 213 L405 228 L383 228 L383 213 Z"/>
</clipPath>
<clipPath clipPathUnits="userSpaceOnUse" id="clipPath42">
<path d="M401 233 L422 233 L422 248 L401 248 L401 233 Z"/>
</clipPath>
</defs>
<g font-size="11" fill="white" font-family="'Lucida Grande'" stroke-linejoin="round" stroke="white" stroke-width="0" stroke-miterlimit="0">
<rect x="10" y="10" clip-path="url(#clipPath1)" width="117" height="31" stroke="none"/>
<rect x="10" y="41" clip-path="url(#clipPath1)" width="671" height="470" stroke="none"/>
</g>
<g stroke-width="1.1" font-size="11" font-family="'Lucida Grande'" stroke-linecap="butt">
<rect x="10" y="10" clip-path="url(#clipPath1)" fill="none" width="117" height="31"/>
<text font-size="10" x="20" y="25" clip-path="url(#clipPath2)" stroke="none" xml:space="preserve">«pyegg»</text>
<text font-size="10" x="20" y="38" clip-path="url(#clipPath3)" stroke="none" xml:space="preserve">agx.testpackage.sql</text>
<rect x="10" y="41" clip-path="url(#clipPath4)" fill="none" width="670" height="469"/>
<rect x="30" y="61" clip-path="url(#clipPath5)" fill="white" width="85" height="33" stroke="none"/>
<rect x="30" y="94" clip-path="url(#clipPath5)" fill="white" width="631" height="257" stroke="none"/>
<rect x="30" y="61" clip-path="url(#clipPath5)" fill="none" width="85" height="33"/>
<text xml:space="preserve" x="40" y="77" clip-path="url(#clipPath6)" stroke="none">«pymodule»</text>
<text xml:space="preserve" x="40" y="91" clip-path="url(#clipPath7)" stroke="none">personal</text>
<rect x="30" y="94" clip-path="url(#clipPath8)" fill="none" width="630" height="256"/>
<rect x="51" y="114" clip-path="url(#clipPath9)" fill="white" width="189" height="199" stroke="none"/>
<rect x="50" y="113" clip-path="url(#clipPath9)" fill="white" width="191" height="201" stroke="none"/>
<text xml:space="preserve" x="111" y="127" clip-path="url(#clipPath10)" stroke="none">«sql_content»</text>
<text xml:space="preserve" x="130" y="141" clip-path="url(#clipPath11)" stroke="none">Person</text>
<text xml:space="preserve" x="55" y="157" clip-path="url(#clipPath12)" stroke="none"> + firstname: String</text>
<text xml:space="preserve" x="55" y="170" clip-path="url(#clipPath13)" stroke="none"> + lastname: String</text>
<text xml:space="preserve" x="55" y="183" clip-path="url(#clipPath14)" stroke="none">«primary»  + id: Integer</text>
<line clip-path="url(#clipPath15)" fill="none" x1="50" x2="241" y1="144" y2="144"/>
<line clip-path="url(#clipPath16)" fill="none" x1="50" x2="241" y1="239" y2="239"/>
<line clip-path="url(#clipPath17)" fill="none" x1="50" x2="241" y1="280" y2="280"/>
<rect x="50" y="113" clip-path="url(#clipPath9)" fill="none" width="190" height="200"/>
<rect x="421" y="109" clip-path="url(#clipPath18)" fill="white" width="189" height="184" stroke="none"/>
<rect x="420" y="108" clip-path="url(#clipPath18)" fill="white" width="191" height="186" stroke="none"/>
<text xml:space="preserve" x="481" y="122" clip-path="url(#clipPath19)" stroke="none">«sql_content»</text>
<text xml:space="preserve" x="496" y="136" clip-path="url(#clipPath20)" stroke="none">Address</text>
<text xml:space="preserve" x="425" y="152" clip-path="url(#clipPath21)" stroke="none"> + street: String</text>
<text xml:space="preserve" x="425" y="165" clip-path="url(#clipPath22)" stroke="none"> + city: String</text>
<text xml:space="preserve" x="425" y="178" clip-path="url(#clipPath23)" stroke="none"> + country: String</text>
<text xml:space="preserve" x="425" y="191" clip-path="url(#clipPath24)" stroke="none"> + zip: String</text>
<text xml:space="preserve" x="425" y="204" clip-path="url(#clipPath25)" stroke="none">«primary»  + id: Integer</text>
<line clip-path="url(#clipPath26)" fill="none" x1="420" x2="611" y1="139" y2="139"/>
<line clip-path="url(#clipPath27)" fill="none" x1="420" x2="611" y1="242" y2="242"/>
<line clip-path="url(#clipPath28)" fill="none" x1="420" x2="611" y1="271" y2="271"/>
<rect x="420" y="108" clip-path="url(#clipPath18)" fill="none" width="190" height="185"/>
<line clip-path="url(#clipPath8)" fill="none" x1="30" x2="661" y1="94" y2="94"/>
<rect x="30" y="61" clip-path="url(#clipPath5)" fill="none" width="85" height="33" stroke-width="0.1"/>
<rect x="31" y="371" clip-path="url(#clipPath29)" fill="white" width="98" height="101" stroke="none" stroke-width="0.1"/>
<rect x="30" y="370" clip-path="url(#clipPath29)" fill="white" width="100" height="103" stroke="none" stroke-width="0.1"/>
<text x="46" y="384" clip-path="url(#clipPath30)" stroke="none" stroke-width="0.1" xml:space="preserve">«sql_content»</text>
<text x="57" y="398" clip-path="url(#clipPath31)" stroke="none" stroke-width="0.1" xml:space="preserve">Company</text>
<text x="35" y="414" clip-path="url(#clipPath32)" stroke="none" stroke-width="0.1" xml:space="preserve"> + name: String</text>
<line clip-path="url(#clipPath33)" fill="none" x1="30" x2="130" y1="401" y2="401"/>
<line clip-path="url(#clipPath34)" fill="none" x1="30" x2="130" y1="430" y2="430"/>
<line clip-path="url(#clipPath35)" fill="none" x1="30" x2="130" y1="455" y2="455"/>
<rect x="30" y="370" clip-path="url(#clipPath29)" fill="none" width="99" height="102"/>
<line clip-path="url(#clipPath4)" fill="none" x1="10" x2="681" y1="41" y2="41"/>
<rect x="10" y="10" clip-path="url(#clipPath1)" fill="none" width="117" height="31" stroke-width="0.1"/>
<line clip-path="url(#clipPath36)" fill="none" text-rendering="optimizeLegibility" x1="241" x2="420" y1="228" y2="241"/>
<text x="284" y="258" clip-path="url(#clipPath37)" text-rendering="optimizeLegibility" stroke="none" xml:space="preserve">person_address_1</text>
<text x="251" y="195" clip-path="url(#clipPath38)" text-rendering="optimizeLegibility" stroke="none" xml:space="preserve"> + person</text>
<text x="265" y="254" clip-path="url(#clipPath39)" text-rendering="optimizeLegibility" stroke="none" xml:space="preserve"> </text>
<text x="336" y="202" clip-path="url(#clipPath40)" text-rendering="optimizeLegibility" stroke="none" xml:space="preserve"> + addresses</text>
<text x="384" y="225" clip-path="url(#clipPath41)" text-rendering="optimizeLegibility" stroke="none" xml:space="preserve">  [*]</text>
<polygon text-rendering="optimizeLegibility" clip-path="url(#clipPath42)" points=" 420 242 418 244 416 244 414 242 414 241 402 246 414 241 402 234 414 241 414 240 416 238 418 238 420 240" stroke="none"/>
<polygon fill="none" text-rendering="optimizeLegibility" clip-path="url(#clipPath42)" points=" 420 242 418 244 416 244 414 242 414 241 402 246 414 241 402 234 414 241 414 240 416 238 418 238 420 240"/>
<line clip-path="url(#clipPath36)" fill="none" text-rendering="optimizeLegibility" x1="241" x2="420" y1="228" y2="241"/>
<text x="284" y="258" clip-path="url(#clipPath37)" text-rendering="optimizeLegibility" stroke="none" xml:space="preserve">person_address_1</text>
<text x="251" y="195" clip-path="url(#clipPath38)" text-rendering="optimizeLegibility" stroke="none" xml:space="preserve"> + person</text>
<text x="265" y="254" clip-path="url(#clipPath39)" text-rendering="optimizeLegibility" stroke="none" xml:space="preserve"> </text>
<text x="336" y="202" clip-path="url(#clipPath40)" text-rendering="optimizeLegibility" stroke="none" xml:space="preserve"> + addresses</text>
<text x="384" y="225" clip-path="url(#clipPath41)" text-rendering="optimizeLegibility" stroke="none" xml:space="preserve">  [*]</text>
<polygon text-rendering="optimizeLegibility" clip-path="url(#clipPath42)" points=" 420 242 418 244 416 244 414 242 414 241 402 246 414 241 402 234 414 241 414 240 416 238 418 238 420 240" stroke="none"/>
<polygon fill="none" text-rendering="optimizeLegibility" clip-path="url(#clipPath42)" points=" 420 242 418 244 416 244 414 242 414 241 402 246 414 241 402 234 414 241 414 240 416 238 418 238 420 240"/>
</g>
</g>
</svg>
