<?xml version="1.0" encoding="UTF-8"?><svg xmlns="http://www.w3.org/2000/svg" xmlns:xlink="http://www.w3.org/1999/xlink" stroke-dasharray="none" shape-rendering="auto" font-family="'Dialog'" width="1001" text-rendering="auto" fill-opacity="1" contentScriptType="text/ecmascript" color-interpolation="auto" color-rendering="auto" preserveAspectRatio="xMidYMid meet" font-size="12" viewBox="0 0 1001 566" fill="black" stroke="black" image-rendering="auto" stroke-miterlimit="10" zoomAndPan="magnify" version="1.0" stroke-linecap="square" stroke-linejoin="miter" contentStyleType="text/css" font-style="normal" height="566" stroke-width="1" stroke-dashoffset="0" font-weight="normal" stroke-opacity="1">
<!--Generated by the Batik Graphics2D SVG Generator-->
<defs id="genericDefs"/>
<g>
<defs id="defs1">
<linearGradient x1="10" x2="10" y1="49" gradientUnits="userSpaceOnUse" y2="556" xlink:type="simple" xlink:actuate="onLoad" id="linearGradient1" xlink:show="other" spreadMethod="pad">
<stop stop-opacity="1" stop-color="white" offset="0%"/>
<stop stop-opacity="1" stop-color="white" offset="100%"/>
</linearGradient>
<linearGradient x1="25" x2="25" y1="170" gradientUnits="userSpaceOnUse" y2="205" xlink:type="simple" xlink:actuate="onLoad" id="linearGradient2" xlink:show="other" spreadMethod="pad">
<stop stop-opacity="1" stop-color="white" offset="0%"/>
<stop stop-opacity="1" stop-color="rgb(152,168,191)" offset="100%"/>
</linearGradient>
<linearGradient x1="30" x2="30" y1="75" gradientUnits="userSpaceOnUse" y2="111" xlink:type="simple" xlink:actuate="onLoad" id="linearGradient3" xlink:show="other" spreadMethod="pad">
<stop stop-opacity="1" stop-color="white" offset="0%"/>
<stop stop-opacity="1" stop-color="rgb(152,168,191)" offset="100%"/>
</linearGradient>
<linearGradient x1="180" x2="180" y1="130" gradientUnits="userSpaceOnUse" y2="166" xlink:type="simple" xlink:actuate="onLoad" id="linearGradient4" xlink:show="other" spreadMethod="pad">
<stop stop-opacity="1" stop-color="white" offset="0%"/>
<stop stop-opacity="1" stop-color="rgb(227,164,156)" offset="100%"/>
</linearGradient>
<linearGradient x1="180" x2="180" y1="195" gradientUnits="userSpaceOnUse" y2="231" xlink:type="simple" xlink:actuate="onLoad" id="linearGradient5" xlink:show="other" spreadMethod="pad">
<stop stop-opacity="1" stop-color="white" offset="0%"/>
<stop stop-opacity="1" stop-color="rgb(227,164,156)" offset="100%"/>
</linearGradient>
<linearGradient x1="190" x2="190" y1="305" gradientUnits="userSpaceOnUse" y2="341" xlink:type="simple" xlink:actuate="onLoad" id="linearGradient6" xlink:show="other" spreadMethod="pad">
<stop stop-opacity="1" stop-color="white" offset="0%"/>
<stop stop-opacity="1" stop-color="rgb(227,164,156)" offset="100%"/>
</linearGradient>
<linearGradient x1="445" x2="445" y1="112" gradientUnits="userSpaceOnUse" y2="531" xlink:type="simple" xlink:actuate="onLoad" id="linearGradient7" xlink:show="other" spreadMethod="pad">
<stop stop-opacity="1" stop-color="white" offset="0%"/>
<stop stop-opacity="1" stop-color="white" offset="100%"/>
</linearGradient>
<linearGradient x1="495" x2="495" y1="221" gradientUnits="userSpaceOnUse" y2="256" xlink:type="simple" xlink:actuate="onLoad" id="linearGradient8" xlink:show="other" spreadMethod="pad">
<stop stop-opacity="1" stop-color="white" offset="0%"/>
<stop stop-opacity="1" stop-color="rgb(237,201,122)" offset="100%"/>
</linearGradient>
<linearGradient x1="490" x2="490" y1="146" gradientUnits="userSpaceOnUse" y2="181" xlink:type="simple" xlink:actuate="onLoad" id="linearGradient9" xlink:show="other" spreadMethod="pad">
<stop stop-opacity="1" stop-color="white" offset="0%"/>
<stop stop-opacity="1" stop-color="rgb(237,201,122)" offset="100%"/>
</linearGradient>
<linearGradient x1="460" x2="460" y1="400" gradientUnits="userSpaceOnUse" y2="516" xlink:type="simple" xlink:actuate="onLoad" id="linearGradient10" xlink:show="other" spreadMethod="pad">
<stop stop-opacity="1" stop-color="rgb(255,255,204)" offset="0%"/>
<stop stop-opacity="1" stop-color="white" offset="100%"/>
</linearGradient>
<linearGradient x1="479" x2="479" y1="275" gradientUnits="userSpaceOnUse" y2="365" xlink:type="simple" xlink:actuate="onLoad" id="linearGradient11" xlink:show="other" spreadMethod="pad">
<stop stop-opacity="1" stop-color="rgb(255,255,204)" offset="0%"/>
<stop stop-opacity="1" stop-color="white" offset="100%"/>
</linearGradient>
<linearGradient x1="730" x2="730" y1="117" gradientUnits="userSpaceOnUse" y2="531" xlink:type="simple" xlink:actuate="onLoad" id="linearGradient12" xlink:show="other" spreadMethod="pad">
<stop stop-opacity="1" stop-color="white" offset="0%"/>
<stop stop-opacity="1" stop-color="white" offset="100%"/>
</linearGradient>
<linearGradient x1="775" x2="775" y1="150" gradientUnits="userSpaceOnUse" y2="186" xlink:type="simple" xlink:actuate="onLoad" id="linearGradient13" xlink:show="other" spreadMethod="pad">
<stop stop-opacity="1" stop-color="white" offset="0%"/>
<stop stop-opacity="1" stop-color="rgb(225,225,135)" offset="100%"/>
</linearGradient>
<linearGradient x1="775" x2="775" y1="285" gradientUnits="userSpaceOnUse" y2="321" xlink:type="simple" xlink:actuate="onLoad" id="linearGradient14" xlink:show="other" spreadMethod="pad">
<stop stop-opacity="1" stop-color="white" offset="0%"/>
<stop stop-opacity="1" stop-color="rgb(225,225,135)" offset="100%"/>
</linearGradient>
<linearGradient x1="770" x2="770" y1="225" gradientUnits="userSpaceOnUse" y2="261" xlink:type="simple" xlink:actuate="onLoad" id="linearGradient15" xlink:show="other" spreadMethod="pad">
<stop stop-opacity="1" stop-color="white" offset="0%"/>
<stop stop-opacity="1" stop-color="rgb(225,225,135)" offset="100%"/>
</linearGradient>
<linearGradient x1="740" x2="740" y1="435" gradientUnits="userSpaceOnUse" y2="516" xlink:type="simple" xlink:actuate="onLoad" id="linearGradient16" xlink:show="other" spreadMethod="pad">
<stop stop-opacity="1" stop-color="rgb(255,255,204)" offset="0%"/>
<stop stop-opacity="1" stop-color="white" offset="100%"/>
</linearGradient>
<linearGradient x1="230" x2="230" y1="255" gradientUnits="userSpaceOnUse" y2="291" xlink:type="simple" xlink:actuate="onLoad" id="linearGradient17" xlink:show="other" spreadMethod="pad">
<stop stop-opacity="1" stop-color="white" offset="0%"/>
<stop stop-opacity="1" stop-color="rgb(227,164,156)" offset="100%"/>
</linearGradient>
<linearGradient x1="180" x2="180" y1="80" gradientUnits="userSpaceOnUse" y2="116" xlink:type="simple" xlink:actuate="onLoad" id="linearGradient18" xlink:show="other" spreadMethod="pad">
<stop stop-opacity="1" stop-color="white" offset="0%"/>
<stop stop-opacity="1" stop-color="rgb(227,164,156)" offset="100%"/>
</linearGradient>
<linearGradient x1="25" x2="25" y1="370" gradientUnits="userSpaceOnUse" y2="416" xlink:type="simple" xlink:actuate="onLoad" id="linearGradient19" xlink:show="other" spreadMethod="pad">
<stop stop-opacity="1" stop-color="white" offset="0%"/>
<stop stop-opacity="1" stop-color="rgb(166,193,152)" offset="100%"/>
</linearGradient>
<linearGradient x1="25" x2="25" y1="430" gradientUnits="userSpaceOnUse" y2="530" xlink:type="simple" xlink:actuate="onLoad" id="linearGradient20" xlink:show="other" spreadMethod="pad">
<stop stop-opacity="1" stop-color="rgb(255,255,204)" offset="0%"/>
<stop stop-opacity="1" stop-color="white" offset="100%"/>
</linearGradient>
<clipPath clipPathUnits="userSpaceOnUse" id="clipPath1">
<path d="M9 9 L992 9 L992 557 L9 557 L9 9 Z"/>
</clipPath>
<clipPath clipPathUnits="userSpaceOnUse" id="clipPath2">
<path d="M19 14 L73 14 L73 32 L19 32 L19 14 Z"/>
</clipPath>
<clipPath clipPathUnits="userSpaceOnUse" id="clipPath3">
<path d="M19 31 L159 31 L159 49 L19 49 L19 31 Z"/>
</clipPath>
<clipPath clipPathUnits="userSpaceOnUse" id="clipPath4">
<path d="M9 48 L992 48 L992 557 L9 557 L9 48 Z"/>
</clipPath>
<clipPath clipPathUnits="userSpaceOnUse" id="clipPath5">
<path d="M24 169 L136 169 L136 206 L24 206 L24 169 Z"/>
</clipPath>
<clipPath clipPathUnits="userSpaceOnUse" id="clipPath6">
<path d="M27 172 L136 172 L136 189 L27 189 L27 172 Z"/>
</clipPath>
<clipPath clipPathUnits="userSpaceOnUse" id="clipPath7">
<path d="M63 188 L102 188 L102 205 L63 205 L63 188 Z"/>
</clipPath>
<clipPath clipPathUnits="userSpaceOnUse" id="clipPath8">
<path d="M29 74 L128 74 L128 112 L29 112 L29 74 Z"/>
</clipPath>
<clipPath clipPathUnits="userSpaceOnUse" id="clipPath9">
<path d="M32 77 L128 77 L128 94 L32 94 L32 77 Z"/>
</clipPath>
<clipPath clipPathUnits="userSpaceOnUse" id="clipPath10">
<path d="M57 93 L105 93 L105 110 L57 110 L57 93 Z"/>
</clipPath>
<clipPath clipPathUnits="userSpaceOnUse" id="clipPath11">
<path d="M29 109 L128 109 L128 112 L29 112 L29 109 Z"/>
</clipPath>
<clipPath clipPathUnits="userSpaceOnUse" id="clipPath12">
<path d="M179 129 L332 129 L332 167 L179 167 L179 129 Z"/>
</clipPath>
<clipPath clipPathUnits="userSpaceOnUse" id="clipPath13">
<path d="M182 132 L332 132 L332 149 L182 149 L182 132 Z"/>
</clipPath>
<clipPath clipPathUnits="userSpaceOnUse" id="clipPath14">
<path d="M203 148 L313 148 L313 165 L203 165 L203 148 Z"/>
</clipPath>
<clipPath clipPathUnits="userSpaceOnUse" id="clipPath15">
<path d="M179 164 L332 164 L332 167 L179 167 L179 164 Z"/>
</clipPath>
<clipPath clipPathUnits="userSpaceOnUse" id="clipPath16">
<path d="M179 194 L332 194 L332 232 L179 232 L179 194 Z"/>
</clipPath>
<clipPath clipPathUnits="userSpaceOnUse" id="clipPath17">
<path d="M182 197 L332 197 L332 214 L182 214 L182 197 Z"/>
</clipPath>
<clipPath clipPathUnits="userSpaceOnUse" id="clipPath18">
<path d="M201 213 L316 213 L316 230 L201 230 L201 213 Z"/>
</clipPath>
<clipPath clipPathUnits="userSpaceOnUse" id="clipPath19">
<path d="M179 229 L332 229 L332 232 L179 232 L179 229 Z"/>
</clipPath>
<clipPath clipPathUnits="userSpaceOnUse" id="clipPath20">
<path d="M189 304 L322 304 L322 342 L189 342 L189 304 Z"/>
</clipPath>
<clipPath clipPathUnits="userSpaceOnUse" id="clipPath21">
<path d="M192 307 L322 307 L322 324 L192 324 L192 307 Z"/>
</clipPath>
<clipPath clipPathUnits="userSpaceOnUse" id="clipPath22">
<path d="M202 323 L314 323 L314 340 L202 340 L202 323 Z"/>
</clipPath>
<clipPath clipPathUnits="userSpaceOnUse" id="clipPath23">
<path d="M189 339 L322 339 L322 342 L189 342 L189 339 Z"/>
</clipPath>
<clipPath clipPathUnits="userSpaceOnUse" id="clipPath24">
<path d="M444 74 L703 74 L703 532 L444 532 L444 74 Z"/>
</clipPath>
<clipPath clipPathUnits="userSpaceOnUse" id="clipPath25">
<path d="M454 79 L590 79 L590 96 L454 96 L454 79 Z"/>
</clipPath>
<clipPath clipPathUnits="userSpaceOnUse" id="clipPath26">
<path d="M454 95 L512 95 L512 112 L454 112 L454 95 Z"/>
</clipPath>
<clipPath clipPathUnits="userSpaceOnUse" id="clipPath27">
<path d="M444 111 L703 111 L703 532 L444 532 L444 111 Z"/>
</clipPath>
<clipPath clipPathUnits="userSpaceOnUse" id="clipPath28">
<path d="M494 220 L593 220 L593 257 L494 257 L494 220 Z"/>
</clipPath>
<clipPath clipPathUnits="userSpaceOnUse" id="clipPath29">
<path d="M497 223 L593 223 L593 240 L497 240 L497 223 Z"/>
</clipPath>
<clipPath clipPathUnits="userSpaceOnUse" id="clipPath30">
<path d="M513 239 L580 239 L580 256 L513 256 L513 239 Z"/>
</clipPath>
<clipPath clipPathUnits="userSpaceOnUse" id="clipPath31">
<path d="M489 145 L610 145 L610 182 L489 182 L489 145 Z"/>
</clipPath>
<clipPath clipPathUnits="userSpaceOnUse" id="clipPath32">
<path d="M492 148 L610 148 L610 165 L492 165 L492 148 Z"/>
</clipPath>
<clipPath clipPathUnits="userSpaceOnUse" id="clipPath33">
<path d="M519 164 L586 164 L586 181 L519 181 L519 164 Z"/>
</clipPath>
<clipPath clipPathUnits="userSpaceOnUse" id="clipPath34">
<path d="M460 400 L460 515 L680 515 L680 412 L668 400 Z"/>
</clipPath>
<clipPath clipPathUnits="userSpaceOnUse" id="clipPath35">
<path d="M465 405 L648 405 L648 511 L465 511 L465 405 Z"/>
</clipPath>
<clipPath clipPathUnits="userSpaceOnUse" id="clipPath36">
<path d="M459 399 L682 399 L682 517 L459 517 L459 399 Z"/>
</clipPath>
<clipPath clipPathUnits="userSpaceOnUse" id="clipPath37">
<path d="M479 275 L479 364 L679 364 L679 287 L667 275 Z"/>
</clipPath>
<clipPath clipPathUnits="userSpaceOnUse" id="clipPath38">
<path d="M484 280 L660 280 L660 360 L484 360 L484 280 Z"/>
</clipPath>
<clipPath clipPathUnits="userSpaceOnUse" id="clipPath39">
<path d="M478 274 L681 274 L681 366 L478 366 L478 274 Z"/>
</clipPath>
<clipPath clipPathUnits="userSpaceOnUse" id="clipPath40">
<path d="M729 79 L957 79 L957 532 L729 532 L729 79 Z"/>
</clipPath>
<clipPath clipPathUnits="userSpaceOnUse" id="clipPath41">
<path d="M739 84 L875 84 L875 101 L739 101 L739 84 Z"/>
</clipPath>
<clipPath clipPathUnits="userSpaceOnUse" id="clipPath42">
<path d="M739 100 L773 100 L773 117 L739 117 L739 100 Z"/>
</clipPath>
<clipPath clipPathUnits="userSpaceOnUse" id="clipPath43">
<path d="M729 116 L957 116 L957 532 L729 532 L729 116 Z"/>
</clipPath>
<clipPath clipPathUnits="userSpaceOnUse" id="clipPath44">
<path d="M774 149 L942 149 L942 187 L774 187 L774 149 Z"/>
</clipPath>
<clipPath clipPathUnits="userSpaceOnUse" id="clipPath45">
<path d="M777 152 L942 152 L942 169 L777 169 L777 152 Z"/>
</clipPath>
<clipPath clipPathUnits="userSpaceOnUse" id="clipPath46">
<path d="M794 168 L927 168 L927 185 L794 185 L794 168 Z"/>
</clipPath>
<clipPath clipPathUnits="userSpaceOnUse" id="clipPath47">
<path d="M774 184 L942 184 L942 187 L774 187 L774 184 Z"/>
</clipPath>
<clipPath clipPathUnits="userSpaceOnUse" id="clipPath48">
<path d="M774 284 L937 284 L937 322 L774 322 L774 284 Z"/>
</clipPath>
<clipPath clipPathUnits="userSpaceOnUse" id="clipPath49">
<path d="M777 287 L937 287 L937 304 L777 304 L777 287 Z"/>
</clipPath>
<clipPath clipPathUnits="userSpaceOnUse" id="clipPath50">
<path d="M786 303 L931 303 L931 320 L786 320 L786 303 Z"/>
</clipPath>
<clipPath clipPathUnits="userSpaceOnUse" id="clipPath51">
<path d="M774 319 L937 319 L937 322 L774 322 L774 319 Z"/>
</clipPath>
<clipPath clipPathUnits="userSpaceOnUse" id="clipPath52">
<path d="M769 224 L912 224 L912 262 L769 262 L769 224 Z"/>
</clipPath>
<clipPath clipPathUnits="userSpaceOnUse" id="clipPath53">
<path d="M772 227 L912 227 L912 244 L772 244 L772 227 Z"/>
</clipPath>
<clipPath clipPathUnits="userSpaceOnUse" id="clipPath54">
<path d="M823 243 L863 243 L863 260 L823 260 L823 243 Z"/>
</clipPath>
<clipPath clipPathUnits="userSpaceOnUse" id="clipPath55">
<path d="M769 259 L912 259 L912 262 L769 262 L769 259 Z"/>
</clipPath>
<clipPath clipPathUnits="userSpaceOnUse" id="clipPath56">
<path d="M740 435 L740 515 L935 515 L935 447 L923 435 Z"/>
</clipPath>
<clipPath clipPathUnits="userSpaceOnUse" id="clipPath57">
<path d="M745 440 L912 440 L912 494 L745 494 L745 440 Z"/>
</clipPath>
<clipPath clipPathUnits="userSpaceOnUse" id="clipPath58">
<path d="M739 434 L937 434 L937 517 L739 517 L739 434 Z"/>
</clipPath>
<clipPath clipPathUnits="userSpaceOnUse" id="clipPath59">
<path d="M229 254 L332 254 L332 292 L229 292 L229 254 Z"/>
</clipPath>
<clipPath clipPathUnits="userSpaceOnUse" id="clipPath60">
<path d="M232 257 L332 257 L332 274 L232 274 L232 257 Z"/>
</clipPath>
<clipPath clipPathUnits="userSpaceOnUse" id="clipPath61">
<path d="M246 273 L320 273 L320 290 L246 290 L246 273 Z"/>
</clipPath>
<clipPath clipPathUnits="userSpaceOnUse" id="clipPath62">
<path d="M229 289 L332 289 L332 292 L229 292 L229 289 Z"/>
</clipPath>
<clipPath clipPathUnits="userSpaceOnUse" id="clipPath63">
<path d="M179 79 L332 79 L332 117 L179 117 L179 79 Z"/>
</clipPath>
<clipPath clipPathUnits="userSpaceOnUse" id="clipPath64">
<path d="M182 82 L332 82 L332 99 L182 99 L182 82 Z"/>
</clipPath>
<clipPath clipPathUnits="userSpaceOnUse" id="clipPath65">
<path d="M205 98 L312 98 L312 115 L205 115 L205 98 Z"/>
</clipPath>
<clipPath clipPathUnits="userSpaceOnUse" id="clipPath66">
<path d="M179 114 L332 114 L332 117 L179 117 L179 114 Z"/>
</clipPath>
<clipPath clipPathUnits="userSpaceOnUse" id="clipPath67">
<path d="M24 369 L157 369 L157 417 L24 417 L24 369 Z"/>
</clipPath>
<clipPath clipPathUnits="userSpaceOnUse" id="clipPath68">
<path d="M27 372 L157 372 L157 389 L27 389 L27 372 Z"/>
</clipPath>
<clipPath clipPathUnits="userSpaceOnUse" id="clipPath69">
<path d="M66 388 L121 388 L121 405 L66 405 L66 388 Z"/>
</clipPath>
<clipPath clipPathUnits="userSpaceOnUse" id="clipPath70">
<path d="M24 404 L157 404 L157 411 L24 411 L24 404 Z"/>
</clipPath>
<clipPath clipPathUnits="userSpaceOnUse" id="clipPath71">
<path d="M24 410 L157 410 L157 417 L24 417 L24 410 Z"/>
</clipPath>
<clipPath clipPathUnits="userSpaceOnUse" id="clipPath72">
<path d="M25 430 L25 529 L410 529 L410 442 L398 430 Z"/>
</clipPath>
<clipPath clipPathUnits="userSpaceOnUse" id="clipPath73">
<path d="M30 435 L368 435 L368 502 L30 502 L30 435 Z"/>
</clipPath>
<clipPath clipPathUnits="userSpaceOnUse" id="clipPath74">
<path d="M24 429 L412 429 L412 531 L24 531 L24 429 Z"/>
</clipPath>
<clipPath clipPathUnits="userSpaceOnUse" id="clipPath75">
<path d="M-1 -1 L1002 -1 L1002 567 L-1 567 L-1 -1 Z"/>
</clipPath>
<clipPath clipPathUnits="userSpaceOnUse" id="clipPath76">
<path d="M194 230 L207 230 L207 248 L194 248 L194 230 Z"/>
</clipPath>
<clipPath clipPathUnits="userSpaceOnUse" id="clipPath77">
<path d="M72 110 L85 110 L85 128 L72 128 L72 110 Z"/>
</clipPath>
<clipPath clipPathUnits="userSpaceOnUse" id="clipPath78">
<path d="M323 244 L342 244 L342 257 L323 257 L323 244 Z"/>
</clipPath>
<clipPath clipPathUnits="userSpaceOnUse" id="clipPath79">
<path d="M315 295 L334 295 L334 308 L315 308 L315 295 Z"/>
</clipPath>
<clipPath clipPathUnits="userSpaceOnUse" id="clipPath80">
<path d="M759 162 L777 162 L777 175 L759 175 L759 162 Z"/>
</clipPath>
<clipPath clipPathUnits="userSpaceOnUse" id="clipPath81">
<path d="M126 87 L144 87 L144 100 L126 100 L126 87 Z"/>
</clipPath>
<clipPath clipPathUnits="userSpaceOnUse" id="clipPath82">
<path d="M754 241 L772 241 L772 254 L754 254 L754 241 Z"/>
</clipPath>
<clipPath clipPathUnits="userSpaceOnUse" id="clipPath83">
<path d="M249 165 L262 165 L262 183 L249 183 L249 165 Z"/>
</clipPath>
<clipPath clipPathUnits="userSpaceOnUse" id="clipPath84">
<path d="M134 159 L153 159 L153 171 L134 171 L134 159 Z"/>
</clipPath>
<clipPath clipPathUnits="userSpaceOnUse" id="clipPath85">
<path d="M134 191 L153 191 L153 204 L134 204 L134 191 Z"/>
</clipPath>
<clipPath clipPathUnits="userSpaceOnUse" id="clipPath86">
<path d="M262 230 L275 230 L275 249 L262 249 L262 230 Z"/>
</clipPath>
</defs>
<g font-size="15" fill="white" font-family="'Ubuntu'" stroke-linejoin="round" stroke="white" stroke-width="0" stroke-miterlimit="0">
<rect x="10" y="10" clip-path="url(#clipPath1)" width="158" height="39" stroke="none"/>
<rect x="10" y="49" clip-path="url(#clipPath1)" fill="url(#linearGradient1)" width="981" height="507" stroke="none"/>
</g>
<g stroke-width="1.1" font-size="15" font-family="'Ubuntu'" stroke-linecap="butt">
<rect x="10" y="10" clip-path="url(#clipPath1)" fill="none" width="158" height="39"/>
<text font-size="13" x="20" y="28" clip-path="url(#clipPath2)" stroke="none" xml:space="preserve">«pyegg»</text>
<text font-size="13" x="20" y="45" clip-path="url(#clipPath3)" stroke="none" xml:space="preserve">agx.generator.example</text>
<rect x="10" y="49" clip-path="url(#clipPath4)" fill="none" width="980" height="506"/>
<rect x="26" y="171" clip-path="url(#clipPath5)" fill="white" width="108" height="33" stroke="none"/>
<rect x="25" y="170" clip-path="url(#clipPath5)" fill="url(#linearGradient2)" width="110" height="35" stroke="none"/>
<text font-size="12" x="34" y="185" clip-path="url(#clipPath6)" stroke="none" xml:space="preserve">«transform, stub»</text>
<text font-size="12" x="64" y="201" clip-path="url(#clipPath7)" stroke="none" xml:space="preserve">uml2fs</text>
<rect x="25" y="170" clip-path="url(#clipPath5)" fill="none" width="109" height="34"/>
<rect x="31" y="76" clip-path="url(#clipPath8)" fill="white" width="95" height="34" stroke="none"/>
<rect x="30" y="75" clip-path="url(#clipPath8)" fill="url(#linearGradient3)" width="97" height="36" stroke="none"/>
<text font-size="12" x="33" y="90" clip-path="url(#clipPath9)" stroke="none" xml:space="preserve">«transform, stub»</text>
<text font-size="12" x="58" y="106" clip-path="url(#clipPath10)" stroke="none" xml:space="preserve">xmi2uml</text>
<line clip-path="url(#clipPath11)" fill="none" x1="30" x2="127" y1="110" y2="110"/>
<rect x="30" y="75" clip-path="url(#clipPath8)" fill="none" width="96" height="35"/>
<rect x="181" y="131" clip-path="url(#clipPath12)" fill="white" width="149" height="34" stroke="none"/>
<rect x="180" y="130" clip-path="url(#clipPath12)" fill="url(#linearGradient4)" width="151" height="36" stroke="none"/>
<text font-size="12" x="210" y="145" clip-path="url(#clipPath13)" stroke="none" xml:space="preserve">«generator, stub»</text>
<text font-size="12" x="204" y="161" clip-path="url(#clipPath14)" stroke="none" xml:space="preserve">hierarchygenerator</text>
<line clip-path="url(#clipPath15)" fill="none" x1="180" x2="331" y1="165" y2="165"/>
<rect x="180" y="130" clip-path="url(#clipPath12)" fill="none" width="150" height="35"/>
<rect x="181" y="196" clip-path="url(#clipPath16)" fill="white" width="149" height="34" stroke="none"/>
<rect x="180" y="195" clip-path="url(#clipPath16)" fill="url(#linearGradient5)" width="151" height="36" stroke="none"/>
<text font-size="12" x="210" y="210" clip-path="url(#clipPath17)" stroke="none" xml:space="preserve">«generator, stub»</text>
<text font-size="12" x="202" y="226" clip-path="url(#clipPath18)" stroke="none" xml:space="preserve">connectorgenerator</text>
<line clip-path="url(#clipPath19)" fill="none" x1="180" x2="331" y1="230" y2="230"/>
<rect x="180" y="195" clip-path="url(#clipPath16)" fill="none" width="150" height="35"/>
<rect x="191" y="306" clip-path="url(#clipPath20)" fill="white" width="129" height="34" stroke="none"/>
<rect x="190" y="305" clip-path="url(#clipPath20)" fill="url(#linearGradient6)" width="131" height="36" stroke="none"/>
<text font-size="12" x="210" y="320" clip-path="url(#clipPath21)" stroke="none" xml:space="preserve">«generator, stub»</text>
<text font-size="12" x="203" y="336" clip-path="url(#clipPath22)" stroke="none" xml:space="preserve">semanticsgenerator</text>
<line clip-path="url(#clipPath23)" fill="none" x1="190" x2="321" y1="340" y2="340"/>
<rect x="190" y="305" clip-path="url(#clipPath20)" fill="none" width="130" height="35"/>
<rect x="445" y="75" clip-path="url(#clipPath24)" fill="white" width="154" height="37" stroke="none"/>
<rect x="445" y="112" clip-path="url(#clipPath24)" fill="url(#linearGradient7)" width="257" height="419" stroke="none"/>
<rect x="445" y="75" clip-path="url(#clipPath24)" fill="none" width="154" height="37"/>
<text font-size="12" x="455" y="92" clip-path="url(#clipPath25)" stroke="none" xml:space="preserve">«pymodule, autoimport»</text>
<text font-size="12" x="455" y="108" clip-path="url(#clipPath26)" stroke="none" xml:space="preserve">generator</text>
<rect x="445" y="112" clip-path="url(#clipPath27)" fill="none" width="256" height="418"/>
<rect x="496" y="222" clip-path="url(#clipPath28)" fill="white" width="95" height="33" stroke="none"/>
<rect x="495" y="221" clip-path="url(#clipPath28)" fill="url(#linearGradient8)" width="97" height="35" stroke="none"/>
<text font-size="12" x="519" y="236" clip-path="url(#clipPath29)" stroke="none" xml:space="preserve">«handler»</text>
<text font-size="12" x="514" y="252" clip-path="url(#clipPath30)" stroke="none" xml:space="preserve">myhandler2</text>
<rect x="495" y="221" clip-path="url(#clipPath28)" fill="none" width="96" height="34"/>
<rect x="491" y="147" clip-path="url(#clipPath31)" fill="white" width="117" height="33" stroke="none"/>
<rect x="490" y="146" clip-path="url(#clipPath31)" fill="url(#linearGradient9)" width="119" height="35" stroke="none"/>
<text font-size="12" x="525" y="161" clip-path="url(#clipPath32)" stroke="none" xml:space="preserve">«handler»</text>
<text font-size="12" x="520" y="177" clip-path="url(#clipPath33)" stroke="none" xml:space="preserve">myhandler1</text>
<rect x="490" y="146" clip-path="url(#clipPath31)" fill="none" width="118" height="34"/>
</g>
<g fill="url(#linearGradient10)" stroke-width="1.1" stroke-linecap="butt" stroke="url(#linearGradient10)">
<rect x="460" y="400" clip-path="url(#clipPath34)" width="221" height="116" stroke="none"/>
<text font-size="11" x="466" y="417" clip-path="url(#clipPath35)" fill="black" stroke="none" xml:space="preserve">Step 2b</text>
<text font-size="11" x="466" y="430" clip-path="url(#clipPath35)" fill="black" stroke="none" xml:space="preserve">======</text>
<text font-size="11" x="466" y="443" clip-path="url(#clipPath35)" fill="black" stroke="none" xml:space="preserve">Replace this comment with a Class for</text>
<text font-size="11" x="466" y="456" clip-path="url(#clipPath35)" fill="black" stroke="none" xml:space="preserve">your custom handler.</text>
<text font-size="11" x="466" y="469" clip-path="url(#clipPath35)" fill="black" stroke="none" xml:space="preserve">Connect (with a dependency) to </text>
<text font-size="11" x="466" y="482" clip-path="url(#clipPath35)" fill="black" stroke="none" xml:space="preserve">- your own scope Class</text>
<text font-size="11" x="466" y="495" clip-path="url(#clipPath35)" fill="black" stroke="none" xml:space="preserve">- any generator (purple) on the left</text>
<text font-size="11" x="466" y="508" clip-path="url(#clipPath35)" fill="black" stroke="none" xml:space="preserve"/>
<line clip-path="url(#clipPath36)" fill="none" x1="460" x2="668" y1="400" y2="400" stroke="black"/>
<line clip-path="url(#clipPath36)" fill="none" x1="668" x2="680" y1="400" y2="412" stroke="black"/>
<line clip-path="url(#clipPath36)" fill="none" x1="680" x2="680" y1="412" y2="515" stroke="black"/>
<line clip-path="url(#clipPath36)" fill="none" x1="680" x2="460" y1="515" y2="515" stroke="black"/>
<line clip-path="url(#clipPath36)" fill="none" x1="460" x2="460" y1="515" y2="400" stroke="black"/>
<line clip-path="url(#clipPath36)" fill="none" x1="460" x2="460" y1="400" y2="400" stroke="black"/>
<line clip-path="url(#clipPath36)" fill="none" x1="668" x2="668" y1="400" y2="412" stroke="black"/>
<line clip-path="url(#clipPath36)" fill="none" x1="668" x2="681" y1="412" y2="412" stroke="black"/>
<rect x="479" y="275" clip-path="url(#clipPath37)" fill="url(#linearGradient11)" width="201" height="90" stroke="none"/>
<text font-size="11" x="485" y="292" clip-path="url(#clipPath38)" fill="black" stroke="none" xml:space="preserve">The two handlers above and the</text>
<text font-size="11" x="485" y="305" clip-path="url(#clipPath38)" fill="black" stroke="none" xml:space="preserve">scope classes to the right can be</text>
<text font-size="11" x="485" y="318" clip-path="url(#clipPath38)" fill="black" stroke="none" xml:space="preserve">removed from the model or changed</text>
<text font-size="11" x="485" y="331" clip-path="url(#clipPath38)" fill="black" stroke="none" xml:space="preserve">for your purpose. They serve as</text>
<text font-size="11" x="485" y="344" clip-path="url(#clipPath38)" fill="black" stroke="none" xml:space="preserve">examples.</text>
<text font-size="11" x="485" y="357" clip-path="url(#clipPath38)" fill="black" stroke="none" xml:space="preserve"/>
<line clip-path="url(#clipPath39)" fill="none" x1="479" x2="667" y1="275" y2="275" stroke="black"/>
<line clip-path="url(#clipPath39)" fill="none" x1="667" x2="679" y1="275" y2="287" stroke="black"/>
<line clip-path="url(#clipPath39)" fill="none" x1="679" x2="679" y1="287" y2="364" stroke="black"/>
<line clip-path="url(#clipPath39)" fill="none" x1="679" x2="479" y1="364" y2="364" stroke="black"/>
<line clip-path="url(#clipPath39)" fill="none" x1="479" x2="479" y1="364" y2="275" stroke="black"/>
<line clip-path="url(#clipPath39)" fill="none" x1="479" x2="479" y1="275" y2="275" stroke="black"/>
<line clip-path="url(#clipPath39)" fill="none" x1="667" x2="667" y1="275" y2="287" stroke="black"/>
<line clip-path="url(#clipPath39)" fill="none" x1="667" x2="680" y1="287" y2="287" stroke="black"/>
</g>
<g stroke-width="1.1" font-size="15" font-family="'Ubuntu'" stroke-linecap="butt">
<line clip-path="url(#clipPath27)" fill="none" x1="445" x2="702" y1="112" y2="112"/>
<rect x="445" y="75" clip-path="url(#clipPath24)" fill="none" width="154" height="37" stroke-width="0.1"/>
<rect x="730" y="80" clip-path="url(#clipPath40)" fill="white" width="154" height="37" stroke="none" stroke-width="0.1"/>
<rect x="730" y="117" clip-path="url(#clipPath40)" fill="url(#linearGradient12)" width="226" height="414" stroke="none" stroke-width="0.1"/>
<rect x="730" y="80" clip-path="url(#clipPath40)" fill="none" width="154" height="37"/>
<text font-size="12" x="740" y="97" clip-path="url(#clipPath41)" stroke="none" xml:space="preserve">«pymodule, autoimport»</text>
<text font-size="12" x="740" y="113" clip-path="url(#clipPath42)" stroke="none" xml:space="preserve">scope</text>
<rect x="730" y="117" clip-path="url(#clipPath43)" fill="none" width="225" height="413"/>
<rect x="776" y="151" clip-path="url(#clipPath44)" fill="white" width="164" height="34" stroke="none"/>
<rect x="775" y="150" clip-path="url(#clipPath44)" fill="url(#linearGradient13)" width="166" height="36" stroke="none"/>
<text font-size="12" x="823" y="165" clip-path="url(#clipPath45)" stroke="none" xml:space="preserve">«class_scope»</text>
<text font-size="12" x="795" y="181" clip-path="url(#clipPath46)" stroke="none" xml:space="preserve">PackagesAndEggsScope</text>
<line clip-path="url(#clipPath47)" fill="none" x1="775" x2="941" y1="185" y2="185"/>
<rect x="775" y="150" clip-path="url(#clipPath44)" fill="none" width="165" height="35"/>
<rect x="776" y="286" clip-path="url(#clipPath48)" fill="white" width="159" height="34" stroke="none"/>
<rect x="775" y="285" clip-path="url(#clipPath48)" fill="url(#linearGradient14)" width="161" height="36" stroke="none"/>
<text font-size="12" x="816" y="300" clip-path="url(#clipPath49)" stroke="none" xml:space="preserve">«simple_scope»</text>
<text font-size="12" x="787" y="316" clip-path="url(#clipPath50)" stroke="none" xml:space="preserve">ClassesAndPackagesScope</text>
<line clip-path="url(#clipPath51)" fill="none" x1="775" x2="936" y1="320" y2="320"/>
<rect x="775" y="285" clip-path="url(#clipPath48)" fill="none" width="160" height="35"/>
<rect x="771" y="226" clip-path="url(#clipPath52)" fill="white" width="139" height="34" stroke="none"/>
<rect x="770" y="225" clip-path="url(#clipPath52)" fill="url(#linearGradient15)" width="141" height="36" stroke="none"/>
<text font-size="12" x="786" y="240" clip-path="url(#clipPath53)" stroke="none" xml:space="preserve">«simple_scope, stub»</text>
<text font-size="12" x="824" y="256" clip-path="url(#clipPath54)" stroke="none" xml:space="preserve">pyclass</text>
<line clip-path="url(#clipPath55)" fill="none" x1="770" x2="911" y1="260" y2="260"/>
<rect x="770" y="225" clip-path="url(#clipPath52)" fill="none" width="140" height="35"/>
</g>
<g fill="url(#linearGradient16)" stroke-width="1.1" stroke-linecap="butt" stroke="url(#linearGradient16)">
<rect x="740" y="435" clip-path="url(#clipPath56)" width="196" height="81" stroke="none"/>
<text font-size="11" x="746" y="452" clip-path="url(#clipPath57)" fill="black" stroke="none" xml:space="preserve">Step 2a</text>
<text font-size="11" x="746" y="465" clip-path="url(#clipPath57)" fill="black" stroke="none" xml:space="preserve">======</text>
<text font-size="11" x="746" y="478" clip-path="url(#clipPath57)" fill="black" stroke="none" xml:space="preserve">Replace this comment with a Class</text>
<text font-size="11" x="746" y="491" clip-path="url(#clipPath57)" fill="black" stroke="none" xml:space="preserve">for the custom scope.</text>
<line clip-path="url(#clipPath58)" fill="none" x1="740" x2="923" y1="435" y2="435" stroke="black"/>
<line clip-path="url(#clipPath58)" fill="none" x1="923" x2="935" y1="435" y2="447" stroke="black"/>
<line clip-path="url(#clipPath58)" fill="none" x1="935" x2="935" y1="447" y2="515" stroke="black"/>
<line clip-path="url(#clipPath58)" fill="none" x1="935" x2="740" y1="515" y2="515" stroke="black"/>
<line clip-path="url(#clipPath58)" fill="none" x1="740" x2="740" y1="515" y2="435" stroke="black"/>
<line clip-path="url(#clipPath58)" fill="none" x1="740" x2="740" y1="435" y2="435" stroke="black"/>
<line clip-path="url(#clipPath58)" fill="none" x1="923" x2="923" y1="435" y2="447" stroke="black"/>
<line clip-path="url(#clipPath58)" fill="none" x1="923" x2="936" y1="447" y2="447" stroke="black"/>
</g>
<g stroke-width="1.1" font-size="15" font-family="'Ubuntu'" stroke-linecap="butt">
<line clip-path="url(#clipPath43)" fill="none" x1="730" x2="956" y1="117" y2="117"/>
<rect x="730" y="80" clip-path="url(#clipPath40)" fill="none" width="154" height="37" stroke-width="0.1"/>
<rect x="231" y="256" clip-path="url(#clipPath59)" fill="white" width="99" height="34" stroke="none" stroke-width="0.1"/>
<rect x="230" y="255" clip-path="url(#clipPath59)" fill="url(#linearGradient17)" width="101" height="36" stroke="none" stroke-width="0.1"/>
<text font-size="12" x="249" y="270" clip-path="url(#clipPath60)" stroke="none" stroke-width="0.1" xml:space="preserve">«generator»</text>
<text font-size="12" x="247" y="286" clip-path="url(#clipPath61)" stroke="none" stroke-width="0.1" xml:space="preserve">mygenerator</text>
<line clip-path="url(#clipPath62)" fill="none" x1="230" x2="331" y1="290" y2="290"/>
<rect x="230" y="255" clip-path="url(#clipPath59)" fill="none" width="100" height="35"/>
<rect x="181" y="81" clip-path="url(#clipPath63)" fill="white" width="149" height="34" stroke="none"/>
<rect x="180" y="80" clip-path="url(#clipPath63)" fill="url(#linearGradient18)" width="151" height="36" stroke="none"/>
<text font-size="12" x="224" y="95" clip-path="url(#clipPath64)" stroke="none" xml:space="preserve">«generator»</text>
<text font-size="12" x="206" y="111" clip-path="url(#clipPath65)" stroke="none" xml:space="preserve">someumlgenerator</text>
<line clip-path="url(#clipPath66)" fill="none" x1="180" x2="331" y1="115" y2="115"/>
<rect x="180" y="80" clip-path="url(#clipPath63)" fill="none" width="150" height="35"/>
<rect x="26" y="371" clip-path="url(#clipPath67)" fill="white" width="129" height="44" stroke="none"/>
<rect x="25" y="370" clip-path="url(#clipPath67)" fill="url(#linearGradient19)" width="131" height="46" stroke="none"/>
<text font-size="12" x="69" y="385" clip-path="url(#clipPath68)" stroke="none" xml:space="preserve">«profile»</text>
<text font-size="12" x="67" y="401" clip-path="url(#clipPath69)" stroke="none" xml:space="preserve">MyProfile</text>
<line clip-path="url(#clipPath70)" fill="none" x1="25" x2="156" y1="405" y2="405"/>
<line clip-path="url(#clipPath71)" fill="none" x1="25" x2="156" y1="411" y2="411"/>
<rect x="25" y="370" clip-path="url(#clipPath67)" fill="none" width="130" height="45"/>
</g>
<g fill="url(#linearGradient20)" stroke-width="1.1" stroke-linecap="butt" stroke="url(#linearGradient20)">
<rect x="25" y="430" clip-path="url(#clipPath72)" width="386" height="100" stroke="none"/>
<text font-size="11" x="31" y="447" clip-path="url(#clipPath73)" fill="black" stroke="none" xml:space="preserve">Step 1</text>
<text font-size="11" x="31" y="460" clip-path="url(#clipPath73)" fill="black" stroke="none" xml:space="preserve">=====</text>
<text font-size="11" x="31" y="473" clip-path="url(#clipPath73)" fill="black" stroke="none" xml:space="preserve">- change "MyProfile" to your profile name ("Foo") and </text>
<text font-size="11" x="31" y="486" clip-path="url(#clipPath73)" fill="black" stroke="none" xml:space="preserve">- (optionally) edit the tagged value "name" ("foo" as in "foo.profile.uml")</text>
<text font-size="11" x="31" y="499" clip-path="url(#clipPath73)" fill="black" stroke="none" xml:space="preserve">Class name is the default for "name", but can be overriden.</text>
<line clip-path="url(#clipPath74)" fill="none" x1="25" x2="398" y1="430" y2="430" stroke="black"/>
<line clip-path="url(#clipPath74)" fill="none" x1="398" x2="410" y1="430" y2="442" stroke="black"/>
<line clip-path="url(#clipPath74)" fill="none" x1="410" x2="410" y1="442" y2="529" stroke="black"/>
<line clip-path="url(#clipPath74)" fill="none" x1="410" x2="25" y1="529" y2="529" stroke="black"/>
<line clip-path="url(#clipPath74)" fill="none" x1="25" x2="25" y1="529" y2="430" stroke="black"/>
<line clip-path="url(#clipPath74)" fill="none" x1="25" x2="25" y1="430" y2="430" stroke="black"/>
<line clip-path="url(#clipPath74)" fill="none" x1="398" x2="398" y1="430" y2="442" stroke="black"/>
<line clip-path="url(#clipPath74)" fill="none" x1="398" x2="411" y1="442" y2="442" stroke="black"/>
</g>
<g stroke-width="1.1" font-size="15" font-family="'Ubuntu'" stroke-linecap="butt">
<line clip-path="url(#clipPath4)" fill="none" x1="10" x2="991" y1="49" y2="49"/>
<rect x="10" y="10" clip-path="url(#clipPath1)" fill="none" width="158" height="39" stroke-width="0.1"/>
<line clip-path="url(#clipPath75)" fill="none" text-rendering="optimizeLegibility" x1="200" x2="200" y1="305" y2="231" stroke-dasharray="5,5,5,5,5,5,5,5,5,5"/>
<line clip-path="url(#clipPath76)" fill="none" text-rendering="optimizeLegibility" x1="205" x2="200" y1="246" y2="231"/>
<line clip-path="url(#clipPath76)" fill="none" text-rendering="optimizeLegibility" x1="200" x2="195" y1="231" y2="246"/>
<line clip-path="url(#clipPath75)" fill="none" text-rendering="optimizeLegibility" x1="78" x2="78" y1="170" y2="111" stroke-dasharray="5,5,5,5,5,5,5,5,5,5"/>
<line clip-path="url(#clipPath77)" fill="none" text-rendering="optimizeLegibility" x1="83" x2="78" y1="126" y2="111"/>
<line clip-path="url(#clipPath77)" fill="none" text-rendering="optimizeLegibility" x1="78" x2="73" y1="111" y2="126"/>
<line clip-path="url(#clipPath75)" fill="none" text-rendering="optimizeLegibility" x1="506" x2="324" y1="181" y2="255" stroke-dasharray="5,5,5,5,5,5,5,5,5,5"/>
<line clip-path="url(#clipPath78)" fill="none" text-rendering="optimizeLegibility" x1="336" x2="324" y1="245" y2="255"/>
<line clip-path="url(#clipPath78)" fill="none" text-rendering="optimizeLegibility" x1="324" x2="340" y1="255" y2="254"/>
<line clip-path="url(#clipPath75)" fill="none" text-rendering="optimizeLegibility" x1="495" x2="316" y1="252" y2="305" stroke-dasharray="5,5,5,5,5,5,5,5,5,5"/>
<line clip-path="url(#clipPath79)" fill="none" text-rendering="optimizeLegibility" x1="329" x2="316" y1="296" y2="305"/>
<line clip-path="url(#clipPath79)" fill="none" text-rendering="optimizeLegibility" x1="316" x2="332" y1="305" y2="306"/>
<line clip-path="url(#clipPath75)" fill="none" text-rendering="optimizeLegibility" x1="609" x2="775" y1="168" y2="168" stroke-dasharray="5,5,5,5,5,5,5,5,5,5"/>
<line clip-path="url(#clipPath80)" fill="none" text-rendering="optimizeLegibility" x1="760" x2="775" y1="173" y2="168"/>
<line clip-path="url(#clipPath80)" fill="none" text-rendering="optimizeLegibility" x1="775" x2="760" y1="168" y2="163"/>
<line clip-path="url(#clipPath75)" fill="none" text-rendering="optimizeLegibility" x1="180" x2="127" y1="93" y2="93" stroke-dasharray="5,5,5,5,5,5,5,5,5,5"/>
<line clip-path="url(#clipPath81)" fill="none" text-rendering="optimizeLegibility" x1="142" x2="127" y1="88" y2="93"/>
<line clip-path="url(#clipPath81)" fill="none" text-rendering="optimizeLegibility" x1="127" x2="142" y1="93" y2="98"/>
<line clip-path="url(#clipPath75)" fill="none" text-rendering="optimizeLegibility" x1="592" x2="770" y1="247" y2="247" stroke-dasharray="5,5,5,5,5,5,5,5,5,5"/>
<line clip-path="url(#clipPath82)" fill="none" text-rendering="optimizeLegibility" x1="755" x2="770" y1="252" y2="247"/>
<line clip-path="url(#clipPath82)" fill="none" text-rendering="optimizeLegibility" x1="770" x2="755" y1="247" y2="242"/>
<line clip-path="url(#clipPath75)" fill="none" text-rendering="optimizeLegibility" x1="255" x2="255" y1="195" y2="166" stroke-dasharray="5,5,5,5,5,5,5,5,5,5"/>
<line clip-path="url(#clipPath83)" fill="none" text-rendering="optimizeLegibility" x1="260" x2="255" y1="181" y2="166"/>
<line clip-path="url(#clipPath83)" fill="none" text-rendering="optimizeLegibility" x1="255" x2="250" y1="166" y2="181"/>
<line clip-path="url(#clipPath75)" fill="none" text-rendering="optimizeLegibility" x1="180" x2="135" y1="155" y2="169" stroke-dasharray="5,5,5,5,5,5,5,5,5,5"/>
<line clip-path="url(#clipPath84)" fill="none" text-rendering="optimizeLegibility" x1="148" x2="135" y1="160" y2="169"/>
<line clip-path="url(#clipPath84)" fill="none" text-rendering="optimizeLegibility" x1="135" x2="151" y1="169" y2="169"/>
<line clip-path="url(#clipPath75)" fill="none" text-rendering="optimizeLegibility" x1="180" x2="135" y1="202" y2="195" stroke-dasharray="5,5,5,5,5,5,5,5,5,5"/>
<line clip-path="url(#clipPath85)" fill="none" text-rendering="optimizeLegibility" x1="151" x2="135" y1="192" y2="195"/>
<line clip-path="url(#clipPath85)" fill="none" text-rendering="optimizeLegibility" x1="135" x2="149" y1="195" y2="202"/>
<line clip-path="url(#clipPath75)" fill="none" text-rendering="optimizeLegibility" x1="273" x2="263" y1="255" y2="231" stroke-dasharray="5,5,5,5,5,5,5,5,5,5"/>
<line clip-path="url(#clipPath86)" fill="none" text-rendering="optimizeLegibility" x1="273" x2="263" y1="243" y2="231"/>
<line clip-path="url(#clipPath86)" fill="none" text-rendering="optimizeLegibility" x1="263" x2="264" y1="231" y2="247"/>
<line clip-path="url(#clipPath75)" fill="none" text-rendering="optimizeLegibility" x1="255" x2="255" y1="195" y2="166" stroke-dasharray="5,5,5,5,5,5,5,5,5,5"/>
<line clip-path="url(#clipPath83)" fill="none" text-rendering="optimizeLegibility" x1="260" x2="255" y1="181" y2="166"/>
<line clip-path="url(#clipPath83)" fill="none" text-rendering="optimizeLegibility" x1="255" x2="250" y1="166" y2="181"/>
<line clip-path="url(#clipPath75)" fill="none" text-rendering="optimizeLegibility" x1="78" x2="78" y1="170" y2="111" stroke-dasharray="5,5,5,5,5,5,5,5,5,5"/>
<line clip-path="url(#clipPath77)" fill="none" text-rendering="optimizeLegibility" x1="83" x2="78" y1="126" y2="111"/>
<line clip-path="url(#clipPath77)" fill="none" text-rendering="optimizeLegibility" x1="78" x2="73" y1="111" y2="126"/>
<line clip-path="url(#clipPath75)" fill="none" text-rendering="optimizeLegibility" x1="180" x2="135" y1="155" y2="169" stroke-dasharray="5,5,5,5,5,5,5,5,5,5"/>
<line clip-path="url(#clipPath84)" fill="none" text-rendering="optimizeLegibility" x1="148" x2="135" y1="160" y2="169"/>
<line clip-path="url(#clipPath84)" fill="none" text-rendering="optimizeLegibility" x1="135" x2="151" y1="169" y2="169"/>
<line clip-path="url(#clipPath75)" fill="none" text-rendering="optimizeLegibility" x1="180" x2="135" y1="202" y2="195" stroke-dasharray="5,5,5,5,5,5,5,5,5,5"/>
<line clip-path="url(#clipPath85)" fill="none" text-rendering="optimizeLegibility" x1="151" x2="135" y1="192" y2="195"/>
<line clip-path="url(#clipPath85)" fill="none" text-rendering="optimizeLegibility" x1="135" x2="149" y1="195" y2="202"/>
<line clip-path="url(#clipPath75)" fill="none" text-rendering="optimizeLegibility" x1="200" x2="200" y1="305" y2="231" stroke-dasharray="5,5,5,5,5,5,5,5,5,5"/>
<line clip-path="url(#clipPath76)" fill="none" text-rendering="optimizeLegibility" x1="205" x2="200" y1="246" y2="231"/>
<line clip-path="url(#clipPath76)" fill="none" text-rendering="optimizeLegibility" x1="200" x2="195" y1="231" y2="246"/>
<line clip-path="url(#clipPath75)" fill="none" text-rendering="optimizeLegibility" x1="506" x2="324" y1="181" y2="255" stroke-dasharray="5,5,5,5,5,5,5,5,5,5"/>
<line clip-path="url(#clipPath78)" fill="none" text-rendering="optimizeLegibility" x1="336" x2="324" y1="245" y2="255"/>
<line clip-path="url(#clipPath78)" fill="none" text-rendering="optimizeLegibility" x1="324" x2="340" y1="255" y2="254"/>
<line clip-path="url(#clipPath75)" fill="none" text-rendering="optimizeLegibility" x1="495" x2="316" y1="252" y2="305" stroke-dasharray="5,5,5,5,5,5,5,5,5,5"/>
<line clip-path="url(#clipPath79)" fill="none" text-rendering="optimizeLegibility" x1="329" x2="316" y1="296" y2="305"/>
<line clip-path="url(#clipPath79)" fill="none" text-rendering="optimizeLegibility" x1="316" x2="332" y1="305" y2="306"/>
<line clip-path="url(#clipPath75)" fill="none" text-rendering="optimizeLegibility" x1="273" x2="263" y1="255" y2="231" stroke-dasharray="5,5,5,5,5,5,5,5,5,5"/>
<line clip-path="url(#clipPath86)" fill="none" text-rendering="optimizeLegibility" x1="273" x2="263" y1="243" y2="231"/>
<line clip-path="url(#clipPath86)" fill="none" text-rendering="optimizeLegibility" x1="263" x2="264" y1="231" y2="247"/>
<line clip-path="url(#clipPath75)" fill="none" text-rendering="optimizeLegibility" x1="592" x2="770" y1="247" y2="247" stroke-dasharray="5,5,5,5,5,5,5,5,5,5"/>
<line clip-path="url(#clipPath82)" fill="none" text-rendering="optimizeLegibility" x1="755" x2="770" y1="252" y2="247"/>
<line clip-path="url(#clipPath82)" fill="none" text-rendering="optimizeLegibility" x1="770" x2="755" y1="247" y2="242"/>
<line clip-path="url(#clipPath75)" fill="none" text-rendering="optimizeLegibility" x1="180" x2="127" y1="93" y2="93" stroke-dasharray="5,5,5,5,5,5,5,5,5,5"/>
<line clip-path="url(#clipPath81)" fill="none" text-rendering="optimizeLegibility" x1="142" x2="127" y1="88" y2="93"/>
<line clip-path="url(#clipPath81)" fill="none" text-rendering="optimizeLegibility" x1="127" x2="142" y1="93" y2="98"/>
<line clip-path="url(#clipPath75)" fill="none" text-rendering="optimizeLegibility" x1="609" x2="775" y1="168" y2="168" stroke-dasharray="5,5,5,5,5,5,5,5,5,5"/>
<line clip-path="url(#clipPath80)" fill="none" text-rendering="optimizeLegibility" x1="760" x2="775" y1="173" y2="168"/>
<line clip-path="url(#clipPath80)" fill="none" text-rendering="optimizeLegibility" x1="775" x2="760" y1="168" y2="163"/>
</g>
</g>
</svg>
