<?xml version="1.0" encoding="UTF-8"?>
<svg xmlns="http://www.w3.org/2000/svg" xmlns:xlink="http://www.w3.org/1999/xlink" stroke-dasharray="none" shape-rendering="auto" font-family="'Dialog'" width="916" text-rendering="auto" fill-opacity="1" contentScriptType="text/ecmascript" color-interpolation="auto" color-rendering="auto" preserveAspectRatio="xMidYMid meet" font-size="12" viewBox="0 0 916 601" fill="black" stroke="black" image-rendering="auto" stroke-miterlimit="10" zoomAndPan="magnify" version="1.0" stroke-linecap="square" stroke-linejoin="miter" contentStyleType="text/css" font-style="normal" height="601" stroke-width="1" stroke-dashoffset="0" font-weight="normal" stroke-opacity="1">
<!--Generated by the Batik Graphics2D SVG Generator-->
<defs id="genericDefs"/>
<g>
<defs id="defs1">
<clipPath clipPathUnits="userSpaceOnUse" id="clipPath1">
<path d="M504 129 L642 129 L642 277 L504 277 L504 129 Z"/>
</clipPath>
<clipPath clipPathUnits="userSpaceOnUse" id="clipPath2">
<path d="M507 132 L642 132 L642 147 L507 147 L507 132 Z"/>
</clipPath>
<clipPath clipPathUnits="userSpaceOnUse" id="clipPath3">
<path d="M554 146 L597 146 L597 161 L554 161 L554 146 Z"/>
</clipPath>
<clipPath clipPathUnits="userSpaceOnUse" id="clipPath4">
<path d="M509 162 L587 162 L587 176 L509 176 L509 162 Z"/>
</clipPath>
<clipPath clipPathUnits="userSpaceOnUse" id="clipPath5">
<path d="M504 160 L642 160 L642 225 L504 225 L504 160 Z"/>
</clipPath>
<clipPath clipPathUnits="userSpaceOnUse" id="clipPath6">
<path d="M504 224 L642 224 L642 277 L504 277 L504 224 Z"/>
</clipPath>
<clipPath clipPathUnits="userSpaceOnUse" id="clipPath7">
<path d="M9 9 L642 9 L642 61 L9 61 L9 9 Z"/>
</clipPath>
<clipPath clipPathUnits="userSpaceOnUse" id="clipPath8">
<path d="M12 21 L642 21 L642 36 L12 36 L12 21 Z"/>
</clipPath>
<clipPath clipPathUnits="userSpaceOnUse" id="clipPath9">
<path d="M313 35 L344 35 L344 50 L313 50 L313 35 Z"/>
</clipPath>
<clipPath clipPathUnits="userSpaceOnUse" id="clipPath10">
<path d="M659 9 L792 9 L792 61 L659 61 L659 9 Z"/>
</clipPath>
<clipPath clipPathUnits="userSpaceOnUse" id="clipPath11">
<path d="M662 21 L792 21 L792 36 L662 36 L662 21 Z"/>
</clipPath>
<clipPath clipPathUnits="userSpaceOnUse" id="clipPath12">
<path d="M704 35 L753 35 L753 50 L704 50 L704 35 Z"/>
</clipPath>
<clipPath clipPathUnits="userSpaceOnUse" id="clipPath13">
<path d="M659 129 L792 129 L792 277 L659 277 L659 129 Z"/>
</clipPath>
<clipPath clipPathUnits="userSpaceOnUse" id="clipPath14">
<path d="M662 132 L792 132 L792 147 L662 147 L662 132 Z"/>
</clipPath>
<clipPath clipPathUnits="userSpaceOnUse" id="clipPath15">
<path d="M712 146 L745 146 L745 161 L712 161 L712 146 Z"/>
</clipPath>
<clipPath clipPathUnits="userSpaceOnUse" id="clipPath16">
<path d="M664 162 L742 162 L742 176 L664 176 L664 162 Z"/>
</clipPath>
<clipPath clipPathUnits="userSpaceOnUse" id="clipPath17">
<path d="M659 160 L792 160 L792 225 L659 225 L659 160 Z"/>
</clipPath>
<clipPath clipPathUnits="userSpaceOnUse" id="clipPath18">
<path d="M659 224 L792 224 L792 277 L659 277 L659 224 Z"/>
</clipPath>
<clipPath clipPathUnits="userSpaceOnUse" id="clipPath19">
<path d="M49 339 L582 339 L582 391 L49 391 L49 339 Z"/>
</clipPath>
<clipPath clipPathUnits="userSpaceOnUse" id="clipPath20">
<path d="M52 351 L582 351 L582 366 L52 366 L52 351 Z"/>
</clipPath>
<clipPath clipPathUnits="userSpaceOnUse" id="clipPath21">
<path d="M284 365 L352 365 L352 380 L284 380 L284 365 Z"/>
</clipPath>
<clipPath clipPathUnits="userSpaceOnUse" id="clipPath22">
<path d="M185 473 L287 473 L287 575 L185 575 L185 473 Z"/>
</clipPath>
<clipPath clipPathUnits="userSpaceOnUse" id="clipPath23">
<path d="M188 476 L287 476 L287 491 L188 491 L188 476 Z"/>
</clipPath>
<clipPath clipPathUnits="userSpaceOnUse" id="clipPath24">
<path d="M220 490 L258 490 L258 505 L220 505 L220 490 Z"/>
</clipPath>
<clipPath clipPathUnits="userSpaceOnUse" id="clipPath25">
<path d="M190 506 L268 506 L268 520 L190 520 L190 506 Z"/>
</clipPath>
<clipPath clipPathUnits="userSpaceOnUse" id="clipPath26">
<path d="M185 504 L287 504 L287 545 L185 545 L185 504 Z"/>
</clipPath>
<clipPath clipPathUnits="userSpaceOnUse" id="clipPath27">
<path d="M185 544 L287 544 L287 575 L185 575 L185 544 Z"/>
</clipPath>
<clipPath clipPathUnits="userSpaceOnUse" id="clipPath28">
<path d="M654 339 L907 339 L907 391 L654 391 L654 339 Z"/>
</clipPath>
<clipPath clipPathUnits="userSpaceOnUse" id="clipPath29">
<path d="M657 352 L907 352 L907 366 L657 366 L657 352 Z"/>
</clipPath>
<clipPath clipPathUnits="userSpaceOnUse" id="clipPath30">
<path d="M734 365 L832 365 L832 379 L734 379 L734 365 Z"/>
</clipPath>
<clipPath clipPathUnits="userSpaceOnUse" id="clipPath31">
<path d="M654 477 L756 477 L756 579 L654 579 L654 477 Z"/>
</clipPath>
<clipPath clipPathUnits="userSpaceOnUse" id="clipPath32">
<path d="M657 480 L756 480 L756 494 L657 494 L657 480 Z"/>
</clipPath>
<clipPath clipPathUnits="userSpaceOnUse" id="clipPath33">
<path d="M686 493 L730 493 L730 507 L686 507 L686 493 Z"/>
</clipPath>
<clipPath clipPathUnits="userSpaceOnUse" id="clipPath34">
<path d="M654 506 L756 506 L756 546 L654 546 L654 506 Z"/>
</clipPath>
<clipPath clipPathUnits="userSpaceOnUse" id="clipPath35">
<path d="M654 545 L756 545 L756 579 L654 579 L654 545 Z"/>
</clipPath>
<clipPath clipPathUnits="userSpaceOnUse" id="clipPath36">
<path d="M802 477 L904 477 L904 579 L802 579 L802 477 Z"/>
</clipPath>
<clipPath clipPathUnits="userSpaceOnUse" id="clipPath37">
<path d="M805 480 L904 480 L904 495 L805 495 L805 480 Z"/>
</clipPath>
<clipPath clipPathUnits="userSpaceOnUse" id="clipPath38">
<path d="M842 494 L870 494 L870 509 L842 509 L842 494 Z"/>
</clipPath>
<clipPath clipPathUnits="userSpaceOnUse" id="clipPath39">
<path d="M802 508 L904 508 L904 547 L802 547 L802 508 Z"/>
</clipPath>
<clipPath clipPathUnits="userSpaceOnUse" id="clipPath40">
<path d="M802 546 L904 546 L904 579 L802 579 L802 546 Z"/>
</clipPath>
<clipPath clipPathUnits="userSpaceOnUse" id="clipPath41">
<path d="M9 129 L135 129 L135 253 L9 253 L9 129 Z"/>
</clipPath>
<clipPath clipPathUnits="userSpaceOnUse" id="clipPath42">
<path d="M12 132 L135 132 L135 147 L12 147 L12 132 Z"/>
</clipPath>
<clipPath clipPathUnits="userSpaceOnUse" id="clipPath43">
<path d="M44 146 L105 146 L105 161 L44 161 L44 146 Z"/>
</clipPath>
<clipPath clipPathUnits="userSpaceOnUse" id="clipPath44">
<path d="M14 162 L91 162 L91 177 L14 177 L14 162 Z"/>
</clipPath>
<clipPath clipPathUnits="userSpaceOnUse" id="clipPath45">
<path d="M14 175 L130 175 L130 190 L14 190 L14 175 Z"/>
</clipPath>
<clipPath clipPathUnits="userSpaceOnUse" id="clipPath46">
<path d="M14 188 L81 188 L81 203 L14 203 L14 188 Z"/>
</clipPath>
<clipPath clipPathUnits="userSpaceOnUse" id="clipPath47">
<path d="M9 160 L135 160 L135 229 L9 229 L9 160 Z"/>
</clipPath>
<clipPath clipPathUnits="userSpaceOnUse" id="clipPath48">
<path d="M9 228 L135 228 L135 253 L9 253 L9 228 Z"/>
</clipPath>
<clipPath clipPathUnits="userSpaceOnUse" id="clipPath49">
<path d="M49 473 L151 473 L151 575 L49 575 L49 473 Z"/>
</clipPath>
<clipPath clipPathUnits="userSpaceOnUse" id="clipPath50">
<path d="M52 476 L151 476 L151 491 L52 491 L52 476 Z"/>
</clipPath>
<clipPath clipPathUnits="userSpaceOnUse" id="clipPath51">
<path d="M81 490 L124 490 L124 505 L81 505 L81 490 Z"/>
</clipPath>
<clipPath clipPathUnits="userSpaceOnUse" id="clipPath52">
<path d="M49 504 L151 504 L151 543 L49 543 L49 504 Z"/>
</clipPath>
<clipPath clipPathUnits="userSpaceOnUse" id="clipPath53">
<path d="M49 542 L151 542 L151 575 L49 575 L49 542 Z"/>
</clipPath>
<clipPath clipPathUnits="userSpaceOnUse" id="clipPath54">
<path d="M334 472 L447 472 L447 592 L334 592 L334 472 Z"/>
</clipPath>
<clipPath clipPathUnits="userSpaceOnUse" id="clipPath55">
<path d="M337 475 L447 475 L447 489 L337 489 L337 475 Z"/>
</clipPath>
<clipPath clipPathUnits="userSpaceOnUse" id="clipPath56">
<path d="M385 488 L401 488 L401 502 L385 502 L385 488 Z"/>
</clipPath>
<clipPath clipPathUnits="userSpaceOnUse" id="clipPath57">
<path d="M339 503 L425 503 L425 518 L339 518 L339 503 Z"/>
</clipPath>
<clipPath clipPathUnits="userSpaceOnUse" id="clipPath58">
<path d="M334 501 L447 501 L447 553 L334 553 L334 501 Z"/>
</clipPath>
<clipPath clipPathUnits="userSpaceOnUse" id="clipPath59">
<path d="M334 552 L447 552 L447 592 L334 592 L334 552 Z"/>
</clipPath>
<clipPath clipPathUnits="userSpaceOnUse" id="clipPath60">
<path d="M469 472 L582 472 L582 592 L469 592 L469 472 Z"/>
</clipPath>
<clipPath clipPathUnits="userSpaceOnUse" id="clipPath61">
<path d="M472 475 L582 475 L582 489 L472 489 L472 475 Z"/>
</clipPath>
<clipPath clipPathUnits="userSpaceOnUse" id="clipPath62">
<path d="M501 488 L555 488 L555 502 L501 502 L501 488 Z"/>
</clipPath>
<clipPath clipPathUnits="userSpaceOnUse" id="clipPath63">
<path d="M469 501 L582 501 L582 550 L469 550 L469 501 Z"/>
</clipPath>
<clipPath clipPathUnits="userSpaceOnUse" id="clipPath64">
<path d="M469 549 L582 549 L582 592 L469 592 L469 549 Z"/>
</clipPath>
<clipPath clipPathUnits="userSpaceOnUse" id="clipPath65">
<path d="M359 129 L487 129 L487 277 L359 277 L359 129 Z"/>
</clipPath>
<clipPath clipPathUnits="userSpaceOnUse" id="clipPath66">
<path d="M362 132 L487 132 L487 146 L362 146 L362 132 Z"/>
</clipPath>
<clipPath clipPathUnits="userSpaceOnUse" id="clipPath67">
<path d="M411 145 L440 145 L440 159 L411 159 L411 145 Z"/>
</clipPath>
<clipPath clipPathUnits="userSpaceOnUse" id="clipPath68">
<path d="M359 158 L487 158 L487 221 L359 221 L359 158 Z"/>
</clipPath>
<clipPath clipPathUnits="userSpaceOnUse" id="clipPath69">
<path d="M359 220 L487 220 L487 277 L359 277 L359 220 Z"/>
</clipPath>
<clipPath clipPathUnits="userSpaceOnUse" id="clipPath70">
<path d="M209 129 L332 129 L332 277 L209 277 L209 129 Z"/>
</clipPath>
<clipPath clipPathUnits="userSpaceOnUse" id="clipPath71">
<path d="M212 132 L332 132 L332 146 L212 146 L212 132 Z"/>
</clipPath>
<clipPath clipPathUnits="userSpaceOnUse" id="clipPath72">
<path d="M247 145 L300 145 L300 159 L247 159 L247 145 Z"/>
</clipPath>
<clipPath clipPathUnits="userSpaceOnUse" id="clipPath73">
<path d="M209 158 L332 158 L332 221 L209 221 L209 158 Z"/>
</clipPath>
<clipPath clipPathUnits="userSpaceOnUse" id="clipPath74">
<path d="M209 220 L332 220 L332 277 L209 277 L209 220 Z"/>
</clipPath>
<clipPath clipPathUnits="userSpaceOnUse" id="clipPath75">
<path d="M-1 -1 L917 -1 L917 602 L-1 602 L-1 -1 Z"/>
</clipPath>
<clipPath clipPathUnits="userSpaceOnUse" id="clipPath76">
<path d="M570 59 L583 59 L583 77 L570 77 L570 59 Z"/>
</clipPath>
<clipPath clipPathUnits="userSpaceOnUse" id="clipPath77">
<path d="M663 59 L679 59 L679 77 L663 77 L663 59 Z"/>
</clipPath>
<clipPath clipPathUnits="userSpaceOnUse" id="clipPath78">
<path d="M619 59 L635 59 L635 77 L619 77 L619 59 Z"/>
</clipPath>
<clipPath clipPathUnits="userSpaceOnUse" id="clipPath79">
<path d="M719 59 L732 59 L732 77 L719 77 L719 59 Z"/>
</clipPath>
<clipPath clipPathUnits="userSpaceOnUse" id="clipPath80">
<path d="M238 389 L251 389 L251 407 L238 407 L238 389 Z"/>
</clipPath>
<clipPath clipPathUnits="userSpaceOnUse" id="clipPath81">
<path d="M697 389 L710 389 L710 407 L697 407 L697 389 Z"/>
</clipPath>
<clipPath clipPathUnits="userSpaceOnUse" id="clipPath82">
<path d="M848 389 L861 389 L861 407 L848 407 L848 389 Z"/>
</clipPath>
<clipPath clipPathUnits="userSpaceOnUse" id="clipPath83">
<path d="M86 59 L99 59 L99 78 L86 78 L86 59 Z"/>
</clipPath>
<clipPath clipPathUnits="userSpaceOnUse" id="clipPath84">
<path d="M93 389 L106 389 L106 407 L93 407 L93 389 Z"/>
</clipPath>
<clipPath clipPathUnits="userSpaceOnUse" id="clipPath85">
<path d="M390 389 L403 389 L403 407 L390 407 L390 389 Z"/>
</clipPath>
<clipPath clipPathUnits="userSpaceOnUse" id="clipPath86">
<path d="M518 389 L531 389 L531 407 L518 407 L518 389 Z"/>
</clipPath>
<clipPath clipPathUnits="userSpaceOnUse" id="clipPath87">
<path d="M347 59 L364 59 L364 76 L347 76 L347 59 Z"/>
</clipPath>
<clipPath clipPathUnits="userSpaceOnUse" id="clipPath88">
<path d="M244 59 L256 59 L256 78 L244 78 L244 59 Z"/>
</clipPath>
<clipPath clipPathUnits="userSpaceOnUse" id="clipPath89">
<path d="M643 51 L662 51 L662 64 L643 64 L643 51 Z"/>
</clipPath>
</defs>
<g font-size="11" fill="white" font-family="'Lucida Grande'" stroke-linejoin="round" stroke="white" stroke-width="0" stroke-miterlimit="0">
<rect x="506" y="131" clip-path="url(#clipPath1)" width="134" height="144" stroke="none"/>
<rect x="505" y="130" clip-path="url(#clipPath1)" width="136" height="146" stroke="none"/>
<text x="542" y="144" clip-path="url(#clipPath2)" fill="black" stroke="none" xml:space="preserve">«Stereotype»</text>
<text x="555" y="158" clip-path="url(#clipPath3)" fill="black" stroke="none" xml:space="preserve">adapter</text>
<text font-size="10" x="510" y="173" clip-path="url(#clipPath4)" fill="black" stroke="none" xml:space="preserve"> + name: String</text>
</g>
<g stroke-width="1.1" font-size="11" font-family="'Lucida Grande'" stroke-linecap="butt">
<line clip-path="url(#clipPath5)" fill="none" x1="505" x2="641" y1="161" y2="161"/>
<line clip-path="url(#clipPath6)" fill="none" x1="505" x2="641" y1="225" y2="225"/>
<rect x="505" y="130" clip-path="url(#clipPath1)" fill="none" width="135" height="145"/>
<rect x="11" y="11" clip-path="url(#clipPath7)" fill="white" width="629" height="48" stroke="none"/>
<rect x="10" y="10" clip-path="url(#clipPath7)" fill="white" width="631" height="50" stroke="none"/>
<text xml:space="preserve" x="296" y="33" clip-path="url(#clipPath8)" stroke="none">«metaclass»</text>
<text xml:space="preserve" x="314" y="47" clip-path="url(#clipPath9)" stroke="none">Class</text>
<rect x="10" y="10" clip-path="url(#clipPath7)" fill="none" width="630" height="49"/>
<rect x="661" y="11" clip-path="url(#clipPath10)" fill="white" width="129" height="48" stroke="none"/>
<rect x="660" y="10" clip-path="url(#clipPath10)" fill="white" width="131" height="50" stroke="none"/>
<text xml:space="preserve" x="696" y="33" clip-path="url(#clipPath11)" stroke="none">«metaclass»</text>
<text xml:space="preserve" x="705" y="47" clip-path="url(#clipPath12)" stroke="none">Interface</text>
<rect x="660" y="10" clip-path="url(#clipPath10)" fill="none" width="130" height="49"/>
<rect x="661" y="131" clip-path="url(#clipPath13)" fill="white" width="129" height="144" stroke="none"/>
<rect x="660" y="130" clip-path="url(#clipPath13)" fill="white" width="131" height="146" stroke="none"/>
<text xml:space="preserve" x="694" y="144" clip-path="url(#clipPath14)" stroke="none">«Stereotype»</text>
<text xml:space="preserve" x="713" y="158" clip-path="url(#clipPath15)" stroke="none">utility</text>
<text font-size="10" x="665" y="173" clip-path="url(#clipPath16)" stroke="none" xml:space="preserve"> + name: String</text>
<line clip-path="url(#clipPath17)" fill="none" x1="660" x2="791" y1="161" y2="161"/>
<line clip-path="url(#clipPath18)" fill="none" x1="660" x2="791" y1="225" y2="225"/>
<rect x="660" y="130" clip-path="url(#clipPath13)" fill="none" width="130" height="145"/>
<rect x="51" y="341" clip-path="url(#clipPath19)" fill="white" width="529" height="48" stroke="none"/>
<rect x="50" y="340" clip-path="url(#clipPath19)" fill="white" width="531" height="50" stroke="none"/>
<text xml:space="preserve" x="286" y="363" clip-path="url(#clipPath20)" stroke="none">«metaclass»</text>
<text xml:space="preserve" x="285" y="377" clip-path="url(#clipPath21)" stroke="none">Dependency</text>
<rect x="50" y="340" clip-path="url(#clipPath19)" fill="none" width="530" height="49"/>
<rect x="187" y="475" clip-path="url(#clipPath22)" fill="white" width="98" height="98" stroke="none"/>
<rect x="186" y="474" clip-path="url(#clipPath22)" fill="white" width="100" height="100" stroke="none"/>
<text xml:space="preserve" x="205" y="488" clip-path="url(#clipPath23)" stroke="none">«Stereotype»</text>
<text xml:space="preserve" x="221" y="502" clip-path="url(#clipPath24)" stroke="none">adapts</text>
<text font-size="10" x="191" y="517" clip-path="url(#clipPath25)" stroke="none" xml:space="preserve"> + order: String</text>
<line clip-path="url(#clipPath26)" fill="none" x1="186" x2="286" y1="505" y2="505"/>
<line clip-path="url(#clipPath27)" fill="none" x1="186" x2="286" y1="545" y2="545"/>
<rect x="186" y="474" clip-path="url(#clipPath22)" fill="none" width="99" height="99"/>
<rect x="656" y="341" clip-path="url(#clipPath28)" fill="white" width="249" height="48" stroke="none"/>
<rect x="655" y="340" clip-path="url(#clipPath28)" fill="white" width="251" height="50" stroke="none"/>
<text font-size="10" x="754" y="363" clip-path="url(#clipPath29)" stroke="none" xml:space="preserve">«metaclass»</text>
<text font-size="10" x="735" y="376" clip-path="url(#clipPath30)" stroke="none" xml:space="preserve">InterfaceRealization</text>
<rect x="655" y="340" clip-path="url(#clipPath28)" fill="none" width="250" height="49"/>
<rect x="656" y="479" clip-path="url(#clipPath31)" fill="white" width="98" height="98" stroke="none"/>
<rect x="655" y="478" clip-path="url(#clipPath31)" fill="white" width="100" height="100" stroke="none"/>
<text font-size="10" x="677" y="491" clip-path="url(#clipPath32)" stroke="none" xml:space="preserve">«Stereotype»</text>
<text font-size="10" x="687" y="504" clip-path="url(#clipPath33)" stroke="none" xml:space="preserve">provides</text>
<line clip-path="url(#clipPath34)" fill="none" x1="655" x2="755" y1="507" y2="507"/>
<line clip-path="url(#clipPath35)" fill="none" x1="655" x2="755" y1="546" y2="546"/>
<rect x="655" y="478" clip-path="url(#clipPath31)" fill="none" width="99" height="99"/>
<rect x="804" y="479" clip-path="url(#clipPath36)" fill="white" width="98" height="98" stroke="none"/>
<rect x="803" y="478" clip-path="url(#clipPath36)" fill="white" width="100" height="100" stroke="none"/>
<text xml:space="preserve" x="822" y="492" clip-path="url(#clipPath37)" stroke="none">«Stereotype»</text>
<text xml:space="preserve" x="843" y="506" clip-path="url(#clipPath38)" stroke="none">zcml</text>
<line clip-path="url(#clipPath39)" fill="none" x1="803" x2="903" y1="509" y2="509"/>
<line clip-path="url(#clipPath40)" fill="none" x1="803" x2="903" y1="547" y2="547"/>
<rect x="803" y="478" clip-path="url(#clipPath36)" fill="none" width="99" height="99"/>
<rect x="11" y="131" clip-path="url(#clipPath41)" fill="white" width="122" height="120" stroke="none"/>
<rect x="10" y="130" clip-path="url(#clipPath41)" fill="white" width="124" height="122" stroke="none"/>
<text xml:space="preserve" x="41" y="144" clip-path="url(#clipPath42)" stroke="none">«Stereotype»</text>
<text xml:space="preserve" x="45" y="158" clip-path="url(#clipPath43)" stroke="none">permission</text>
<text xml:space="preserve" x="15" y="174" clip-path="url(#clipPath44)" stroke="none"> + title: String</text>
<text xml:space="preserve" x="15" y="187" clip-path="url(#clipPath45)" stroke="none"> + description: String</text>
<text xml:space="preserve" x="15" y="200" clip-path="url(#clipPath46)" stroke="none"> + id: String</text>
<line clip-path="url(#clipPath47)" fill="none" x1="10" x2="134" y1="161" y2="161"/>
<line clip-path="url(#clipPath48)" fill="none" x1="10" x2="134" y1="229" y2="229"/>
<rect x="10" y="130" clip-path="url(#clipPath41)" fill="none" width="123" height="121"/>
<rect x="51" y="475" clip-path="url(#clipPath49)" fill="white" width="98" height="98" stroke="none"/>
<rect x="50" y="474" clip-path="url(#clipPath49)" fill="white" width="100" height="100" stroke="none"/>
<text xml:space="preserve" x="69" y="488" clip-path="url(#clipPath50)" stroke="none">«Stereotype»</text>
<text xml:space="preserve" x="82" y="502" clip-path="url(#clipPath51)" stroke="none">permits</text>
<line clip-path="url(#clipPath52)" fill="none" x1="50" x2="150" y1="505" y2="505"/>
<line clip-path="url(#clipPath53)" fill="none" x1="50" x2="150" y1="543" y2="543"/>
<rect x="50" y="474" clip-path="url(#clipPath49)" fill="none" width="99" height="99"/>
<rect x="336" y="474" clip-path="url(#clipPath54)" fill="white" width="109" height="116" stroke="none"/>
<rect x="335" y="473" clip-path="url(#clipPath54)" fill="white" width="111" height="118" stroke="none"/>
<text font-size="10" x="362" y="486" clip-path="url(#clipPath55)" stroke="none" xml:space="preserve">«Stereotype»</text>
<text font-size="10" x="386" y="499" clip-path="url(#clipPath56)" stroke="none" xml:space="preserve">for</text>
<text xml:space="preserve" x="340" y="515" clip-path="url(#clipPath57)" stroke="none"> + name: String</text>
<line clip-path="url(#clipPath58)" fill="none" x1="335" x2="446" y1="502" y2="502"/>
<line clip-path="url(#clipPath59)" fill="none" x1="335" x2="446" y1="553" y2="553"/>
<rect x="335" y="473" clip-path="url(#clipPath54)" fill="none" width="110" height="117"/>
<rect x="471" y="474" clip-path="url(#clipPath60)" fill="white" width="109" height="116" stroke="none"/>
<rect x="470" y="473" clip-path="url(#clipPath60)" fill="white" width="111" height="118" stroke="none"/>
<text font-size="10" x="497" y="486" clip-path="url(#clipPath61)" stroke="none" xml:space="preserve">«Stereotype»</text>
<text font-size="10" x="502" y="499" clip-path="url(#clipPath62)" stroke="none" xml:space="preserve">subscribes</text>
<line clip-path="url(#clipPath63)" fill="none" x1="470" x2="581" y1="502" y2="502"/>
<line clip-path="url(#clipPath64)" fill="none" x1="470" x2="581" y1="550" y2="550"/>
<rect x="470" y="473" clip-path="url(#clipPath60)" fill="none" width="110" height="117"/>
<rect x="361" y="131" clip-path="url(#clipPath65)" fill="white" width="124" height="144" stroke="none"/>
<rect x="360" y="130" clip-path="url(#clipPath65)" fill="white" width="126" height="146" stroke="none"/>
<text font-size="10" x="395" y="143" clip-path="url(#clipPath66)" stroke="none" xml:space="preserve">«Stereotype»</text>
<text font-size="10" x="412" y="156" clip-path="url(#clipPath67)" stroke="none" xml:space="preserve">event</text>
<line clip-path="url(#clipPath68)" fill="none" x1="360" x2="486" y1="159" y2="159"/>
<line clip-path="url(#clipPath69)" fill="none" x1="360" x2="486" y1="221" y2="221"/>
<rect x="360" y="130" clip-path="url(#clipPath65)" fill="none" width="125" height="145"/>
<rect x="211" y="131" clip-path="url(#clipPath70)" fill="white" width="119" height="144" stroke="none"/>
<rect x="210" y="130" clip-path="url(#clipPath70)" fill="white" width="121" height="146" stroke="none"/>
<text font-size="10" x="242" y="143" clip-path="url(#clipPath71)" stroke="none" xml:space="preserve">«Stereotype»</text>
<text font-size="10" x="248" y="156" clip-path="url(#clipPath72)" stroke="none" xml:space="preserve">subscriber</text>
<line clip-path="url(#clipPath73)" fill="none" x1="210" x2="331" y1="159" y2="159"/>
<line clip-path="url(#clipPath74)" fill="none" x1="210" x2="331" y1="221" y2="221"/>
<rect x="210" y="130" clip-path="url(#clipPath70)" fill="none" width="120" height="145"/>
<line clip-path="url(#clipPath75)" fill="none" text-rendering="optimizeLegibility" x1="576" x2="576" y1="130" y2="60" stroke-width="2.1"/>
<polygon text-rendering="optimizeLegibility" stroke-width="2.1" clip-path="url(#clipPath76)" points=" 576 60 581 75 571 75" stroke="none"/>
<polygon fill="none" text-rendering="optimizeLegibility" clip-path="url(#clipPath76)" points=" 576 60 581 75 571 75"/>
<line clip-path="url(#clipPath75)" fill="none" text-rendering="optimizeLegibility" x1="629" x2="677" y1="130" y2="60" stroke-width="2.1"/>
<polygon text-rendering="optimizeLegibility" stroke-width="2.1" clip-path="url(#clipPath77)" points=" 677 60 673 75 664 70" stroke="none"/>
<polygon fill="none" text-rendering="optimizeLegibility" clip-path="url(#clipPath77)" points=" 677 60 673 75 664 70"/>
<line clip-path="url(#clipPath75)" fill="none" text-rendering="optimizeLegibility" x1="668" x2="620" y1="130" y2="60" stroke-width="2.1"/>
<polygon text-rendering="optimizeLegibility" stroke-width="2.1" clip-path="url(#clipPath78)" points=" 620 60 633 70 624 75" stroke="none"/>
<polygon fill="none" text-rendering="optimizeLegibility" clip-path="url(#clipPath78)" points=" 620 60 633 70 624 75"/>
<line clip-path="url(#clipPath75)" fill="none" text-rendering="optimizeLegibility" x1="725" x2="725" y1="130" y2="60" stroke-width="2.1"/>
<polygon text-rendering="optimizeLegibility" stroke-width="2.1" clip-path="url(#clipPath79)" points=" 725 60 730 75 720 75" stroke="none"/>
<polygon fill="none" text-rendering="optimizeLegibility" clip-path="url(#clipPath79)" points=" 725 60 730 75 720 75"/>
<line clip-path="url(#clipPath75)" fill="none" text-rendering="optimizeLegibility" x1="244" x2="244" y1="474" y2="390" stroke-width="2.1"/>
<polygon text-rendering="optimizeLegibility" stroke-width="2.1" clip-path="url(#clipPath80)" points=" 244 390 249 405 239 405" stroke="none"/>
<polygon fill="none" text-rendering="optimizeLegibility" clip-path="url(#clipPath80)" points=" 244 390 249 405 239 405"/>
<line clip-path="url(#clipPath75)" fill="none" text-rendering="optimizeLegibility" x1="703" x2="703" y1="478" y2="390" stroke-width="2.1"/>
<polygon text-rendering="optimizeLegibility" stroke-width="2.1" clip-path="url(#clipPath81)" points=" 703 390 708 405 698 405" stroke="none"/>
<polygon fill="none" text-rendering="optimizeLegibility" clip-path="url(#clipPath81)" points=" 703 390 708 405 698 405"/>
<line clip-path="url(#clipPath75)" fill="none" text-rendering="optimizeLegibility" x1="854" x2="854" y1="478" y2="390" stroke-width="2.1"/>
<polygon text-rendering="optimizeLegibility" stroke-width="2.1" clip-path="url(#clipPath82)" points=" 854 390 859 405 849 405" stroke="none"/>
<polygon fill="none" text-rendering="optimizeLegibility" clip-path="url(#clipPath82)" points=" 854 390 859 405 849 405"/>
<line clip-path="url(#clipPath75)" fill="none" text-rendering="optimizeLegibility" x1="76" x2="96" y1="130" y2="60" stroke-width="2.1"/>
<polygon text-rendering="optimizeLegibility" stroke-width="2.1" clip-path="url(#clipPath83)" points=" 96 60 97 76 87 73" stroke="none"/>
<polygon fill="none" text-rendering="optimizeLegibility" clip-path="url(#clipPath83)" points=" 96 60 97 76 87 73"/>
<line clip-path="url(#clipPath75)" fill="none" text-rendering="optimizeLegibility" x1="99" x2="99" y1="474" y2="390" stroke-width="2.1"/>
<polygon text-rendering="optimizeLegibility" stroke-width="2.1" clip-path="url(#clipPath84)" points=" 99 390 104 405 94 405" stroke="none"/>
<polygon fill="none" text-rendering="optimizeLegibility" clip-path="url(#clipPath84)" points=" 99 390 104 405 94 405"/>
<line clip-path="url(#clipPath75)" fill="none" text-rendering="optimizeLegibility" x1="396" x2="396" y1="473" y2="390" stroke-width="2.1"/>
<polygon text-rendering="optimizeLegibility" stroke-width="2.1" clip-path="url(#clipPath85)" points=" 396 390 401 405 391 405" stroke="none"/>
<polygon fill="none" text-rendering="optimizeLegibility" clip-path="url(#clipPath85)" points=" 396 390 401 405 391 405"/>
<line clip-path="url(#clipPath75)" fill="none" text-rendering="optimizeLegibility" x1="524" x2="524" y1="473" y2="390" stroke-width="2.1"/>
<polygon text-rendering="optimizeLegibility" stroke-width="2.1" clip-path="url(#clipPath86)" points=" 524 390 529 405 519 405" stroke="none"/>
<polygon fill="none" text-rendering="optimizeLegibility" clip-path="url(#clipPath86)" points=" 524 390 529 405 519 405"/>
<line clip-path="url(#clipPath75)" fill="none" text-rendering="optimizeLegibility" x1="411" x2="348" y1="130" y2="60" stroke-width="2.1"/>
<polygon text-rendering="optimizeLegibility" stroke-width="2.1" clip-path="url(#clipPath87)" points=" 348 60 362 68 354 74" stroke="none"/>
<polygon fill="none" text-rendering="optimizeLegibility" clip-path="url(#clipPath87)" points=" 348 60 362 68 354 74"/>
<line clip-path="url(#clipPath75)" fill="none" text-rendering="optimizeLegibility" x1="268" x2="245" y1="130" y2="60" stroke-width="2.1"/>
<polygon text-rendering="optimizeLegibility" stroke-width="2.1" clip-path="url(#clipPath88)" points=" 245 60 254 73 245 76" stroke="none"/>
<polygon fill="none" text-rendering="optimizeLegibility" clip-path="url(#clipPath88)" points=" 245 60 254 73 245 76"/>
<line clip-path="url(#clipPath75)" fill="none" text-rendering="optimizeLegibility" x1="470" x2="490" y1="130" y2="100" stroke-width="2.1"/>
<line clip-path="url(#clipPath75)" fill="none" text-rendering="optimizeLegibility" x1="490" x2="660" y1="100" y2="53" stroke-width="2.1"/>
<polygon text-rendering="optimizeLegibility" stroke-width="2.1" clip-path="url(#clipPath89)" points=" 660 53 647 62 644 52" stroke="none"/>
<polygon fill="none" text-rendering="optimizeLegibility" clip-path="url(#clipPath89)" points=" 660 53 647 62 644 52"/>
</g>
</g>
</svg>
