<?xml version="1.0" encoding="UTF-8"?><svg xmlns="http://www.w3.org/2000/svg" xmlns:xlink="http://www.w3.org/1999/xlink" stroke-dasharray="none" shape-rendering="auto" font-family="'Dialog'" width="656" text-rendering="auto" fill-opacity="1" contentScriptType="text/ecmascript" color-interpolation="auto" color-rendering="auto" preserveAspectRatio="xMidYMid meet" font-size="12" viewBox="0 0 656 260" fill="black" stroke="black" image-rendering="auto" stroke-miterlimit="10" zoomAndPan="magnify" version="1.0" stroke-linecap="square" stroke-linejoin="miter" contentStyleType="text/css" font-style="normal" height="260" stroke-width="1" stroke-dashoffset="0" font-weight="normal" stroke-opacity="1">
<!--Generated by the Batik Graphics2D SVG Generator-->
<defs id="genericDefs"/>
<g>
<defs id="defs1">
<linearGradient x1="10" x2="10" y1="49" gradientUnits="userSpaceOnUse" y2="110" xlink:type="simple" xlink:actuate="onLoad" id="linearGradient1" xlink:show="other" spreadMethod="pad">
<stop stop-opacity="1" stop-color="white" offset="0%"/>
<stop stop-opacity="1" stop-color="rgb(195,209,213)" offset="100%"/>
</linearGradient>
<linearGradient x1="235" x2="235" y1="10" gradientUnits="userSpaceOnUse" y2="95" xlink:type="simple" xlink:actuate="onLoad" id="linearGradient2" xlink:show="other" spreadMethod="pad">
<stop stop-opacity="1" stop-color="white" offset="0%"/>
<stop stop-opacity="1" stop-color="rgb(195,215,221)" offset="100%"/>
</linearGradient>
<linearGradient x1="235" x2="235" y1="150" gradientUnits="userSpaceOnUse" y2="250" xlink:type="simple" xlink:actuate="onLoad" id="linearGradient3" xlink:show="other" spreadMethod="pad">
<stop stop-opacity="1" stop-color="white" offset="0%"/>
<stop stop-opacity="1" stop-color="rgb(195,209,213)" offset="100%"/>
</linearGradient>
<linearGradient x1="495" x2="495" y1="150" gradientUnits="userSpaceOnUse" y2="250" xlink:type="simple" xlink:actuate="onLoad" id="linearGradient4" xlink:show="other" spreadMethod="pad">
<stop stop-opacity="1" stop-color="white" offset="0%"/>
<stop stop-opacity="1" stop-color="rgb(195,209,213)" offset="100%"/>
</linearGradient>
<clipPath clipPathUnits="userSpaceOnUse" id="clipPath1">
<path d="M9 9 L132 9 L132 111 L9 111 L9 9 Z"/>
</clipPath>
<clipPath clipPathUnits="userSpaceOnUse" id="clipPath2">
<path d="M19 14 L76 14 L76 32 L19 32 L19 14 Z"/>
</clipPath>
<clipPath clipPathUnits="userSpaceOnUse" id="clipPath3">
<path d="M19 31 L73 31 L73 49 L19 49 L19 31 Z"/>
</clipPath>
<clipPath clipPathUnits="userSpaceOnUse" id="clipPath4">
<path d="M9 48 L132 48 L132 111 L9 111 L9 48 Z"/>
</clipPath>
<clipPath clipPathUnits="userSpaceOnUse" id="clipPath5">
<path d="M234 9 L647 9 L647 96 L234 96 L234 9 Z"/>
</clipPath>
<clipPath clipPathUnits="userSpaceOnUse" id="clipPath6">
<path d="M417 43 L469 43 L469 61 L417 61 L417 43 Z"/>
</clipPath>
<clipPath clipPathUnits="userSpaceOnUse" id="clipPath7">
<path d="M234 149 L399 149 L399 251 L234 251 L234 149 Z"/>
</clipPath>
<clipPath clipPathUnits="userSpaceOnUse" id="clipPath8">
<path d="M237 152 L399 152 L399 170 L237 170 L237 152 Z"/>
</clipPath>
<clipPath clipPathUnits="userSpaceOnUse" id="clipPath9">
<path d="M244 169 L394 169 L394 187 L244 187 L244 169 Z"/>
</clipPath>
<clipPath clipPathUnits="userSpaceOnUse" id="clipPath10">
<path d="M234 186 L399 186 L399 222 L234 222 L234 186 Z"/>
</clipPath>
<clipPath clipPathUnits="userSpaceOnUse" id="clipPath11">
<path d="M234 221 L399 221 L399 251 L234 251 L234 221 Z"/>
</clipPath>
<clipPath clipPathUnits="userSpaceOnUse" id="clipPath12">
<path d="M494 149 L647 149 L647 251 L494 251 L494 149 Z"/>
</clipPath>
<clipPath clipPathUnits="userSpaceOnUse" id="clipPath13">
<path d="M497 152 L647 152 L647 170 L497 170 L497 152 Z"/>
</clipPath>
<clipPath clipPathUnits="userSpaceOnUse" id="clipPath14">
<path d="M507 169 L640 169 L640 187 L507 187 L507 169 Z"/>
</clipPath>
<clipPath clipPathUnits="userSpaceOnUse" id="clipPath15">
<path d="M494 186 L647 186 L647 222 L494 222 L494 186 Z"/>
</clipPath>
<clipPath clipPathUnits="userSpaceOnUse" id="clipPath16">
<path d="M494 221 L647 221 L647 251 L494 251 L494 221 Z"/>
</clipPath>
<clipPath clipPathUnits="userSpaceOnUse" id="clipPath17">
<path d="M-1 -1 L657 -1 L657 261 L-1 261 L-1 -1 Z"/>
</clipPath>
<clipPath clipPathUnits="userSpaceOnUse" id="clipPath18">
<path d="M560 94 L573 94 L573 112 L560 112 L560 94 Z"/>
</clipPath>
<clipPath clipPathUnits="userSpaceOnUse" id="clipPath19">
<path d="M419 166 L478 166 L478 184 L419 184 L419 166 Z"/>
</clipPath>
<clipPath clipPathUnits="userSpaceOnUse" id="clipPath20">
<path d="M397 187 L410 187 L410 206 L397 206 L397 187 Z"/>
</clipPath>
</defs>
<g font-size="15" fill="white" font-family="'Ubuntu'" stroke-linejoin="round" stroke="white" stroke-width="0" stroke-miterlimit="0">
<rect x="10" y="10" clip-path="url(#clipPath1)" width="75" height="39" stroke="none"/>
<rect x="10" y="49" clip-path="url(#clipPath1)" fill="url(#linearGradient1)" width="121" height="61" stroke="none"/>
</g>
<g stroke-width="1.1" font-size="15" font-family="'Ubuntu'" stroke-linecap="butt">
<rect x="10" y="10" clip-path="url(#clipPath1)" fill="none" width="75" height="39"/>
<text font-size="13" x="20" y="28" clip-path="url(#clipPath2)" stroke="none" xml:space="preserve">«Profile»</text>
<text font-size="13" x="20" y="45" clip-path="url(#clipPath3)" stroke="none" xml:space="preserve">buildout</text>
<rect x="10" y="49" clip-path="url(#clipPath4)" fill="none" width="120" height="60"/>
<line clip-path="url(#clipPath4)" fill="none" x1="10" x2="131" y1="49" y2="49"/>
<rect x="10" y="10" clip-path="url(#clipPath1)" fill="none" width="75" height="39" stroke-width="0.1"/>
<rect x="236" y="11" clip-path="url(#clipPath5)" fill="white" width="409" height="83" stroke="none" stroke-width="0.1"/>
<rect x="235" y="10" clip-path="url(#clipPath5)" fill="url(#linearGradient2)" width="411" height="85" stroke="none" stroke-width="0.1"/>
<text font-size="13" x="418" y="57" clip-path="url(#clipPath6)" stroke="none" stroke-width="0.1" xml:space="preserve">Package</text>
<rect x="235" y="10" clip-path="url(#clipPath5)" fill="none" width="410" height="84"/>
<rect x="236" y="151" clip-path="url(#clipPath7)" fill="white" width="161" height="98" stroke="none"/>
<rect x="235" y="150" clip-path="url(#clipPath7)" fill="url(#linearGradient3)" width="163" height="100" stroke="none"/>
<text font-size="13" x="279" y="166" clip-path="url(#clipPath8)" stroke="none" xml:space="preserve">«Stereotype»</text>
<text font-size="13" x="245" y="183" clip-path="url(#clipPath9)" stroke="none" xml:space="preserve">self_contained_buildout</text>
<line clip-path="url(#clipPath10)" fill="none" x1="235" x2="398" y1="187" y2="187"/>
<line clip-path="url(#clipPath11)" fill="none" x1="235" x2="398" y1="222" y2="222"/>
<rect x="235" y="150" clip-path="url(#clipPath7)" fill="none" width="162" height="99"/>
<rect x="496" y="151" clip-path="url(#clipPath12)" fill="white" width="149" height="98" stroke="none"/>
<rect x="495" y="150" clip-path="url(#clipPath12)" fill="url(#linearGradient4)" width="151" height="100" stroke="none"/>
<text font-size="13" x="533" y="166" clip-path="url(#clipPath13)" stroke="none" xml:space="preserve">«Stereotype»</text>
<text font-size="13" x="508" y="183" clip-path="url(#clipPath14)" stroke="none" xml:space="preserve">plone_self_contained</text>
<line clip-path="url(#clipPath15)" fill="none" x1="495" x2="646" y1="187" y2="187"/>
<line clip-path="url(#clipPath16)" fill="none" x1="495" x2="646" y1="222" y2="222"/>
<rect x="495" y="150" clip-path="url(#clipPath12)" fill="none" width="150" height="99"/>
<line clip-path="url(#clipPath17)" fill="none" text-rendering="optimizeLegibility" x1="566" x2="566" y1="150" y2="124" stroke-width="2.1"/>
<line clip-path="url(#clipPath17)" fill="none" text-rendering="optimizeLegibility" x1="566" x2="566" y1="124" y2="95" stroke-width="2.1"/>
<polygon text-rendering="optimizeLegibility" stroke-width="2.1" clip-path="url(#clipPath18)" points=" 566 95 571 110 561 110" stroke="none"/>
<polygon fill="none" text-rendering="optimizeLegibility" clip-path="url(#clipPath18)" points=" 566 95 571 110 561 110"/>
<line clip-path="url(#clipPath17)" fill="none" text-rendering="optimizeLegibility" x1="495" x2="398" y1="196" y2="196"/>
<text font-size="13" x="420" y="180" clip-path="url(#clipPath19)" text-rendering="optimizeLegibility" stroke="none" xml:space="preserve">&lt;&lt;true&gt;&gt;</text>
</g>
<g font-size="13" stroke-linecap="butt" fill="white" text-rendering="optimizeLegibility" font-family="'Ubuntu'" stroke="white" stroke-width="1.1">
<polygon clip-path="url(#clipPath20)" points=" 398 196 408 188 408 204" stroke="none"/>
<polygon fill="none" clip-path="url(#clipPath20)" points=" 398 196 408 188 408 204" stroke="black"/>
</g>
</g>
</svg>
