<?xml version="1.0" encoding="UTF-8"?>
<svg xmlns="http://www.w3.org/2000/svg" xmlns:xlink="http://www.w3.org/1999/xlink" stroke-dasharray="none" shape-rendering="auto" font-family="'Dialog'" width="995" text-rendering="auto" fill-opacity="1" contentScriptType="text/ecmascript" color-interpolation="auto" color-rendering="auto" preserveAspectRatio="xMidYMid meet" font-size="12" viewBox="0 0 995 480" fill="black" stroke="black" image-rendering="auto" stroke-miterlimit="10" zoomAndPan="magnify" version="1.0" stroke-linecap="square" stroke-linejoin="miter" contentStyleType="text/css" font-style="normal" height="480" stroke-width="1" stroke-dashoffset="0" font-weight="normal" stroke-opacity="1">
<!--Generated by the Batik Graphics2D SVG Generator-->
<defs id="genericDefs"/>
<g>
<defs id="defs1">
<clipPath clipPathUnits="userSpaceOnUse" id="clipPath1">
<path d="M312 16 L414 16 L414 68 L312 68 L312 16 Z"/>
</clipPath>
<clipPath clipPathUnits="userSpaceOnUse" id="clipPath2">
<path d="M315 28 L414 28 L414 43 L315 43 L315 28 Z"/>
</clipPath>
<clipPath clipPathUnits="userSpaceOnUse" id="clipPath3">
<path d="M350 42 L381 42 L381 57 L350 57 L350 42 Z"/>
</clipPath>
<clipPath clipPathUnits="userSpaceOnUse" id="clipPath4">
<path d="M339 154 L441 154 L441 256 L339 256 L339 154 Z"/>
</clipPath>
<clipPath clipPathUnits="userSpaceOnUse" id="clipPath5">
<path d="M342 157 L441 157 L441 172 L342 172 L342 157 Z"/>
</clipPath>
<clipPath clipPathUnits="userSpaceOnUse" id="clipPath6">
<path d="M361 171 L425 171 L425 186 L361 186 L361 171 Z"/>
</clipPath>
<clipPath clipPathUnits="userSpaceOnUse" id="clipPath7">
<path d="M339 185 L441 185 L441 256 L339 256 L339 185 Z"/>
</clipPath>
<clipPath clipPathUnits="userSpaceOnUse" id="clipPath8">
<path d="M447 156 L549 156 L549 258 L447 258 L447 156 Z"/>
</clipPath>
<clipPath clipPathUnits="userSpaceOnUse" id="clipPath9">
<path d="M450 159 L549 159 L549 174 L450 174 L450 159 Z"/>
</clipPath>
<clipPath clipPathUnits="userSpaceOnUse" id="clipPath10">
<path d="M476 173 L526 173 L526 188 L476 188 L476 173 Z"/>
</clipPath>
<clipPath clipPathUnits="userSpaceOnUse" id="clipPath11">
<path d="M447 187 L549 187 L549 258 L447 258 L447 187 Z"/>
</clipPath>
<clipPath clipPathUnits="userSpaceOnUse" id="clipPath12">
<path d="M589 14 L691 14 L691 66 L589 66 L589 14 Z"/>
</clipPath>
<clipPath clipPathUnits="userSpaceOnUse" id="clipPath13">
<path d="M592 26 L691 26 L691 41 L592 41 L592 26 Z"/>
</clipPath>
<clipPath clipPathUnits="userSpaceOnUse" id="clipPath14">
<path d="M619 40 L666 40 L666 55 L619 55 L619 40 Z"/>
</clipPath>
<clipPath clipPathUnits="userSpaceOnUse" id="clipPath15">
<path d="M569 154 L687 154 L687 287 L569 287 L569 154 Z"/>
</clipPath>
<clipPath clipPathUnits="userSpaceOnUse" id="clipPath16">
<path d="M572 157 L687 157 L687 172 L572 172 L572 157 Z"/>
</clipPath>
<clipPath clipPathUnits="userSpaceOnUse" id="clipPath17">
<path d="M610 171 L652 171 L652 186 L610 186 L610 171 Z"/>
</clipPath>
<clipPath clipPathUnits="userSpaceOnUse" id="clipPath18">
<path d="M574 187 L654 187 L654 200 L574 200 L574 187 Z"/>
</clipPath>
<clipPath clipPathUnits="userSpaceOnUse" id="clipPath19">
<path d="M574 198 L665 198 L665 211 L574 211 L574 198 Z"/>
</clipPath>
<clipPath clipPathUnits="userSpaceOnUse" id="clipPath20">
<path d="M574 209 L659 209 L659 222 L574 222 L574 209 Z"/>
</clipPath>
<clipPath clipPathUnits="userSpaceOnUse" id="clipPath21">
<path d="M574 220 L651 220 L651 233 L574 233 L574 220 Z"/>
</clipPath>
<clipPath clipPathUnits="userSpaceOnUse" id="clipPath22">
<path d="M574 231 L682 231 L682 244 L574 244 L574 231 Z"/>
</clipPath>
<clipPath clipPathUnits="userSpaceOnUse" id="clipPath23">
<path d="M569 185 L687 185 L687 287 L569 287 L569 185 Z"/>
</clipPath>
<clipPath clipPathUnits="userSpaceOnUse" id="clipPath24">
<path d="M759 154 L861 154 L861 256 L759 256 L759 154 Z"/>
</clipPath>
<clipPath clipPathUnits="userSpaceOnUse" id="clipPath25">
<path d="M762 157 L861 157 L861 172 L762 172 L762 157 Z"/>
</clipPath>
<clipPath clipPathUnits="userSpaceOnUse" id="clipPath26">
<path d="M791 171 L835 171 L835 186 L791 186 L791 171 Z"/>
</clipPath>
<clipPath clipPathUnits="userSpaceOnUse" id="clipPath27">
<path d="M759 185 L861 185 L861 256 L759 256 L759 185 Z"/>
</clipPath>
<clipPath clipPathUnits="userSpaceOnUse" id="clipPath28">
<path d="M84 265 L186 265 L186 317 L84 317 L84 265 Z"/>
</clipPath>
<clipPath clipPathUnits="userSpaceOnUse" id="clipPath29">
<path d="M87 277 L186 277 L186 292 L87 292 L87 277 Z"/>
</clipPath>
<clipPath clipPathUnits="userSpaceOnUse" id="clipPath30">
<path d="M115 291 L161 291 L161 306 L115 306 L115 291 Z"/>
</clipPath>
<clipPath clipPathUnits="userSpaceOnUse" id="clipPath31">
<path d="M49 354 L190 354 L190 471 L49 471 L49 354 Z"/>
</clipPath>
<clipPath clipPathUnits="userSpaceOnUse" id="clipPath32">
<path d="M52 357 L190 357 L190 372 L52 372 L52 357 Z"/>
</clipPath>
<clipPath clipPathUnits="userSpaceOnUse" id="clipPath33">
<path d="M86 371 L158 371 L158 386 L86 386 L86 371 Z"/>
</clipPath>
<clipPath clipPathUnits="userSpaceOnUse" id="clipPath34">
<path d="M54 387 L181 387 L181 402 L54 402 L54 387 Z"/>
</clipPath>
<clipPath clipPathUnits="userSpaceOnUse" id="clipPath35">
<path d="M54 400 L167 400 L167 415 L54 415 L54 400 Z"/>
</clipPath>
<clipPath clipPathUnits="userSpaceOnUse" id="clipPath36">
<path d="M54 413 L185 413 L185 428 L54 428 L54 413 Z"/>
</clipPath>
<clipPath clipPathUnits="userSpaceOnUse" id="clipPath37">
<path d="M49 385 L190 385 L190 471 L49 471 L49 385 Z"/>
</clipPath>
<clipPath clipPathUnits="userSpaceOnUse" id="clipPath38">
<path d="M459 264 L561 264 L561 316 L459 316 L459 264 Z"/>
</clipPath>
<clipPath clipPathUnits="userSpaceOnUse" id="clipPath39">
<path d="M462 278 L561 278 L561 291 L462 291 L462 278 Z"/>
</clipPath>
<clipPath clipPathUnits="userSpaceOnUse" id="clipPath40">
<path d="M486 290 L539 290 L539 303 L486 303 L486 290 Z"/>
</clipPath>
<clipPath clipPathUnits="userSpaceOnUse" id="clipPath41">
<path d="M309 359 L436 359 L436 461 L309 461 L309 359 Z"/>
</clipPath>
<clipPath clipPathUnits="userSpaceOnUse" id="clipPath42">
<path d="M312 362 L436 362 L436 375 L312 375 L312 362 Z"/>
</clipPath>
<clipPath clipPathUnits="userSpaceOnUse" id="clipPath43">
<path d="M335 374 L415 374 L415 387 L335 387 L335 374 Z"/>
</clipPath>
<clipPath clipPathUnits="userSpaceOnUse" id="clipPath44">
<path d="M314 388 L376 388 L376 401 L314 401 L314 388 Z"/>
</clipPath>
<clipPath clipPathUnits="userSpaceOnUse" id="clipPath45">
<path d="M309 386 L436 386 L436 461 L309 461 L309 386 Z"/>
</clipPath>
<clipPath clipPathUnits="userSpaceOnUse" id="clipPath46">
<path d="M469 359 L571 359 L571 461 L469 461 L469 359 Z"/>
</clipPath>
<clipPath clipPathUnits="userSpaceOnUse" id="clipPath47">
<path d="M472 362 L571 362 L571 375 L472 375 L472 362 Z"/>
</clipPath>
<clipPath clipPathUnits="userSpaceOnUse" id="clipPath48">
<path d="M513 374 L533 374 L533 387 L513 387 L513 374 Z"/>
</clipPath>
<clipPath clipPathUnits="userSpaceOnUse" id="clipPath49">
<path d="M474 388 L556 388 L556 401 L474 401 L474 388 Z"/>
</clipPath>
<clipPath clipPathUnits="userSpaceOnUse" id="clipPath50">
<path d="M469 386 L571 386 L571 461 L469 461 L469 386 Z"/>
</clipPath>
<clipPath clipPathUnits="userSpaceOnUse" id="clipPath51">
<path d="M604 359 L706 359 L706 461 L604 461 L604 359 Z"/>
</clipPath>
<clipPath clipPathUnits="userSpaceOnUse" id="clipPath52">
<path d="M607 362 L706 362 L706 375 L607 375 L607 362 Z"/>
</clipPath>
<clipPath clipPathUnits="userSpaceOnUse" id="clipPath53">
<path d="M639 374 L676 374 L676 387 L639 387 L639 374 Z"/>
</clipPath>
<clipPath clipPathUnits="userSpaceOnUse" id="clipPath54">
<path d="M609 388 L694 388 L694 401 L609 401 L609 388 Z"/>
</clipPath>
<clipPath clipPathUnits="userSpaceOnUse" id="clipPath55">
<path d="M604 386 L706 386 L706 461 L604 461 L604 386 Z"/>
</clipPath>
<clipPath clipPathUnits="userSpaceOnUse" id="clipPath56">
<path d="M884 9 L986 9 L986 61 L884 61 L884 9 Z"/>
</clipPath>
<clipPath clipPathUnits="userSpaceOnUse" id="clipPath57">
<path d="M887 23 L986 23 L986 36 L887 36 L887 23 Z"/>
</clipPath>
<clipPath clipPathUnits="userSpaceOnUse" id="clipPath58">
<path d="M907 35 L968 35 L968 48 L907 48 L907 35 Z"/>
</clipPath>
<clipPath clipPathUnits="userSpaceOnUse" id="clipPath59">
<path d="M874 144 L985 144 L985 251 L874 251 L874 144 Z"/>
</clipPath>
<clipPath clipPathUnits="userSpaceOnUse" id="clipPath60">
<path d="M877 147 L985 147 L985 160 L877 160 L877 147 Z"/>
</clipPath>
<clipPath clipPathUnits="userSpaceOnUse" id="clipPath61">
<path d="M913 159 L952 159 L952 172 L913 172 L913 159 Z"/>
</clipPath>
<clipPath clipPathUnits="userSpaceOnUse" id="clipPath62">
<path d="M879 173 L971 173 L971 186 L879 186 L879 173 Z"/>
</clipPath>
<clipPath clipPathUnits="userSpaceOnUse" id="clipPath63">
<path d="M879 184 L980 184 L980 197 L879 197 L879 184 Z"/>
</clipPath>
<clipPath clipPathUnits="userSpaceOnUse" id="clipPath64">
<path d="M879 195 L956 195 L956 208 L879 208 L879 195 Z"/>
</clipPath>
<clipPath clipPathUnits="userSpaceOnUse" id="clipPath65">
<path d="M874 171 L985 171 L985 251 L874 251 L874 171 Z"/>
</clipPath>
<clipPath clipPathUnits="userSpaceOnUse" id="clipPath66">
<path d="M164 154 L327 154 L327 256 L164 256 L164 154 Z"/>
</clipPath>
<clipPath clipPathUnits="userSpaceOnUse" id="clipPath67">
<path d="M167 157 L327 157 L327 170 L167 170 L167 157 Z"/>
</clipPath>
<clipPath clipPathUnits="userSpaceOnUse" id="clipPath68">
<path d="M189 169 L308 169 L308 182 L189 182 L189 169 Z"/>
</clipPath>
<clipPath clipPathUnits="userSpaceOnUse" id="clipPath69">
<path d="M164 181 L327 181 L327 256 L164 256 L164 181 Z"/>
</clipPath>
<clipPath clipPathUnits="userSpaceOnUse" id="clipPath70">
<path d="M9 154 L118 154 L118 256 L9 256 L9 154 Z"/>
</clipPath>
<clipPath clipPathUnits="userSpaceOnUse" id="clipPath71">
<path d="M12 157 L118 157 L118 170 L12 170 L12 157 Z"/>
</clipPath>
<clipPath clipPathUnits="userSpaceOnUse" id="clipPath72">
<path d="M12 169 L118 169 L118 182 L12 182 L12 169 Z"/>
</clipPath>
<clipPath clipPathUnits="userSpaceOnUse" id="clipPath73">
<path d="M9 181 L118 181 L118 256 L9 256 L9 181 Z"/>
</clipPath>
<clipPath clipPathUnits="userSpaceOnUse" id="clipPath74">
<path d="M-1 -1 L996 -1 L996 481 L-1 481 L-1 -1 Z"/>
</clipPath>
<clipPath clipPathUnits="userSpaceOnUse" id="clipPath75">
<path d="M363 66 L376 66 L376 85 L363 85 L363 66 Z"/>
</clipPath>
<clipPath clipPathUnits="userSpaceOnUse" id="clipPath76">
<path d="M391 66 L409 66 L409 83 L391 83 L391 66 Z"/>
</clipPath>
<clipPath clipPathUnits="userSpaceOnUse" id="clipPath77">
<path d="M628 64 L641 64 L641 82 L628 82 L628 64 Z"/>
</clipPath>
<clipPath clipPathUnits="userSpaceOnUse" id="clipPath78">
<path d="M685 230 L700 230 L700 249 L685 249 L685 230 Z"/>
</clipPath>
<clipPath clipPathUnits="userSpaceOnUse" id="clipPath79">
<path d="M670 64 L688 64 L688 80 L670 80 L670 64 Z"/>
</clipPath>
<clipPath clipPathUnits="userSpaceOnUse" id="clipPath80">
<path d="M120 315 L133 315 L133 333 L120 333 L120 315 Z"/>
</clipPath>
<clipPath clipPathUnits="userSpaceOnUse" id="clipPath81">
<path d="M443 311 L462 311 L462 325 L443 325 L443 311 Z"/>
</clipPath>
<clipPath clipPathUnits="userSpaceOnUse" id="clipPath82">
<path d="M550 314 L568 314 L568 329 L550 329 L550 314 Z"/>
</clipPath>
<clipPath clipPathUnits="userSpaceOnUse" id="clipPath83">
<path d="M495 314 L508 314 L508 332 L495 332 L495 314 Z"/>
</clipPath>
<clipPath clipPathUnits="userSpaceOnUse" id="clipPath84">
<path d="M929 59 L942 59 L942 77 L929 77 L929 59 Z"/>
</clipPath>
<clipPath clipPathUnits="userSpaceOnUse" id="clipPath85">
<path d="M330 66 L346 66 L346 84 L330 84 L330 66 Z"/>
</clipPath>
<clipPath clipPathUnits="userSpaceOnUse" id="clipPath86">
<path d="M300 66 L319 66 L319 81 L300 81 L300 66 Z"/>
</clipPath>
</defs>
<g font-size="11" fill="white" font-family="'Lucida Grande'" stroke-linejoin="round" stroke="white" stroke-width="0" stroke-miterlimit="0">
<rect x="314" y="18" clip-path="url(#clipPath1)" width="98" height="48" stroke="none"/>
<rect x="313" y="17" clip-path="url(#clipPath1)" width="100" height="50" stroke="none"/>
<text x="333" y="40" clip-path="url(#clipPath2)" fill="black" stroke="none" xml:space="preserve">«metaclass»</text>
<text x="351" y="54" clip-path="url(#clipPath3)" fill="black" stroke="none" xml:space="preserve">Class</text>
</g>
<g stroke-width="1.1" font-size="11" font-family="'Lucida Grande'" stroke-linecap="butt">
<rect x="313" y="17" clip-path="url(#clipPath1)" fill="none" width="99" height="49"/>
<rect x="341" y="156" clip-path="url(#clipPath4)" fill="white" width="98" height="98" stroke="none"/>
<rect x="340" y="155" clip-path="url(#clipPath4)" fill="white" width="100" height="100" stroke="none"/>
<text xml:space="preserve" x="359" y="169" clip-path="url(#clipPath5)" stroke="none">«Stereotype»</text>
<text xml:space="preserve" x="362" y="183" clip-path="url(#clipPath6)" stroke="none">sql_content</text>
<line clip-path="url(#clipPath7)" fill="none" x1="340" x2="440" y1="186" y2="186"/>
<rect x="340" y="155" clip-path="url(#clipPath4)" fill="none" width="99" height="99"/>
<rect x="449" y="158" clip-path="url(#clipPath8)" fill="white" width="98" height="98" stroke="none"/>
<rect x="448" y="157" clip-path="url(#clipPath8)" fill="white" width="100" height="100" stroke="none"/>
<text xml:space="preserve" x="467" y="171" clip-path="url(#clipPath9)" stroke="none">«Stereotype»</text>
<text xml:space="preserve" x="477" y="185" clip-path="url(#clipPath10)" stroke="none">sql_table</text>
<line clip-path="url(#clipPath11)" fill="none" x1="448" x2="548" y1="188" y2="188"/>
<rect x="448" y="157" clip-path="url(#clipPath8)" fill="none" width="99" height="99"/>
<rect x="591" y="16" clip-path="url(#clipPath12)" fill="white" width="98" height="48" stroke="none"/>
<rect x="590" y="15" clip-path="url(#clipPath12)" fill="white" width="100" height="50" stroke="none"/>
<text xml:space="preserve" x="610" y="38" clip-path="url(#clipPath13)" stroke="none">«metaclass»</text>
<text xml:space="preserve" x="620" y="52" clip-path="url(#clipPath14)" stroke="none">Property</text>
<rect x="590" y="15" clip-path="url(#clipPath12)" fill="none" width="99" height="49"/>
<rect x="571" y="156" clip-path="url(#clipPath15)" fill="white" width="114" height="129" stroke="none"/>
<rect x="570" y="155" clip-path="url(#clipPath15)" fill="white" width="116" height="131" stroke="none"/>
<text xml:space="preserve" x="597" y="169" clip-path="url(#clipPath16)" stroke="none">«Stereotype»</text>
<text xml:space="preserve" x="611" y="183" clip-path="url(#clipPath17)" stroke="none">column</text>
<text font-size="9" x="575" y="197" clip-path="url(#clipPath18)" stroke="none" xml:space="preserve"> + index: Boolean</text>
<text font-size="9" x="575" y="208" clip-path="url(#clipPath19)" stroke="none" xml:space="preserve"> + not_null: Boolean</text>
<text font-size="9" x="575" y="219" clip-path="url(#clipPath20)" stroke="none" xml:space="preserve"> + unique: Boolean</text>
<text font-size="9" x="575" y="230" clip-path="url(#clipPath21)" stroke="none" xml:space="preserve"> + default: String</text>
<text font-size="9" x="575" y="241" clip-path="url(#clipPath22)" stroke="none" xml:space="preserve"> + server_default: String</text>
<line clip-path="url(#clipPath23)" fill="none" x1="570" x2="686" y1="186" y2="186"/>
<rect x="570" y="155" clip-path="url(#clipPath15)" fill="none" width="115" height="130"/>
<rect x="761" y="156" clip-path="url(#clipPath24)" fill="white" width="98" height="98" stroke="none"/>
<rect x="760" y="155" clip-path="url(#clipPath24)" fill="white" width="100" height="100" stroke="none"/>
<text xml:space="preserve" x="779" y="169" clip-path="url(#clipPath25)" stroke="none">«Stereotype»</text>
<text xml:space="preserve" x="792" y="183" clip-path="url(#clipPath26)" stroke="none">primary</text>
<line clip-path="url(#clipPath27)" fill="none" x1="760" x2="860" y1="186" y2="186"/>
<rect x="760" y="155" clip-path="url(#clipPath24)" fill="none" width="99" height="99"/>
<rect x="86" y="267" clip-path="url(#clipPath28)" fill="white" width="98" height="48" stroke="none"/>
<rect x="85" y="266" clip-path="url(#clipPath28)" fill="white" width="100" height="50" stroke="none"/>
<text xml:space="preserve" x="105" y="289" clip-path="url(#clipPath29)" stroke="none">«metaclass»</text>
<text xml:space="preserve" x="116" y="303" clip-path="url(#clipPath30)" stroke="none">Package</text>
<rect x="85" y="266" clip-path="url(#clipPath28)" fill="none" width="99" height="49"/>
<rect x="51" y="356" clip-path="url(#clipPath31)" fill="white" width="137" height="113" stroke="none"/>
<rect x="50" y="355" clip-path="url(#clipPath31)" fill="white" width="139" height="115" stroke="none"/>
<text xml:space="preserve" x="88" y="369" clip-path="url(#clipPath32)" stroke="none">«Stereotype»</text>
<text xml:space="preserve" x="87" y="383" clip-path="url(#clipPath33)" stroke="none">z3c_saconfig</text>
<text xml:space="preserve" x="55" y="399" clip-path="url(#clipPath34)" stroke="none"> + engine_name: String</text>
<text xml:space="preserve" x="55" y="412" clip-path="url(#clipPath35)" stroke="none"> + engine_url: String</text>
<text xml:space="preserve" x="55" y="425" clip-path="url(#clipPath36)" stroke="none"> + session_name: String</text>
<line clip-path="url(#clipPath37)" fill="none" x1="50" x2="189" y1="386" y2="386"/>
<rect x="50" y="355" clip-path="url(#clipPath31)" fill="none" width="138" height="114"/>
<rect x="461" y="266" clip-path="url(#clipPath38)" fill="white" width="98" height="48" stroke="none"/>
<rect x="460" y="265" clip-path="url(#clipPath38)" fill="white" width="100" height="50" stroke="none"/>
<text font-size="9" x="486" y="288" clip-path="url(#clipPath39)" stroke="none" xml:space="preserve">«metaclass»</text>
<text font-size="9" x="487" y="300" clip-path="url(#clipPath40)" stroke="none" xml:space="preserve">Association</text>
<rect x="460" y="265" clip-path="url(#clipPath38)" fill="none" width="99" height="49"/>
<rect x="311" y="361" clip-path="url(#clipPath41)" fill="white" width="123" height="98" stroke="none"/>
<rect x="310" y="360" clip-path="url(#clipPath41)" fill="white" width="125" height="100" stroke="none"/>
<text font-size="9" x="347" y="372" clip-path="url(#clipPath42)" stroke="none" xml:space="preserve">«Stereotype»</text>
<text font-size="9" x="336" y="384" clip-path="url(#clipPath43)" stroke="none" xml:space="preserve">attribute_mapped</text>
<text font-size="9" x="315" y="398" clip-path="url(#clipPath44)" stroke="none" xml:space="preserve"> + key: String</text>
<line clip-path="url(#clipPath45)" fill="none" x1="310" x2="435" y1="387" y2="387"/>
<rect x="310" y="360" clip-path="url(#clipPath41)" fill="none" width="124" height="99"/>
<rect x="471" y="361" clip-path="url(#clipPath46)" fill="white" width="98" height="98" stroke="none"/>
<rect x="470" y="360" clip-path="url(#clipPath46)" fill="white" width="100" height="100" stroke="none"/>
<text font-size="9" x="495" y="372" clip-path="url(#clipPath47)" stroke="none" xml:space="preserve">«Stereotype»</text>
<text font-size="9" x="514" y="384" clip-path="url(#clipPath48)" stroke="none" xml:space="preserve">lazy</text>
<text font-size="9" x="475" y="398" clip-path="url(#clipPath49)" stroke="none" xml:space="preserve"> + laziness: String</text>
<line clip-path="url(#clipPath50)" fill="none" x1="470" x2="570" y1="387" y2="387"/>
<rect x="470" y="360" clip-path="url(#clipPath46)" fill="none" width="99" height="99"/>
<rect x="606" y="361" clip-path="url(#clipPath51)" fill="white" width="98" height="98" stroke="none"/>
<rect x="605" y="360" clip-path="url(#clipPath51)" fill="white" width="100" height="100" stroke="none"/>
<text font-size="9" x="630" y="372" clip-path="url(#clipPath52)" stroke="none" xml:space="preserve">«Stereotype»</text>
<text font-size="9" x="640" y="384" clip-path="url(#clipPath53)" stroke="none" xml:space="preserve">ordered</text>
<text font-size="9" x="610" y="398" clip-path="url(#clipPath54)" stroke="none" xml:space="preserve"> + order_by: String</text>
<line clip-path="url(#clipPath55)" fill="none" x1="605" x2="705" y1="387" y2="387"/>
<rect x="605" y="360" clip-path="url(#clipPath51)" fill="none" width="99" height="99"/>
<rect x="886" y="11" clip-path="url(#clipPath56)" fill="white" width="98" height="48" stroke="none"/>
<rect x="885" y="10" clip-path="url(#clipPath56)" fill="white" width="100" height="50" stroke="none"/>
<text font-size="9" x="911" y="33" clip-path="url(#clipPath57)" stroke="none" xml:space="preserve">«metaclass»</text>
<text font-size="9" x="908" y="45" clip-path="url(#clipPath58)" stroke="none" xml:space="preserve">PrimitiveType</text>
<rect x="885" y="10" clip-path="url(#clipPath56)" fill="none" width="99" height="49"/>
<rect x="876" y="146" clip-path="url(#clipPath59)" fill="white" width="107" height="103" stroke="none"/>
<rect x="875" y="145" clip-path="url(#clipPath59)" fill="white" width="109" height="105" stroke="none"/>
<text font-size="9" x="904" y="157" clip-path="url(#clipPath60)" stroke="none" xml:space="preserve">«Stereotype»</text>
<text font-size="9" x="914" y="169" clip-path="url(#clipPath61)" stroke="none" xml:space="preserve">sql_type</text>
<text font-size="9" x="880" y="183" clip-path="url(#clipPath62)" stroke="none" xml:space="preserve"> + classname: String</text>
<text font-size="9" x="880" y="194" clip-path="url(#clipPath63)" stroke="none" xml:space="preserve"> + import_from: String</text>
<text font-size="9" x="880" y="205" clip-path="url(#clipPath64)" stroke="none" xml:space="preserve"> + default: String</text>
<line clip-path="url(#clipPath65)" fill="none" x1="875" x2="984" y1="172" y2="172"/>
<rect x="875" y="145" clip-path="url(#clipPath59)" fill="none" width="108" height="104"/>
<rect x="166" y="156" clip-path="url(#clipPath66)" fill="white" width="159" height="98" stroke="none"/>
<rect x="165" y="155" clip-path="url(#clipPath66)" fill="white" width="161" height="100" stroke="none"/>
<text font-size="9" x="220" y="167" clip-path="url(#clipPath67)" stroke="none" xml:space="preserve">«Stereotype»</text>
<text font-size="9" x="190" y="179" clip-path="url(#clipPath68)" stroke="none" xml:space="preserve">concrete_table_inheritance</text>
<line clip-path="url(#clipPath69)" fill="none" x1="165" x2="326" y1="182" y2="182"/>
<rect x="165" y="155" clip-path="url(#clipPath66)" fill="none" width="160" height="99"/>
<rect x="11" y="156" clip-path="url(#clipPath70)" fill="white" width="105" height="98" stroke="none"/>
<rect x="10" y="155" clip-path="url(#clipPath70)" fill="white" width="107" height="100" stroke="none"/>
<text font-size="9" x="38" y="167" clip-path="url(#clipPath71)" stroke="none" xml:space="preserve">«Stereotype»</text>
<text font-size="9" x="13" y="179" clip-path="url(#clipPath72)" stroke="none" xml:space="preserve">joined_table_inheritance</text>
<line clip-path="url(#clipPath73)" fill="none" x1="10" x2="117" y1="182" y2="182"/>
<rect x="10" y="155" clip-path="url(#clipPath70)" fill="none" width="106" height="99"/>
<line clip-path="url(#clipPath74)" fill="none" text-rendering="optimizeLegibility" x1="381" x2="367" y1="155" y2="67" stroke-width="2.1"/>
<polygon text-rendering="optimizeLegibility" stroke-width="2.1" clip-path="url(#clipPath75)" points=" 367 67 374 81 364 83" stroke="none"/>
<polygon fill="none" text-rendering="optimizeLegibility" clip-path="url(#clipPath75)" points=" 367 67 374 81 364 83"/>
<line clip-path="url(#clipPath74)" fill="none" text-rendering="optimizeLegibility" x1="493" x2="392" y1="157" y2="67" stroke-width="2.1"/>
<polygon text-rendering="optimizeLegibility" stroke-width="2.1" clip-path="url(#clipPath76)" points=" 392 67 407 73 400 81" stroke="none"/>
<polygon fill="none" text-rendering="optimizeLegibility" clip-path="url(#clipPath76)" points=" 392 67 407 73 400 81"/>
<line clip-path="url(#clipPath74)" fill="none" text-rendering="optimizeLegibility" x1="626" x2="636" y1="155" y2="65" stroke-width="2.1"/>
<polygon text-rendering="optimizeLegibility" stroke-width="2.1" clip-path="url(#clipPath77)" points=" 636 65 639 80 629 79" stroke="none"/>
<polygon fill="none" text-rendering="optimizeLegibility" clip-path="url(#clipPath77)" points=" 636 65 639 80 629 79"/>
<line clip-path="url(#clipPath74)" fill="none" text-rendering="optimizeLegibility" x1="760" x2="686" y1="220" y2="242"/>
<polygon fill="white" text-rendering="optimizeLegibility" clip-path="url(#clipPath78)" points=" 686 242 693 231 698 247" stroke="none"/>
<polygon fill="none" text-rendering="optimizeLegibility" clip-path="url(#clipPath78)" points=" 686 242 693 231 698 247"/>
<line clip-path="url(#clipPath74)" fill="none" text-rendering="optimizeLegibility" x1="786" x2="671" y1="155" y2="65" stroke-width="2.1"/>
<polygon text-rendering="optimizeLegibility" stroke-width="2.1" clip-path="url(#clipPath79)" points=" 671 65 686 70 680 78" stroke="none"/>
<polygon fill="none" text-rendering="optimizeLegibility" clip-path="url(#clipPath79)" points=" 671 65 686 70 680 78"/>
<line clip-path="url(#clipPath74)" fill="none" text-rendering="optimizeLegibility" x1="126" x2="126" y1="355" y2="316" stroke-width="2.1"/>
<polygon text-rendering="optimizeLegibility" stroke-width="2.1" clip-path="url(#clipPath80)" points=" 126 316 131 331 121 331" stroke="none"/>
<polygon fill="none" text-rendering="optimizeLegibility" clip-path="url(#clipPath80)" points=" 126 316 131 331 121 331"/>
<line clip-path="url(#clipPath74)" fill="none" text-rendering="optimizeLegibility" x1="351" x2="460" y1="360" y2="312" stroke-width="2.1"/>
<polygon text-rendering="optimizeLegibility" stroke-width="2.1" clip-path="url(#clipPath81)" points=" 460 312 448 323 444 313" stroke="none"/>
<polygon fill="none" text-rendering="optimizeLegibility" clip-path="url(#clipPath81)" points=" 460 312 448 323 444 313"/>
<line clip-path="url(#clipPath74)" fill="none" text-rendering="optimizeLegibility" x1="625" x2="551" y1="360" y2="315" stroke-width="2.1"/>
<polygon text-rendering="optimizeLegibility" stroke-width="2.1" clip-path="url(#clipPath82)" points=" 551 315 566 319 561 327" stroke="none"/>
<polygon fill="none" text-rendering="optimizeLegibility" clip-path="url(#clipPath82)" points=" 551 315 566 319 561 327"/>
<line clip-path="url(#clipPath74)" fill="none" text-rendering="optimizeLegibility" x1="501" x2="501" y1="360" y2="315" stroke-width="2.1"/>
<polygon text-rendering="optimizeLegibility" stroke-width="2.1" clip-path="url(#clipPath83)" points=" 501 315 506 330 496 330" stroke="none"/>
<polygon fill="none" text-rendering="optimizeLegibility" clip-path="url(#clipPath83)" points=" 501 315 506 330 496 330"/>
<line clip-path="url(#clipPath74)" fill="none" text-rendering="optimizeLegibility" x1="935" x2="935" y1="145" y2="60" stroke-width="2.1"/>
<polygon text-rendering="optimizeLegibility" stroke-width="2.1" clip-path="url(#clipPath84)" points=" 935 60 940 75 930 75" stroke="none"/>
<polygon fill="none" text-rendering="optimizeLegibility" clip-path="url(#clipPath84)" points=" 935 60 940 75 930 75"/>
<line clip-path="url(#clipPath74)" fill="none" text-rendering="optimizeLegibility" x1="281" x2="344" y1="155" y2="67" stroke-width="2.1"/>
<polygon text-rendering="optimizeLegibility" stroke-width="2.1" clip-path="url(#clipPath85)" points=" 344 67 339 82 331 76" stroke="none"/>
<polygon fill="none" text-rendering="optimizeLegibility" clip-path="url(#clipPath85)" points=" 344 67 339 82 331 76"/>
<line clip-path="url(#clipPath74)" fill="none" text-rendering="optimizeLegibility" x1="117" x2="317" y1="175" y2="67" stroke-width="2.1"/>
<polygon text-rendering="optimizeLegibility" stroke-width="2.1" clip-path="url(#clipPath86)" points=" 317 67 306 79 301 70" stroke="none"/>
<polygon fill="none" text-rendering="optimizeLegibility" clip-path="url(#clipPath86)" points=" 317 67 306 79 301 70"/>
</g>
</g>
</svg>
