<?xml version="1.0" encoding="UTF-8" standalone="no"?>
<!DOCTYPE svg PUBLIC "-//W3C//DTD SVG 1.1//EN"
 "http://www.w3.org/Graphics/SVG/1.1/DTD/svg11.dtd">
<!-- Generated by graphviz version 2.26.3 (20100126.1600)
 -->
<!-- Title: dependencies Pages: 1 -->
<svg width="648pt" height="410pt"
 viewBox="0.00 0.00 648.00 409.74" xmlns="http://www.w3.org/2000/svg" xmlns:xlink="http://www.w3.org/1999/xlink">
<g id="graph1" class="graph" transform="scale(0.64222 0.64222) rotate(0) translate(4 634)">
<title>dependencies</title>
<polygon fill="white" stroke="white" points="-4,5 -4,-634 1006,-634 1006,5 -4,5"/>
<!-- lxml -->
<g id="node1" class="node"><title>lxml</title>
<polygon fill="#e5e5e5" stroke="#e5e5e5" points="111,-75 141,-75 153,-87 153,-99 141,-111 111,-111 99,-99 99,-87 111,-75"/>
<path fill="#e5e5e5" stroke="#e5e5e5" d="M141,-75C147,-75 153,-81 153,-87"/>
<path fill="#e5e5e5" stroke="#e5e5e5" d="M153,-99C153,-105 147,-111 141,-111"/>
<path fill="#e5e5e5" stroke="#e5e5e5" d="M111,-111C105,-111 99,-105 99,-99"/>
<path fill="#e5e5e5" stroke="#e5e5e5" d="M99,-87C99,-81 105,-75 111,-75"/>
<polyline fill="none" stroke="black" points="111,-75 141,-75 "/>
<path fill="none" stroke="black" d="M141,-75C147,-75 153,-81 153,-87"/>
<polyline fill="none" stroke="black" points="153,-87 153,-99 "/>
<path fill="none" stroke="black" d="M153,-99C153,-105 147,-111 141,-111"/>
<polyline fill="none" stroke="black" points="141,-111 111,-111 "/>
<path fill="none" stroke="black" d="M111,-111C105,-111 99,-105 99,-99"/>
<polyline fill="none" stroke="black" points="99,-99 99,-87 "/>
<path fill="none" stroke="black" d="M99,-87C99,-81 105,-75 111,-75"/>
<text text-anchor="middle" x="126" y="-89.4" font-family="Times Roman,serif" font-size="14.00">lxml</text>
</g>
<!-- uuid -->
<g id="node2" class="node"><title>uuid</title>
<polygon fill="#e5e5e5" stroke="#e5e5e5" points="114,-1 144,-1 156,-13 156,-25 144,-37 114,-37 102,-25 102,-13 114,-1"/>
<path fill="#e5e5e5" stroke="#e5e5e5" d="M144,-1C150,-1 156,-7 156,-13"/>
<path fill="#e5e5e5" stroke="#e5e5e5" d="M156,-25C156,-31 150,-37 144,-37"/>
<path fill="#e5e5e5" stroke="#e5e5e5" d="M114,-37C108,-37 102,-31 102,-25"/>
<path fill="#e5e5e5" stroke="#e5e5e5" d="M102,-13C102,-7 108,-1 114,-1"/>
<polyline fill="none" stroke="black" points="114,-1 144,-1 "/>
<path fill="none" stroke="black" d="M144,-1C150,-1 156,-7 156,-13"/>
<polyline fill="none" stroke="black" points="156,-13 156,-25 "/>
<path fill="none" stroke="black" d="M156,-25C156,-31 150,-37 144,-37"/>
<polyline fill="none" stroke="black" points="144,-37 114,-37 "/>
<path fill="none" stroke="black" d="M114,-37C108,-37 102,-31 102,-25"/>
<polyline fill="none" stroke="black" points="102,-25 102,-13 "/>
<path fill="none" stroke="black" d="M102,-13C102,-7 108,-1 114,-1"/>
<text text-anchor="middle" x="129" y="-15.4" font-family="Times Roman,serif" font-size="14.00">uuid</text>
</g>
<!-- odict -->
<g id="node3" class="node"><title>odict</title>
<polygon fill="#e5e5e5" stroke="#e5e5e5" points="186,-1 216,-1 228,-13 228,-25 216,-37 186,-37 174,-25 174,-13 186,-1"/>
<path fill="#e5e5e5" stroke="#e5e5e5" d="M216,-1C222,-1 228,-7 228,-13"/>
<path fill="#e5e5e5" stroke="#e5e5e5" d="M228,-25C228,-31 222,-37 216,-37"/>
<path fill="#e5e5e5" stroke="#e5e5e5" d="M186,-37C180,-37 174,-31 174,-25"/>
<path fill="#e5e5e5" stroke="#e5e5e5" d="M174,-13C174,-7 180,-1 186,-1"/>
<polyline fill="none" stroke="black" points="186,-1 216,-1 "/>
<path fill="none" stroke="black" d="M216,-1C222,-1 228,-7 228,-13"/>
<polyline fill="none" stroke="black" points="228,-13 228,-25 "/>
<path fill="none" stroke="black" d="M228,-25C228,-31 222,-37 216,-37"/>
<polyline fill="none" stroke="black" points="216,-37 186,-37 "/>
<path fill="none" stroke="black" d="M186,-37C180,-37 174,-31 174,-25"/>
<polyline fill="none" stroke="black" points="174,-25 174,-13 "/>
<path fill="none" stroke="black" d="M174,-13C174,-7 180,-1 186,-1"/>
<text text-anchor="middle" x="201" y="-15.4" font-family="Times Roman,serif" font-size="14.00">odict</text>
</g>
<!-- node -->
<g id="node4" class="node"><title>node</title>
<polygon fill="#e5e5e5" stroke="#e5e5e5" points="235,-75 265,-75 277,-87 277,-99 265,-111 235,-111 223,-99 223,-87 235,-75"/>
<path fill="#e5e5e5" stroke="#e5e5e5" d="M265,-75C271,-75 277,-81 277,-87"/>
<path fill="#e5e5e5" stroke="#e5e5e5" d="M277,-99C277,-105 271,-111 265,-111"/>
<path fill="#e5e5e5" stroke="#e5e5e5" d="M235,-111C229,-111 223,-105 223,-99"/>
<path fill="#e5e5e5" stroke="#e5e5e5" d="M223,-87C223,-81 229,-75 235,-75"/>
<polyline fill="none" stroke="black" points="235,-75 265,-75 "/>
<path fill="none" stroke="black" d="M265,-75C271,-75 277,-81 277,-87"/>
<polyline fill="none" stroke="black" points="277,-87 277,-99 "/>
<path fill="none" stroke="black" d="M277,-99C277,-105 271,-111 265,-111"/>
<polyline fill="none" stroke="black" points="265,-111 235,-111 "/>
<path fill="none" stroke="black" d="M235,-111C229,-111 223,-105 223,-99"/>
<polyline fill="none" stroke="black" points="223,-99 223,-87 "/>
<path fill="none" stroke="black" d="M223,-87C223,-81 229,-75 235,-75"/>
<text text-anchor="middle" x="250" y="-89.4" font-family="Times Roman,serif" font-size="14.00">node</text>
</g>
<!-- node&#45;&gt;uuid -->
<g id="edge2" class="edge"><title>node&#45;&gt;uuid</title>
<path fill="none" stroke="black" d="M222.845,-76.393C202.918,-64.2057 175.971,-47.7258 156.064,-35.5516"/>
</g>
<!-- node&#45;&gt;odict -->
<g id="edge4" class="edge"><title>node&#45;&gt;odict</title>
<path fill="none" stroke="black" d="M237.888,-74.7079C230.292,-63.2375 220.542,-48.512 212.973,-37.0817"/>
</g>
<!-- zope.location -->
<g id="node7" class="node"><title>zope.location</title>
<polygon fill="#e5e5e5" stroke="#e5e5e5" points="258,-1 342,-1 354,-13 354,-25 342,-37 258,-37 246,-25 246,-13 258,-1"/>
<path fill="#e5e5e5" stroke="#e5e5e5" d="M342,-1C348,-1 354,-7 354,-13"/>
<path fill="#e5e5e5" stroke="#e5e5e5" d="M354,-25C354,-31 348,-37 342,-37"/>
<path fill="#e5e5e5" stroke="#e5e5e5" d="M258,-37C252,-37 246,-31 246,-25"/>
<path fill="#e5e5e5" stroke="#e5e5e5" d="M246,-13C246,-7 252,-1 258,-1"/>
<polyline fill="none" stroke="black" points="258,-1 342,-1 "/>
<path fill="none" stroke="black" d="M342,-1C348,-1 354,-7 354,-13"/>
<polyline fill="none" stroke="black" points="354,-13 354,-25 "/>
<path fill="none" stroke="black" d="M354,-25C354,-31 348,-37 342,-37"/>
<polyline fill="none" stroke="black" points="342,-37 258,-37 "/>
<path fill="none" stroke="black" d="M258,-37C252,-37 246,-31 246,-25"/>
<polyline fill="none" stroke="black" points="246,-25 246,-13 "/>
<path fill="none" stroke="black" d="M246,-13C246,-7 252,-1 258,-1"/>
<text text-anchor="middle" x="300" y="-15.4" font-family="Times Roman,serif" font-size="14.00">zope.location</text>
</g>
<!-- node&#45;&gt;zope.location -->
<g id="edge6" class="edge"><title>node&#45;&gt;zope.location</title>
<path fill="none" stroke="black" d="M262.36,-74.7079C270.11,-63.2375 280.059,-48.512 287.783,-37.0817"/>
</g>
<!-- zope.lifecycleevent -->
<g id="node9" class="node"><title>zope.lifecycleevent</title>
<polygon fill="#e5e5e5" stroke="#e5e5e5" points="384,-1 508,-1 520,-13 520,-25 508,-37 384,-37 372,-25 372,-13 384,-1"/>
<path fill="#e5e5e5" stroke="#e5e5e5" d="M508,-1C514,-1 520,-7 520,-13"/>
<path fill="#e5e5e5" stroke="#e5e5e5" d="M520,-25C520,-31 514,-37 508,-37"/>
<path fill="#e5e5e5" stroke="#e5e5e5" d="M384,-37C378,-37 372,-31 372,-25"/>
<path fill="#e5e5e5" stroke="#e5e5e5" d="M372,-13C372,-7 378,-1 384,-1"/>
<polyline fill="none" stroke="black" points="384,-1 508,-1 "/>
<path fill="none" stroke="black" d="M508,-1C514,-1 520,-7 520,-13"/>
<polyline fill="none" stroke="black" points="520,-13 520,-25 "/>
<path fill="none" stroke="black" d="M520,-25C520,-31 514,-37 508,-37"/>
<polyline fill="none" stroke="black" points="508,-37 384,-37 "/>
<path fill="none" stroke="black" d="M384,-37C378,-37 372,-31 372,-25"/>
<polyline fill="none" stroke="black" points="372,-25 372,-13 "/>
<path fill="none" stroke="black" d="M372,-13C372,-7 378,-1 384,-1"/>
<text text-anchor="middle" x="446" y="-15.4" font-family="Times Roman,serif" font-size="14.00">zope.lifecycleevent</text>
</g>
<!-- node&#45;&gt;zope.lifecycleevent -->
<g id="edge8" class="edge"><title>node&#45;&gt;zope.lifecycleevent</title>
<path fill="none" stroke="black" d="M277.304,-78.0313C280.21,-76.6064 283.146,-75.2348 286,-74 318.484,-59.9447 355.837,-46.9352 386.279,-37.1012"/>
</g>
<!-- Chameleon -->
<g id="node5" class="node"><title>Chameleon</title>
<polygon fill="#e5e5e5" stroke="#e5e5e5" points="645,-149 715,-149 727,-161 727,-173 715,-185 645,-185 633,-173 633,-161 645,-149"/>
<path fill="#e5e5e5" stroke="#e5e5e5" d="M715,-149C721,-149 727,-155 727,-161"/>
<path fill="#e5e5e5" stroke="#e5e5e5" d="M727,-173C727,-179 721,-185 715,-185"/>
<path fill="#e5e5e5" stroke="#e5e5e5" d="M645,-185C639,-185 633,-179 633,-173"/>
<path fill="#e5e5e5" stroke="#e5e5e5" d="M633,-161C633,-155 639,-149 645,-149"/>
<polyline fill="none" stroke="black" points="645,-149 715,-149 "/>
<path fill="none" stroke="black" d="M715,-149C721,-149 727,-155 727,-161"/>
<polyline fill="none" stroke="black" points="727,-161 727,-173 "/>
<path fill="none" stroke="black" d="M727,-173C727,-179 721,-185 715,-185"/>
<polyline fill="none" stroke="black" points="715,-185 645,-185 "/>
<path fill="none" stroke="black" d="M645,-185C639,-185 633,-179 633,-173"/>
<polyline fill="none" stroke="black" points="633,-173 633,-161 "/>
<path fill="none" stroke="black" d="M633,-161C633,-155 639,-149 645,-149"/>
<text text-anchor="middle" x="680" y="-163.4" font-family="Times Roman,serif" font-size="14.00">Chameleon</text>
</g>
<!-- Jinja2 -->
<g id="node6" class="node"><title>Jinja2</title>
<polygon fill="#e5e5e5" stroke="#e5e5e5" points="756.5,-149 787.5,-149 799.5,-161 799.5,-173 787.5,-185 756.5,-185 744.5,-173 744.5,-161 756.5,-149"/>
<path fill="#e5e5e5" stroke="#e5e5e5" d="M787.5,-149C793.5,-149 799.5,-155 799.5,-161"/>
<path fill="#e5e5e5" stroke="#e5e5e5" d="M799.5,-173C799.5,-179 793.5,-185 787.5,-185"/>
<path fill="#e5e5e5" stroke="#e5e5e5" d="M756.5,-185C750.5,-185 744.5,-179 744.5,-173"/>
<path fill="#e5e5e5" stroke="#e5e5e5" d="M744.5,-161C744.5,-155 750.5,-149 756.5,-149"/>
<polyline fill="none" stroke="black" points="756.5,-149 787.5,-149 "/>
<path fill="none" stroke="black" d="M787.5,-149C793.5,-149 799.5,-155 799.5,-161"/>
<polyline fill="none" stroke="black" points="799.5,-161 799.5,-173 "/>
<path fill="none" stroke="black" d="M799.5,-173C799.5,-179 793.5,-185 787.5,-185"/>
<polyline fill="none" stroke="black" points="787.5,-185 756.5,-185 "/>
<path fill="none" stroke="black" d="M756.5,-185C750.5,-185 744.5,-179 744.5,-173"/>
<polyline fill="none" stroke="black" points="744.5,-173 744.5,-161 "/>
<path fill="none" stroke="black" d="M744.5,-161C744.5,-155 750.5,-149 756.5,-149"/>
<text text-anchor="middle" x="772" y="-163.4" font-family="Times Roman,serif" font-size="14.00">Jinja2</text>
</g>
<!-- zope.configuration -->
<g id="node8" class="node"><title>zope.configuration</title>
<polygon fill="#e5e5e5" stroke="#e5e5e5" points="306.5,-75 427.5,-75 439.5,-87 439.5,-99 427.5,-111 306.5,-111 294.5,-99 294.5,-87 306.5,-75"/>
<path fill="#e5e5e5" stroke="#e5e5e5" d="M427.5,-75C433.5,-75 439.5,-81 439.5,-87"/>
<path fill="#e5e5e5" stroke="#e5e5e5" d="M439.5,-99C439.5,-105 433.5,-111 427.5,-111"/>
<path fill="#e5e5e5" stroke="#e5e5e5" d="M306.5,-111C300.5,-111 294.5,-105 294.5,-99"/>
<path fill="#e5e5e5" stroke="#e5e5e5" d="M294.5,-87C294.5,-81 300.5,-75 306.5,-75"/>
<polyline fill="none" stroke="black" points="306.5,-75 427.5,-75 "/>
<path fill="none" stroke="black" d="M427.5,-75C433.5,-75 439.5,-81 439.5,-87"/>
<polyline fill="none" stroke="black" points="439.5,-87 439.5,-99 "/>
<path fill="none" stroke="black" d="M439.5,-99C439.5,-105 433.5,-111 427.5,-111"/>
<polyline fill="none" stroke="black" points="427.5,-111 306.5,-111 "/>
<path fill="none" stroke="black" d="M306.5,-111C300.5,-111 294.5,-105 294.5,-99"/>
<polyline fill="none" stroke="black" points="294.5,-99 294.5,-87 "/>
<path fill="none" stroke="black" d="M294.5,-87C294.5,-81 300.5,-75 306.5,-75"/>
<text text-anchor="middle" x="367" y="-89.4" font-family="Times Roman,serif" font-size="14.00">zope.configuration</text>
</g>
<!-- zope.documenttemplate -->
<g id="node10" class="node"><title>zope.documenttemplate</title>
<polygon fill="#e5e5e5" stroke="#e5e5e5" points="829,-149 989,-149 1001,-161 1001,-173 989,-185 829,-185 817,-173 817,-161 829,-149"/>
<path fill="#e5e5e5" stroke="#e5e5e5" d="M989,-149C995,-149 1001,-155 1001,-161"/>
<path fill="#e5e5e5" stroke="#e5e5e5" d="M1001,-173C1001,-179 995,-185 989,-185"/>
<path fill="#e5e5e5" stroke="#e5e5e5" d="M829,-185C823,-185 817,-179 817,-173"/>
<path fill="#e5e5e5" stroke="#e5e5e5" d="M817,-161C817,-155 823,-149 829,-149"/>
<polyline fill="none" stroke="black" points="829,-149 989,-149 "/>
<path fill="none" stroke="black" d="M989,-149C995,-149 1001,-155 1001,-161"/>
<polyline fill="none" stroke="black" points="1001,-161 1001,-173 "/>
<path fill="none" stroke="black" d="M1001,-173C1001,-179 995,-185 989,-185"/>
<polyline fill="none" stroke="black" points="989,-185 829,-185 "/>
<path fill="none" stroke="black" d="M829,-185C823,-185 817,-179 817,-173"/>
<polyline fill="none" stroke="black" points="817,-173 817,-161 "/>
<path fill="none" stroke="black" d="M817,-161C817,-155 823,-149 829,-149"/>
<text text-anchor="middle" x="909" y="-163.4" font-family="Times Roman,serif" font-size="14.00">zope.documenttemplate</text>
</g>
<!-- agx.core -->
<g id="node11" class="node"><title>agx.core</title>
<polygon fill="#eea9b8" stroke="#eea9b8" points="323.5,-149 374.5,-149 386.5,-161 386.5,-173 374.5,-185 323.5,-185 311.5,-173 311.5,-161 323.5,-149"/>
<path fill="#eea9b8" stroke="#eea9b8" d="M374.5,-149C380.5,-149 386.5,-155 386.5,-161"/>
<path fill="#eea9b8" stroke="#eea9b8" d="M386.5,-173C386.5,-179 380.5,-185 374.5,-185"/>
<path fill="#eea9b8" stroke="#eea9b8" d="M323.5,-185C317.5,-185 311.5,-179 311.5,-173"/>
<path fill="#eea9b8" stroke="#eea9b8" d="M311.5,-161C311.5,-155 317.5,-149 323.5,-149"/>
<polyline fill="none" stroke="black" points="323.5,-149 374.5,-149 "/>
<path fill="none" stroke="black" d="M374.5,-149C380.5,-149 386.5,-155 386.5,-161"/>
<polyline fill="none" stroke="black" points="386.5,-161 386.5,-173 "/>
<path fill="none" stroke="black" d="M386.5,-173C386.5,-179 380.5,-185 374.5,-185"/>
<polyline fill="none" stroke="black" points="374.5,-185 323.5,-185 "/>
<path fill="none" stroke="black" d="M323.5,-185C317.5,-185 311.5,-179 311.5,-173"/>
<polyline fill="none" stroke="black" points="311.5,-173 311.5,-161 "/>
<path fill="none" stroke="black" d="M311.5,-161C311.5,-155 317.5,-149 323.5,-149"/>
<text text-anchor="middle" x="349" y="-163.4" font-family="Times Roman,serif" font-size="14.00">agx.core</text>
</g>
<!-- agx.core&#45;&gt;node -->
<g id="edge14" class="edge"><title>agx.core&#45;&gt;node</title>
<path fill="none" stroke="black" d="M324.782,-148.898C309.441,-137.43 289.67,-122.653 274.311,-111.172"/>
</g>
<!-- agx.core&#45;&gt;zope.configuration -->
<g id="edge16" class="edge"><title>agx.core&#45;&gt;zope.configuration</title>
<path fill="none" stroke="black" d="M353.449,-148.708C356.24,-137.238 359.821,-122.512 362.602,-111.082"/>
</g>
<!-- node.ext.directory -->
<g id="node12" class="node"><title>node.ext.directory</title>
<polygon fill="#7ccd7c" stroke="#7ccd7c" points="459.5,-149 578.5,-149 590.5,-161 590.5,-173 578.5,-185 459.5,-185 447.5,-173 447.5,-161 459.5,-149"/>
<path fill="#7ccd7c" stroke="#7ccd7c" d="M578.5,-149C584.5,-149 590.5,-155 590.5,-161"/>
<path fill="#7ccd7c" stroke="#7ccd7c" d="M590.5,-173C590.5,-179 584.5,-185 578.5,-185"/>
<path fill="#7ccd7c" stroke="#7ccd7c" d="M459.5,-185C453.5,-185 447.5,-179 447.5,-173"/>
<path fill="#7ccd7c" stroke="#7ccd7c" d="M447.5,-161C447.5,-155 453.5,-149 459.5,-149"/>
<polyline fill="none" stroke="black" points="459.5,-149 578.5,-149 "/>
<path fill="none" stroke="black" d="M578.5,-149C584.5,-149 590.5,-155 590.5,-161"/>
<polyline fill="none" stroke="black" points="590.5,-161 590.5,-173 "/>
<path fill="none" stroke="black" d="M590.5,-173C590.5,-179 584.5,-185 578.5,-185"/>
<polyline fill="none" stroke="black" points="578.5,-185 459.5,-185 "/>
<path fill="none" stroke="black" d="M459.5,-185C453.5,-185 447.5,-179 447.5,-173"/>
<polyline fill="none" stroke="black" points="447.5,-173 447.5,-161 "/>
<path fill="none" stroke="black" d="M447.5,-161C447.5,-155 453.5,-149 459.5,-149"/>
<text text-anchor="middle" x="519" y="-163.4" font-family="Times Roman,serif" font-size="14.00">node.ext.directory</text>
</g>
<!-- node.ext.directory&#45;&gt;node -->
<g id="edge18" class="edge"><title>node.ext.directory&#45;&gt;node</title>
<path fill="none" stroke="black" d="M447.259,-154.956C400.461,-145.916 338.539,-131.699 286,-112 283.088,-110.908 280.114,-109.631 277.185,-108.263"/>
</g>
<!-- node.ext.python -->
<g id="node13" class="node"><title>node.ext.python</title>
<polygon fill="#7ccd7c" stroke="#7ccd7c" points="552.5,-223 671.5,-223 683.5,-235 683.5,-247 671.5,-259 552.5,-259 540.5,-247 540.5,-235 552.5,-223"/>
<path fill="#7ccd7c" stroke="#7ccd7c" d="M671.5,-223C677.5,-223 683.5,-229 683.5,-235"/>
<path fill="#7ccd7c" stroke="#7ccd7c" d="M683.5,-247C683.5,-253 677.5,-259 671.5,-259"/>
<path fill="#7ccd7c" stroke="#7ccd7c" d="M552.5,-259C546.5,-259 540.5,-253 540.5,-247"/>
<path fill="#7ccd7c" stroke="#7ccd7c" d="M540.5,-235C540.5,-229 546.5,-223 552.5,-223"/>
<polyline fill="none" stroke="black" points="552.5,-223 671.5,-223 "/>
<path fill="none" stroke="black" d="M671.5,-223C677.5,-223 683.5,-229 683.5,-235"/>
<polyline fill="none" stroke="black" points="683.5,-235 683.5,-247 "/>
<path fill="none" stroke="black" d="M683.5,-247C683.5,-253 677.5,-259 671.5,-259"/>
<polyline fill="none" stroke="black" points="671.5,-259 552.5,-259 "/>
<path fill="none" stroke="black" d="M552.5,-259C546.5,-259 540.5,-253 540.5,-247"/>
<polyline fill="none" stroke="black" points="540.5,-247 540.5,-235 "/>
<path fill="none" stroke="black" d="M540.5,-235C540.5,-229 546.5,-223 552.5,-223"/>
<text text-anchor="middle" x="612" y="-237.4" font-family="Times Roman,serif" font-size="14.00">node.ext.directory</text>
</g>
<!-- node.ext.python&#45;&gt;node.ext.directory -->
<g id="edge20" class="edge"><title>node.ext.python&#45;&gt;node.ext.directory</title>
<path fill="none" stroke="black" d="M589.011,-222.708C574.596,-211.238 556.089,-196.512 541.724,-185.082"/>
</g>
<!-- node.ext.template -->
<g id="node14" class="node"><title>node.ext.template</title>
<polygon fill="#7ccd7c" stroke="#7ccd7c" points="712.5,-223 831.5,-223 843.5,-235 843.5,-247 831.5,-259 712.5,-259 700.5,-247 700.5,-235 712.5,-223"/>
<path fill="#7ccd7c" stroke="#7ccd7c" d="M831.5,-223C837.5,-223 843.5,-229 843.5,-235"/>
<path fill="#7ccd7c" stroke="#7ccd7c" d="M843.5,-247C843.5,-253 837.5,-259 831.5,-259"/>
<path fill="#7ccd7c" stroke="#7ccd7c" d="M712.5,-259C706.5,-259 700.5,-253 700.5,-247"/>
<path fill="#7ccd7c" stroke="#7ccd7c" d="M700.5,-235C700.5,-229 706.5,-223 712.5,-223"/>
<polyline fill="none" stroke="black" points="712.5,-223 831.5,-223 "/>
<path fill="none" stroke="black" d="M831.5,-223C837.5,-223 843.5,-229 843.5,-235"/>
<polyline fill="none" stroke="black" points="843.5,-235 843.5,-247 "/>
<path fill="none" stroke="black" d="M843.5,-247C843.5,-253 837.5,-259 831.5,-259"/>
<polyline fill="none" stroke="black" points="831.5,-259 712.5,-259 "/>
<path fill="none" stroke="black" d="M712.5,-259C706.5,-259 700.5,-253 700.5,-247"/>
<polyline fill="none" stroke="black" points="700.5,-247 700.5,-235 "/>
<path fill="none" stroke="black" d="M700.5,-235C700.5,-229 706.5,-223 712.5,-223"/>
<text text-anchor="middle" x="772" y="-237.4" font-family="Times Roman,serif" font-size="14.00">node.ext.template</text>
</g>
<!-- node.ext.template&#45;&gt;Chameleon -->
<g id="edge26" class="edge"><title>node.ext.template&#45;&gt;Chameleon</title>
<path fill="none" stroke="black" d="M749.258,-222.708C734.998,-211.238 716.691,-196.512 702.48,-185.082"/>
</g>
<!-- node.ext.template&#45;&gt;Jinja2 -->
<g id="edge28" class="edge"><title>node.ext.template&#45;&gt;Jinja2</title>
<path fill="none" stroke="black" d="M772,-222.708C772,-211.238 772,-196.512 772,-185.082"/>
</g>
<!-- node.ext.template&#45;&gt;zope.documenttemplate -->
<g id="edge24" class="edge"><title>node.ext.template&#45;&gt;zope.documenttemplate</title>
<path fill="none" stroke="black" d="M805.514,-222.898C826.744,-211.43 854.103,-196.653 875.357,-185.172"/>
</g>
<!-- node.ext.template&#45;&gt;node.ext.directory -->
<g id="edge22" class="edge"><title>node.ext.template&#45;&gt;node.ext.directory</title>
<path fill="none" stroke="black" d="M710.433,-222.992C671.087,-211.484 620.243,-196.613 580.843,-185.089"/>
</g>
<!-- node.ext.uml -->
<g id="node15" class="node"><title>node.ext.uml</title>
<polygon fill="#7ccd7c" stroke="#7ccd7c" points="208.5,-223 291.5,-223 303.5,-235 303.5,-247 291.5,-259 208.5,-259 196.5,-247 196.5,-235 208.5,-223"/>
<path fill="#7ccd7c" stroke="#7ccd7c" d="M291.5,-223C297.5,-223 303.5,-229 303.5,-235"/>
<path fill="#7ccd7c" stroke="#7ccd7c" d="M303.5,-247C303.5,-253 297.5,-259 291.5,-259"/>
<path fill="#7ccd7c" stroke="#7ccd7c" d="M208.5,-259C202.5,-259 196.5,-253 196.5,-247"/>
<path fill="#7ccd7c" stroke="#7ccd7c" d="M196.5,-235C196.5,-229 202.5,-223 208.5,-223"/>
<polyline fill="none" stroke="black" points="208.5,-223 291.5,-223 "/>
<path fill="none" stroke="black" d="M291.5,-223C297.5,-223 303.5,-229 303.5,-235"/>
<polyline fill="none" stroke="black" points="303.5,-235 303.5,-247 "/>
<path fill="none" stroke="black" d="M303.5,-247C303.5,-253 297.5,-259 291.5,-259"/>
<polyline fill="none" stroke="black" points="291.5,-259 208.5,-259 "/>
<path fill="none" stroke="black" d="M208.5,-259C202.5,-259 196.5,-253 196.5,-247"/>
<polyline fill="none" stroke="black" points="196.5,-247 196.5,-235 "/>
<path fill="none" stroke="black" d="M196.5,-235C196.5,-229 202.5,-223 208.5,-223"/>
<text text-anchor="middle" x="250" y="-237.4" font-family="Times Roman,serif" font-size="14.00">node.ext.uml</text>
</g>
<!-- node.ext.uml&#45;&gt;node -->
<g id="edge30" class="edge"><title>node.ext.uml&#45;&gt;node</title>
<path fill="none" stroke="black" d="M250,-222.852C250,-194.447 250,-139.792 250,-111.296"/>
</g>
<!-- node.ext.xml -->
<g id="node16" class="node"><title>node.ext.xml</title>
<polygon fill="#7ccd7c" stroke="#7ccd7c" points="84.5,-149 167.5,-149 179.5,-161 179.5,-173 167.5,-185 84.5,-185 72.5,-173 72.5,-161 84.5,-149"/>
<path fill="#7ccd7c" stroke="#7ccd7c" d="M167.5,-149C173.5,-149 179.5,-155 179.5,-161"/>
<path fill="#7ccd7c" stroke="#7ccd7c" d="M179.5,-173C179.5,-179 173.5,-185 167.5,-185"/>
<path fill="#7ccd7c" stroke="#7ccd7c" d="M84.5,-185C78.5,-185 72.5,-179 72.5,-173"/>
<path fill="#7ccd7c" stroke="#7ccd7c" d="M72.5,-161C72.5,-155 78.5,-149 84.5,-149"/>
<polyline fill="none" stroke="black" points="84.5,-149 167.5,-149 "/>
<path fill="none" stroke="black" d="M167.5,-149C173.5,-149 179.5,-155 179.5,-161"/>
<polyline fill="none" stroke="black" points="179.5,-161 179.5,-173 "/>
<path fill="none" stroke="black" d="M179.5,-173C179.5,-179 173.5,-185 167.5,-185"/>
<polyline fill="none" stroke="black" points="167.5,-185 84.5,-185 "/>
<path fill="none" stroke="black" d="M84.5,-185C78.5,-185 72.5,-179 72.5,-173"/>
<polyline fill="none" stroke="black" points="72.5,-173 72.5,-161 "/>
<path fill="none" stroke="black" d="M72.5,-161C72.5,-155 78.5,-149 84.5,-149"/>
<text text-anchor="middle" x="126" y="-163.4" font-family="Times Roman,serif" font-size="14.00">node.ext.xml</text>
</g>
<!-- node.ext.xml&#45;&gt;lxml -->
<g id="edge36" class="edge"><title>node.ext.xml&#45;&gt;lxml</title>
<path fill="none" stroke="black" d="M126,-148.708C126,-137.238 126,-122.512 126,-111.082"/>
</g>
<!-- node.ext.xml&#45;&gt;node -->
<g id="edge34" class="edge"><title>node.ext.xml&#45;&gt;node</title>
<path fill="none" stroke="black" d="M156.334,-148.898C176.696,-136.746 203.288,-120.876 222.934,-109.152"/>
</g>
<!-- node.ext.xmi -->
<g id="node17" class="node"><title>node.ext.xmi</title>
<polygon fill="#7ccd7c" stroke="#7ccd7c" points="84.5,-223 167.5,-223 179.5,-235 179.5,-247 167.5,-259 84.5,-259 72.5,-247 72.5,-235 84.5,-223"/>
<path fill="#7ccd7c" stroke="#7ccd7c" d="M167.5,-223C173.5,-223 179.5,-229 179.5,-235"/>
<path fill="#7ccd7c" stroke="#7ccd7c" d="M179.5,-247C179.5,-253 173.5,-259 167.5,-259"/>
<path fill="#7ccd7c" stroke="#7ccd7c" d="M84.5,-259C78.5,-259 72.5,-253 72.5,-247"/>
<path fill="#7ccd7c" stroke="#7ccd7c" d="M72.5,-235C72.5,-229 78.5,-223 84.5,-223"/>
<polyline fill="none" stroke="black" points="84.5,-223 167.5,-223 "/>
<path fill="none" stroke="black" d="M167.5,-223C173.5,-223 179.5,-229 179.5,-235"/>
<polyline fill="none" stroke="black" points="179.5,-235 179.5,-247 "/>
<path fill="none" stroke="black" d="M179.5,-247C179.5,-253 173.5,-259 167.5,-259"/>
<polyline fill="none" stroke="black" points="167.5,-259 84.5,-259 "/>
<path fill="none" stroke="black" d="M84.5,-259C78.5,-259 72.5,-253 72.5,-247"/>
<polyline fill="none" stroke="black" points="72.5,-247 72.5,-235 "/>
<path fill="none" stroke="black" d="M72.5,-235C72.5,-229 78.5,-223 84.5,-223"/>
<text text-anchor="middle" x="126" y="-237.4" font-family="Times Roman,serif" font-size="14.00">node.ext.xmi</text>
</g>
<!-- node.ext.xmi&#45;&gt;node.ext.xml -->
<g id="edge32" class="edge"><title>node.ext.xmi&#45;&gt;node.ext.xml</title>
<path fill="none" stroke="black" d="M126,-222.708C126,-211.238 126,-196.512 126,-185.082"/>
</g>
<!-- node.ext.zcml -->
<g id="node18" class="node"><title>node.ext.zcml</title>
<polygon fill="#7ccd7c" stroke="#7ccd7c" points="11.5,-297 100.5,-297 112.5,-309 112.5,-321 100.5,-333 11.5,-333 -0.5,-321 -0.5,-309 11.5,-297"/>
<path fill="#7ccd7c" stroke="#7ccd7c" d="M100.5,-297C106.5,-297 112.5,-303 112.5,-309"/>
<path fill="#7ccd7c" stroke="#7ccd7c" d="M112.5,-321C112.5,-327 106.5,-333 100.5,-333"/>
<path fill="#7ccd7c" stroke="#7ccd7c" d="M11.5,-333C5.5,-333 -0.5,-327 -0.5,-321"/>
<path fill="#7ccd7c" stroke="#7ccd7c" d="M-0.5,-309C-0.5,-303 5.5,-297 11.5,-297"/>
<polyline fill="none" stroke="black" points="11.5,-297 100.5,-297 "/>
<path fill="none" stroke="black" d="M100.5,-297C106.5,-297 112.5,-303 112.5,-309"/>
<polyline fill="none" stroke="black" points="112.5,-309 112.5,-321 "/>
<path fill="none" stroke="black" d="M112.5,-321C112.5,-327 106.5,-333 100.5,-333"/>
<polyline fill="none" stroke="black" points="100.5,-333 11.5,-333 "/>
<path fill="none" stroke="black" d="M11.5,-333C5.5,-333 -0.5,-327 -0.5,-321"/>
<polyline fill="none" stroke="black" points="-0.5,-321 -0.5,-309 "/>
<path fill="none" stroke="black" d="M-0.5,-309C-0.5,-303 5.5,-297 11.5,-297"/>
<text text-anchor="middle" x="56" y="-311.4" font-family="Times Roman,serif" font-size="14.00">node.ext.zcml</text>
</g>
<!-- node.ext.zcml&#45;&gt;node.ext.xml -->
<g id="edge38" class="edge"><title>node.ext.zcml&#45;&gt;node.ext.xml</title>
<path fill="none" stroke="black" d="M53.735,-296.802C52.1427,-277.237 52.0708,-245.749 64,-222 71.4272,-207.213 84.693,-194.613 97.053,-185.218"/>
</g>
<!-- agx.transform.uml2fs -->
<g id="node19" class="node"><title>agx.transform.uml2fs</title>
<polygon fill="#8db6cd" stroke="#8db6cd" points="371,-223 511,-223 523,-235 523,-247 511,-259 371,-259 359,-247 359,-235 371,-223"/>
<path fill="#8db6cd" stroke="#8db6cd" d="M511,-223C517,-223 523,-229 523,-235"/>
<path fill="#8db6cd" stroke="#8db6cd" d="M523,-247C523,-253 517,-259 511,-259"/>
<path fill="#8db6cd" stroke="#8db6cd" d="M371,-259C365,-259 359,-253 359,-247"/>
<path fill="#8db6cd" stroke="#8db6cd" d="M359,-235C359,-229 365,-223 371,-223"/>
<polyline fill="none" stroke="black" points="371,-223 511,-223 "/>
<path fill="none" stroke="black" d="M511,-223C517,-223 523,-229 523,-235"/>
<polyline fill="none" stroke="black" points="523,-235 523,-247 "/>
<path fill="none" stroke="black" d="M523,-247C523,-253 517,-259 511,-259"/>
<polyline fill="none" stroke="black" points="511,-259 371,-259 "/>
<path fill="none" stroke="black" d="M371,-259C365,-259 359,-253 359,-247"/>
<polyline fill="none" stroke="black" points="359,-247 359,-235 "/>
<path fill="none" stroke="black" d="M359,-235C359,-229 365,-223 371,-223"/>
<text text-anchor="middle" x="441" y="-237.4" font-family="Times Roman,serif" font-size="14.00">agx.transform.uml2fs</text>
</g>
<!-- agx.transform.uml2fs&#45;&gt;agx.core -->
<g id="edge46" class="edge"><title>agx.transform.uml2fs&#45;&gt;agx.core</title>
<path fill="none" stroke="black" d="M418.258,-222.708C403.998,-211.238 385.691,-196.512 371.48,-185.082"/>
</g>
<!-- agx.transform.uml2fs&#45;&gt;node.ext.directory -->
<g id="edge48" class="edge"><title>agx.transform.uml2fs&#45;&gt;node.ext.directory</title>
<path fill="none" stroke="black" d="M460.281,-222.708C472.371,-211.238 487.893,-196.512 499.941,-185.082"/>
</g>
<!-- agx.transform.xmi2uml -->
<g id="node20" class="node"><title>agx.transform.xmi2uml</title>
<polygon fill="#8db6cd" stroke="#8db6cd" points="162.5,-297 315.5,-297 327.5,-309 327.5,-321 315.5,-333 162.5,-333 150.5,-321 150.5,-309 162.5,-297"/>
<path fill="#8db6cd" stroke="#8db6cd" d="M315.5,-297C321.5,-297 327.5,-303 327.5,-309"/>
<path fill="#8db6cd" stroke="#8db6cd" d="M327.5,-321C327.5,-327 321.5,-333 315.5,-333"/>
<path fill="#8db6cd" stroke="#8db6cd" d="M162.5,-333C156.5,-333 150.5,-327 150.5,-321"/>
<path fill="#8db6cd" stroke="#8db6cd" d="M150.5,-309C150.5,-303 156.5,-297 162.5,-297"/>
<polyline fill="none" stroke="black" points="162.5,-297 315.5,-297 "/>
<path fill="none" stroke="black" d="M315.5,-297C321.5,-297 327.5,-303 327.5,-309"/>
<polyline fill="none" stroke="black" points="327.5,-309 327.5,-321 "/>
<path fill="none" stroke="black" d="M327.5,-321C327.5,-327 321.5,-333 315.5,-333"/>
<polyline fill="none" stroke="black" points="315.5,-333 162.5,-333 "/>
<path fill="none" stroke="black" d="M162.5,-333C156.5,-333 150.5,-327 150.5,-321"/>
<polyline fill="none" stroke="black" points="150.5,-321 150.5,-309 "/>
<path fill="none" stroke="black" d="M150.5,-309C150.5,-303 156.5,-297 162.5,-297"/>
<text text-anchor="middle" x="239" y="-311.4" font-family="Times Roman,serif" font-size="14.00">agx.transform.xmi2uml</text>
</g>
<!-- agx.transform.xmi2uml&#45;&gt;agx.core -->
<g id="edge40" class="edge"><title>agx.transform.xmi2uml&#45;&gt;agx.core</title>
<path fill="none" stroke="black" d="M270.598,-296.773C284.797,-287.297 300.833,-274.633 312,-260 329.395,-237.208 339.737,-205.162 344.892,-185.259"/>
</g>
<!-- agx.transform.xmi2uml&#45;&gt;node.ext.uml -->
<g id="edge44" class="edge"><title>agx.transform.xmi2uml&#45;&gt;node.ext.uml</title>
<path fill="none" stroke="black" d="M241.719,-296.708C243.424,-285.238 245.613,-270.512 247.312,-259.082"/>
</g>
<!-- agx.transform.xmi2uml&#45;&gt;node.ext.xmi -->
<g id="edge42" class="edge"><title>agx.transform.xmi2uml&#45;&gt;node.ext.xmi</title>
<path fill="none" stroke="black" d="M211.357,-296.898C193.846,-285.43 171.28,-270.653 153.749,-259.172"/>
</g>
<!-- agx.generator.uml -->
<g id="node21" class="node"><title>agx.generator.uml</title>
<polygon fill="#ee9a49" stroke="#ee9a49" points="153.5,-519 272.5,-519 284.5,-531 284.5,-543 272.5,-555 153.5,-555 141.5,-543 141.5,-531 153.5,-519"/>
<path fill="#ee9a49" stroke="#ee9a49" d="M272.5,-519C278.5,-519 284.5,-525 284.5,-531"/>
<path fill="#ee9a49" stroke="#ee9a49" d="M284.5,-543C284.5,-549 278.5,-555 272.5,-555"/>
<path fill="#ee9a49" stroke="#ee9a49" d="M153.5,-555C147.5,-555 141.5,-549 141.5,-543"/>
<path fill="#ee9a49" stroke="#ee9a49" d="M141.5,-531C141.5,-525 147.5,-519 153.5,-519"/>
<polyline fill="none" stroke="black" points="153.5,-519 272.5,-519 "/>
<path fill="none" stroke="black" d="M272.5,-519C278.5,-519 284.5,-525 284.5,-531"/>
<polyline fill="none" stroke="black" points="284.5,-531 284.5,-543 "/>
<path fill="none" stroke="black" d="M284.5,-543C284.5,-549 278.5,-555 272.5,-555"/>
<polyline fill="none" stroke="black" points="272.5,-555 153.5,-555 "/>
<path fill="none" stroke="black" d="M153.5,-555C147.5,-555 141.5,-549 141.5,-543"/>
<polyline fill="none" stroke="black" points="141.5,-543 141.5,-531 "/>
<path fill="none" stroke="black" d="M141.5,-531C141.5,-525 147.5,-519 153.5,-519"/>
<text text-anchor="middle" x="213" y="-533.4" font-family="Times Roman,serif" font-size="14.00">agx.generator.uml</text>
</g>
<!-- agx.generator.uml&#45;&gt;agx.transform.xmi2uml -->
<g id="edge50" class="edge"><title>agx.generator.uml&#45;&gt;agx.transform.xmi2uml</title>
<path fill="none" stroke="black" d="M214.974,-518.951C218.342,-488.312 225.471,-424.175 232,-370 233.474,-357.768 235.224,-344.018 236.606,-333.326"/>
</g>
<!-- agx.generator.pyegg -->
<g id="node22" class="node"><title>agx.generator.pyegg</title>
<polygon fill="#ee9a49" stroke="#ee9a49" points="399,-297 533,-297 545,-309 545,-321 533,-333 399,-333 387,-321 387,-309 399,-297"/>
<path fill="#ee9a49" stroke="#ee9a49" d="M533,-297C539,-297 545,-303 545,-309"/>
<path fill="#ee9a49" stroke="#ee9a49" d="M545,-321C545,-327 539,-333 533,-333"/>
<path fill="#ee9a49" stroke="#ee9a49" d="M399,-333C393,-333 387,-327 387,-321"/>
<path fill="#ee9a49" stroke="#ee9a49" d="M387,-309C387,-303 393,-297 399,-297"/>
<polyline fill="none" stroke="black" points="399,-297 533,-297 "/>
<path fill="none" stroke="black" d="M533,-297C539,-297 545,-303 545,-309"/>
<polyline fill="none" stroke="black" points="545,-309 545,-321 "/>
<path fill="none" stroke="black" d="M545,-321C545,-327 539,-333 533,-333"/>
<polyline fill="none" stroke="black" points="533,-333 399,-333 "/>
<path fill="none" stroke="black" d="M399,-333C393,-333 387,-327 387,-321"/>
<polyline fill="none" stroke="black" points="387,-321 387,-309 "/>
<path fill="none" stroke="black" d="M387,-309C387,-303 393,-297 399,-297"/>
<text text-anchor="middle" x="466" y="-311.4" font-family="Times Roman,serif" font-size="14.00">agx.generator.pyegg</text>
</g>
<!-- agx.generator.pyegg&#45;&gt;node.ext.python -->
<g id="edge54" class="edge"><title>agx.generator.pyegg&#45;&gt;node.ext.python</title>
<path fill="none" stroke="black" d="M501.716,-296.898C524.425,-285.388 553.714,-270.542 576.4,-259.044"/>
</g>
<!-- agx.generator.pyegg&#45;&gt;node.ext.template -->
<g id="edge52" class="edge"><title>agx.generator.pyegg&#45;&gt;node.ext.template</title>
<path fill="none" stroke="black" d="M540.465,-296.992C589.114,-285.227 652.298,-269.947 700.369,-258.323"/>
</g>
<!-- agx.generator.pyegg&#45;&gt;node.ext.uml -->
<g id="edge56" class="edge"><title>agx.generator.pyegg&#45;&gt;node.ext.uml</title>
<path fill="none" stroke="black" d="M413.437,-296.992C379.845,-285.484 336.437,-270.613 302.799,-259.089"/>
</g>
<!-- agx.generator.pyegg&#45;&gt;agx.transform.uml2fs -->
<g id="edge58" class="edge"><title>agx.generator.pyegg&#45;&gt;agx.transform.uml2fs</title>
<path fill="none" stroke="black" d="M459.82,-296.708C455.945,-285.238 450.97,-270.512 447.109,-259.082"/>
</g>
<!-- agx.generator.zca -->
<g id="node23" class="node"><title>agx.generator.zca</title>
<polygon fill="#ee9a49" stroke="#ee9a49" points="253,-371 369,-371 381,-383 381,-395 369,-407 253,-407 241,-395 241,-383 253,-371"/>
<path fill="#ee9a49" stroke="#ee9a49" d="M369,-371C375,-371 381,-377 381,-383"/>
<path fill="#ee9a49" stroke="#ee9a49" d="M381,-395C381,-401 375,-407 369,-407"/>
<path fill="#ee9a49" stroke="#ee9a49" d="M253,-407C247,-407 241,-401 241,-395"/>
<path fill="#ee9a49" stroke="#ee9a49" d="M241,-383C241,-377 247,-371 253,-371"/>
<polyline fill="none" stroke="black" points="253,-371 369,-371 "/>
<path fill="none" stroke="black" d="M369,-371C375,-371 381,-377 381,-383"/>
<polyline fill="none" stroke="black" points="381,-383 381,-395 "/>
<path fill="none" stroke="black" d="M381,-395C381,-401 375,-407 369,-407"/>
<polyline fill="none" stroke="black" points="369,-407 253,-407 "/>
<path fill="none" stroke="black" d="M253,-407C247,-407 241,-401 241,-395"/>
<polyline fill="none" stroke="black" points="241,-395 241,-383 "/>
<path fill="none" stroke="black" d="M241,-383C241,-377 247,-371 253,-371"/>
<text text-anchor="middle" x="311" y="-385.4" font-family="Times Roman,serif" font-size="14.00">agx.generator.zca</text>
</g>
<!-- agx.generator.zca&#45;&gt;node.ext.zcml -->
<g id="edge62" class="edge"><title>agx.generator.zca&#45;&gt;node.ext.zcml</title>
<path fill="none" stroke="black" d="M248.946,-370.992C207.373,-358.928 153.063,-343.167 112.658,-331.442"/>
</g>
<!-- agx.generator.zca&#45;&gt;agx.generator.pyegg -->
<g id="edge60" class="edge"><title>agx.generator.zca&#45;&gt;agx.generator.pyegg</title>
<path fill="none" stroke="black" d="M348.917,-370.898C373.026,-359.388 404.121,-344.542 428.206,-333.044"/>
</g>
<!-- agx.generator.buildout -->
<g id="node24" class="node"><title>agx.generator.buildout</title>
<polygon fill="#ee9a49" stroke="#ee9a49" points="410.5,-371 559.5,-371 571.5,-383 571.5,-395 559.5,-407 410.5,-407 398.5,-395 398.5,-383 410.5,-371"/>
<path fill="#ee9a49" stroke="#ee9a49" d="M559.5,-371C565.5,-371 571.5,-377 571.5,-383"/>
<path fill="#ee9a49" stroke="#ee9a49" d="M571.5,-395C571.5,-401 565.5,-407 559.5,-407"/>
<path fill="#ee9a49" stroke="#ee9a49" d="M410.5,-407C404.5,-407 398.5,-401 398.5,-395"/>
<path fill="#ee9a49" stroke="#ee9a49" d="M398.5,-383C398.5,-377 404.5,-371 410.5,-371"/>
<polyline fill="none" stroke="black" points="410.5,-371 559.5,-371 "/>
<path fill="none" stroke="black" d="M559.5,-371C565.5,-371 571.5,-377 571.5,-383"/>
<polyline fill="none" stroke="black" points="571.5,-383 571.5,-395 "/>
<path fill="none" stroke="black" d="M571.5,-395C571.5,-401 565.5,-407 559.5,-407"/>
<polyline fill="none" stroke="black" points="559.5,-407 410.5,-407 "/>
<path fill="none" stroke="black" d="M410.5,-407C404.5,-407 398.5,-401 398.5,-395"/>
<polyline fill="none" stroke="black" points="398.5,-395 398.5,-383 "/>
<path fill="none" stroke="black" d="M398.5,-383C398.5,-377 404.5,-371 410.5,-371"/>
<text text-anchor="middle" x="485" y="-385.4" font-family="Times Roman,serif" font-size="14.00">agx.generator.buildout</text>
</g>
<!-- agx.generator.buildout&#45;&gt;agx.generator.pyegg -->
<g id="edge64" class="edge"><title>agx.generator.buildout&#45;&gt;agx.generator.pyegg</title>
<path fill="none" stroke="black" d="M480.303,-370.708C477.358,-359.238 473.577,-344.512 470.643,-333.082"/>
</g>
<!-- agx.generator.plone -->
<g id="node25" class="node"><title>agx.generator.plone</title>
<polygon fill="#ee9a49" stroke="#ee9a49" points="326.5,-445 457.5,-445 469.5,-457 469.5,-469 457.5,-481 326.5,-481 314.5,-469 314.5,-457 326.5,-445"/>
<path fill="#ee9a49" stroke="#ee9a49" d="M457.5,-445C463.5,-445 469.5,-451 469.5,-457"/>
<path fill="#ee9a49" stroke="#ee9a49" d="M469.5,-469C469.5,-475 463.5,-481 457.5,-481"/>
<path fill="#ee9a49" stroke="#ee9a49" d="M326.5,-481C320.5,-481 314.5,-475 314.5,-469"/>
<path fill="#ee9a49" stroke="#ee9a49" d="M314.5,-457C314.5,-451 320.5,-445 326.5,-445"/>
<polyline fill="none" stroke="black" points="326.5,-445 457.5,-445 "/>
<path fill="none" stroke="black" d="M457.5,-445C463.5,-445 469.5,-451 469.5,-457"/>
<polyline fill="none" stroke="black" points="469.5,-457 469.5,-469 "/>
<path fill="none" stroke="black" d="M469.5,-469C469.5,-475 463.5,-481 457.5,-481"/>
<polyline fill="none" stroke="black" points="457.5,-481 326.5,-481 "/>
<path fill="none" stroke="black" d="M326.5,-481C320.5,-481 314.5,-475 314.5,-469"/>
<polyline fill="none" stroke="black" points="314.5,-469 314.5,-457 "/>
<path fill="none" stroke="black" d="M314.5,-457C314.5,-451 320.5,-445 326.5,-445"/>
<text text-anchor="middle" x="392" y="-459.4" font-family="Times Roman,serif" font-size="14.00">agx.generator.plone</text>
</g>
<!-- agx.generator.plone&#45;&gt;agx.generator.zca -->
<g id="edge66" class="edge"><title>agx.generator.plone&#45;&gt;agx.generator.zca</title>
<path fill="none" stroke="black" d="M371.978,-444.708C359.422,-433.238 343.304,-418.512 330.792,-407.082"/>
</g>
<!-- agx.generator.plone&#45;&gt;agx.generator.buildout -->
<g id="edge68" class="edge"><title>agx.generator.plone&#45;&gt;agx.generator.buildout</title>
<path fill="none" stroke="black" d="M414.989,-444.708C429.404,-433.238 447.911,-418.512 462.276,-407.082"/>
</g>
<!-- agx.generator.dexterity -->
<g id="node26" class="node"><title>agx.generator.dexterity</title>
<polygon fill="#ee9a49" stroke="#ee9a49" points="314,-519 470,-519 482,-531 482,-543 470,-555 314,-555 302,-543 302,-531 314,-519"/>
<path fill="#ee9a49" stroke="#ee9a49" d="M470,-519C476,-519 482,-525 482,-531"/>
<path fill="#ee9a49" stroke="#ee9a49" d="M482,-543C482,-549 476,-555 470,-555"/>
<path fill="#ee9a49" stroke="#ee9a49" d="M314,-555C308,-555 302,-549 302,-543"/>
<path fill="#ee9a49" stroke="#ee9a49" d="M302,-531C302,-525 308,-519 314,-519"/>
<polyline fill="none" stroke="black" points="314,-519 470,-519 "/>
<path fill="none" stroke="black" d="M470,-519C476,-519 482,-525 482,-531"/>
<polyline fill="none" stroke="black" points="482,-531 482,-543 "/>
<path fill="none" stroke="black" d="M482,-543C482,-549 476,-555 470,-555"/>
<polyline fill="none" stroke="black" points="470,-555 314,-555 "/>
<path fill="none" stroke="black" d="M314,-555C308,-555 302,-549 302,-543"/>
<polyline fill="none" stroke="black" points="302,-543 302,-531 "/>
<path fill="none" stroke="black" d="M302,-531C302,-525 308,-519 314,-519"/>
<text text-anchor="middle" x="392" y="-533.4" font-family="Times Roman,serif" font-size="14.00">agx.generator.dexterity</text>
</g>
<!-- agx.generator.dexterity&#45;&gt;agx.generator.plone -->
<g id="edge70" class="edge"><title>agx.generator.dexterity&#45;&gt;agx.generator.plone</title>
<path fill="none" stroke="black" d="M392,-518.708C392,-507.238 392,-492.512 392,-481.082"/>
</g>
<!-- agx.dev -->
<g id="node27" class="node"><title>agx.dev</title>
<polygon fill="#eeee00" stroke="#eeee00" points="278.5,-593 325.5,-593 337.5,-605 337.5,-617 325.5,-629 278.5,-629 266.5,-617 266.5,-605 278.5,-593"/>
<path fill="#eeee00" stroke="#eeee00" d="M325.5,-593C331.5,-593 337.5,-599 337.5,-605"/>
<path fill="#eeee00" stroke="#eeee00" d="M337.5,-617C337.5,-623 331.5,-629 325.5,-629"/>
<path fill="#eeee00" stroke="#eeee00" d="M278.5,-629C272.5,-629 266.5,-623 266.5,-617"/>
<path fill="#eeee00" stroke="#eeee00" d="M266.5,-605C266.5,-599 272.5,-593 278.5,-593"/>
<polyline fill="none" stroke="black" points="278.5,-593 325.5,-593 "/>
<path fill="none" stroke="black" d="M325.5,-593C331.5,-593 337.5,-599 337.5,-605"/>
<polyline fill="none" stroke="black" points="337.5,-605 337.5,-617 "/>
<path fill="none" stroke="black" d="M337.5,-617C337.5,-623 331.5,-629 325.5,-629"/>
<polyline fill="none" stroke="black" points="325.5,-629 278.5,-629 "/>
<path fill="none" stroke="black" d="M278.5,-629C272.5,-629 266.5,-623 266.5,-617"/>
<polyline fill="none" stroke="black" points="266.5,-617 266.5,-605 "/>
<path fill="none" stroke="black" d="M266.5,-605C266.5,-599 272.5,-593 278.5,-593"/>
<text text-anchor="middle" x="302" y="-607.4" font-family="Times Roman,serif" font-size="14.00">agx.dev</text>
</g>
<!-- agx.dev&#45;&gt;agx.generator.uml -->
<g id="edge10" class="edge"><title>agx.dev&#45;&gt;agx.generator.uml</title>
<path fill="none" stroke="black" d="M280,-592.708C266.205,-581.238 248.494,-566.512 234.747,-555.082"/>
</g>
<!-- agx.dev&#45;&gt;agx.generator.dexterity -->
<g id="edge12" class="edge"><title>agx.dev&#45;&gt;agx.generator.dexterity</title>
<path fill="none" stroke="black" d="M324.247,-592.708C338.198,-581.238 356.107,-566.512 370.009,-555.082"/>
</g>
</g>
</svg>
