<?xml version="1.0" encoding="UTF-8" standalone="no"?>
<!DOCTYPE svg PUBLIC "-//W3C//DTD SVG 1.1//EN"
 "http://www.w3.org/Graphics/SVG/1.1/DTD/svg11.dtd">
<!-- Generated by graphviz version 2.26.3 (20100126.1600)
 -->
<!-- Title: configlegend Pages: 1 -->
<svg width="360pt" height="34pt"
 viewBox="0.00 0.00 360.00 33.52" xmlns="http://www.w3.org/2000/svg" xmlns:xlink="http://www.w3.org/1999/xlink">
<g id="graph1" class="graph" transform="scale(0.728745 0.728745) rotate(0) translate(4 42)">
<title>configlegend</title>
<polygon fill="white" stroke="white" points="-4,5 -4,-42 491,-42 491,5 -4,5"/>
<!-- transform -->
<g id="node1" class="node"><title>transform</title>
<polygon fill="#8db6cd" stroke="black" points="-0.5,-1 -0.5,-37 84.5,-37 84.5,-1 -0.5,-1"/>
<text text-anchor="middle" x="42" y="-15.4" font-family="Times Roman,serif" font-size="14.00">Transform</text>
</g>
<!-- generator -->
<g id="node2" class="node"><title>generator</title>
<polygon fill="#eea9b8" stroke="black" points="102,-1 102,-37 190,-37 190,-1 102,-1"/>
<text text-anchor="middle" x="146" y="-15.4" font-family="Times Roman,serif" font-size="14.00">Generator</text>
</g>
<!-- targethandler -->
<g id="node3" class="node"><title>targethandler</title>
<polygon fill="#ee9a49" stroke="black" points="207.5,-1 207.5,-37 324.5,-37 324.5,-1 207.5,-1"/>
<text text-anchor="middle" x="266" y="-15.4" font-family="Times Roman,serif" font-size="14.00">Target handler</text>
</g>
<!-- handler -->
<g id="node4" class="node"><title>handler</title>
<polygon fill="#7ccd7c" stroke="black" points="341.5,-1 341.5,-37 412.5,-37 412.5,-1 341.5,-1"/>
<text text-anchor="middle" x="377" y="-15.4" font-family="Times Roman,serif" font-size="14.00">Handler</text>
</g>
<!-- scope -->
<g id="node5" class="node"><title>scope</title>
<polygon fill="#eeee00" stroke="black" points="429.5,-1 429.5,-37 486.5,-37 486.5,-1 429.5,-1"/>
<text text-anchor="middle" x="458" y="-15.4" font-family="Times Roman,serif" font-size="14.00">Scope</text>
</g>
</g>
</svg>
