<?xml version="1.0" encoding="UTF-8" standalone="no"?>
<!DOCTYPE svg PUBLIC "-//W3C//DTD SVG 1.1//EN"
 "http://www.w3.org/Graphics/SVG/1.1/DTD/svg11.dtd">
<!-- Generated by graphviz version 2.26.3 (20100126.1600)
 -->
<!-- Title: depslegend Pages: 1 -->
<svg width="360pt" height="31pt"
 viewBox="0.00 0.00 360.00 31.48" xmlns="http://www.w3.org/2000/svg" xmlns:xlink="http://www.w3.org/1999/xlink">
<g id="graph1" class="graph" transform="scale(0.684411 0.684411) rotate(0) translate(4 42)">
<title>depslegend</title>
<polygon fill="white" stroke="white" points="-4,5 -4,-42 523,-42 523,5 -4,5"/>
<!-- nonagx -->
<g id="node1" class="node"><title>nonagx</title>
<polygon fill="#e5e5e5" stroke="black" points="0,-1 0,-37 80,-37 80,-1 0,-1"/>
<text text-anchor="middle" x="40" y="-15.4" font-family="Times Roman,serif" font-size="14.00">Non AGX</text>
</g>
<!-- core -->
<g id="node2" class="node"><title>core</title>
<polygon fill="#eea9b8" stroke="black" points="98,-1 98,-37 152,-37 152,-1 98,-1"/>
<text text-anchor="middle" x="125" y="-15.4" font-family="Times Roman,serif" font-size="14.00">Core</text>
</g>
<!-- io -->
<g id="node3" class="node"><title>io</title>
<polygon fill="#7ccd7c" stroke="black" points="170,-1 170,-37 224,-37 224,-1 170,-1"/>
<text text-anchor="middle" x="197" y="-15.4" font-family="Times Roman,serif" font-size="14.00">IO</text>
</g>
<!-- transform -->
<g id="node4" class="node"><title>transform</title>
<polygon fill="#8db6cd" stroke="black" points="241.5,-1 241.5,-37 326.5,-37 326.5,-1 241.5,-1"/>
<text text-anchor="middle" x="284" y="-15.4" font-family="Times Roman,serif" font-size="14.00">Transform</text>
</g>
<!-- generator -->
<g id="node5" class="node"><title>generator</title>
<polygon fill="#ee9a49" stroke="black" points="344,-1 344,-37 432,-37 432,-1 344,-1"/>
<text text-anchor="middle" x="388" y="-15.4" font-family="Times Roman,serif" font-size="14.00">Generator</text>
</g>
<!-- flavour -->
<g id="node6" class="node"><title>flavour</title>
<polygon fill="#eeee00" stroke="black" points="450,-1 450,-37 518,-37 518,-1 450,-1"/>
<text text-anchor="middle" x="484" y="-15.4" font-family="Times Roman,serif" font-size="14.00">Flavour</text>
</g>
</g>
</svg>
